<?xml version="1.0" encoding="UTF-8" standalone="no"?>
<svg
   version="1.1"
   width="571"
   height="540"
   viewBox="-0.5 -0.5 571 540"
   id="svg27"
   sodipodi:docname="standard-background.svg"
   inkscape:version="1.3 (0e150ed6c4, 2023-07-21)"
   xmlns:inkscape="http://www.inkscape.org/namespaces/inkscape"
   xmlns:sodipodi="http://sodipodi.sourceforge.net/DTD/sodipodi-0.dtd"
   xmlns="http://www.w3.org/2000/svg"
   xmlns:svg="http://www.w3.org/2000/svg">
  <sodipodi:namedview
     id="namedview27"
     pagecolor="#ffffff"
     bordercolor="#000000"
     borderopacity="0.25"
     inkscape:showpageshadow="2"
     inkscape:pageopacity="0.0"
     inkscape:pagecheckerboard="0"
     inkscape:deskcolor="#d1d1d1"
     inkscape:zoom="1.2791209"
     inkscape:cx="267.76203"
     inkscape:cy="243.13574"
     inkscape:window-width="1920"
     inkscape:window-height="999"
     inkscape:window-x="1050"
     inkscape:window-y="727"
     inkscape:window-maximized="1"
     inkscape:current-layer="svg27" />
  <defs
     id="defs1" />
  <g
     id="g27"
     transform="translate(-0.5,-40.5)">
    <path
       d="M 286,360 H 181 q -10,0 -4.33,-8.24 l 43.66,-63.52 Q 226,280 236,280 h 100 q 10,0 15.67,8.24 l 43.66,63.52 Q 401,360 391,360 Z"
       fill="#adadad"
       stroke="none"
       transform="matrix(1,0,0,-1,0,640)"
       pointer-events="none"
       id="path1" />
    <path
       d="m 121,340 9,-12 q 6,-8 16,-8 h 40 q 10,0 16,8 l 18,24 q 6,8 0,16 l -18,24 q -6,8 -16,8 h -40 q -10,0 -16,-8 l -18,-24 q -6,-8 0,-16 z"
       fill="#adadad"
       stroke="none"
       transform="rotate(90,166,360)"
       pointer-events="none"
       id="path2" />
    <path
       d="m 116,440 5.53,-11.06 Q 126,420 136,420 h 60 q 10,0 14.47,8.94 l 11.06,22.12 q 4.47,8.94 0,17.88 l -11.06,22.12 Q 206,500 196,500 h -60 q -10,0 -14.47,-8.94 l -11.06,-22.12 q -4.47,-8.94 0,-17.88 z"
       fill="#adadad"
       stroke="none"
       transform="rotate(90,166,460)"
       pointer-events="none"
       id="path3" />
    <path
       d="m 141,400 5,-5 q 5,-5 15,-5 h 10 q 10,0 17.07,7.07 l 6.47,6.47 q 6.46,6.46 -0.61,13.53 l -6.47,6.47 Q 181,430 171,430 h -10 q -10,0 -17.07,-7.07 l -6.47,-6.47 Q 131,410 136,405 Z"
       fill="#adadad"
       stroke="none"
       transform="rotate(180,166,410)"
       pointer-events="none"
       id="path4" />
    <path
       d="m 163.58,315.03 5,-5 q 5,-5 15,-5 h 17.87 q 10,0 17.07,7.07 l 6.47,6.47 q 6.46,6.46 -0.61,13.53 l -6.47,6.47 q -6.46,6.46 -16.46,6.46 h -17.87 q -10,0 -17.07,-7.07 l -6.47,-6.47 q -6.46,-6.46 -1.46,-11.46 z"
       fill="#adadad"
       stroke="none"
       transform="rotate(-125,192.51,325.03)"
       pointer-events="none"
       id="path5" />
    <path
       d="m 141,510 5,-5 q 5,-5 15,-5 h 10 q 10,0 17.07,7.07 l 6.47,6.47 q 6.46,6.46 -0.61,13.53 l -6.47,6.47 Q 181,540 171,540 h -10 q -10,0 -17.07,-7.07 l -6.47,-6.47 Q 131,520 136,515 Z"
       fill="#adadad"
       stroke="none"
       transform="rotate(180,166,520)"
       pointer-events="none"
       id="path6" />
    <path
       d="m 166,580 h -45 q -10,0 -6.29,-9.28 l 12.58,-31.44 Q 131,530 141,530 h 50 q 10,0 13.71,9.28 l 12.58,31.44 Q 221,580 211,580 Z"
       fill="#adadad"
       stroke="none"
       pointer-events="none"
       id="path7" />
    <path
       d="m 362.28,338.34 9.62,-12.16 q 6.21,-7.84 16.21,-7.84 h 36.68 q 10,0 16.21,7.84 l 19.24,24.32 q 6.21,7.84 0,15.68 L 441,390.5 q -6.21,7.84 -16.21,7.84 h -36.68 q -10,0 -16.21,-7.84 l -19.24,-24.32 q -6.21,-7.84 0,-15.68 z"
       fill="#adadad"
       stroke="none"
       transform="rotate(90,406.45,358.34)"
       pointer-events="none"
       id="path8" />
    <path
       d="m 356.45,438.34 5.53,-11.06 q 4.47,-8.94 14.47,-8.94 h 60 q 10,0 14.47,8.94 l 11.06,22.12 q 4.47,8.94 0,17.88 l -11.06,22.12 q -4.47,8.94 -14.47,8.94 h -60 q -10,0 -14.47,-8.94 l -11.06,-22.12 q -4.47,-8.94 0,-17.88 z"
       fill="#adadad"
       stroke="none"
       transform="rotate(90,406.45,458.34)"
       pointer-events="none"
       id="path9" />
    <path
       d="m 381.45,398.34 5,-5 q 5,-5 15,-5 h 10 q 10,0 17.07,7.07 l 6.47,6.47 q 6.46,6.46 -0.61,13.53 l -6.47,6.47 q -6.46,6.46 -16.46,6.46 h -10 q -10,0 -17.07,-7.07 l -6.47,-6.47 q -6.46,-6.46 -1.46,-11.46 z"
       fill="#adadad"
       stroke="none"
       transform="rotate(180,406.45,408.34)"
       pointer-events="none"
       id="path10" />
    <path
       d="m 351,313.37 5,-5 q 5,-5 15,-5 h 17.87 q 10,0 17.07,7.07 l 6.47,6.47 q 6.46,6.46 -0.61,13.53 l -6.47,6.47 q -6.46,6.46 -16.46,6.46 H 371 q -10,0 -17.07,-7.07 l -6.47,-6.47 Q 341,323.37 346,318.37 Z"
       fill="#adadad"
       stroke="none"
       transform="rotate(125,379.94,323.37)"
       pointer-events="none"
       id="path11" />
    <path
       d="m 381.45,508.34 5,-5 q 5,-5 15,-5 h 10 q 10,0 17.07,7.07 l 6.47,6.47 q 6.46,6.46 -0.61,13.53 l -6.47,6.47 q -6.46,6.46 -16.46,6.46 h -10 q -10,0 -17.07,-7.07 l -6.47,-6.47 q -6.46,-6.46 -1.46,-11.46 z"
       fill="#adadad"
       stroke="none"
       transform="rotate(180,406.45,518.34)"
       pointer-events="none"
       id="path12" />
    <path
       d="m 406.45,578.34 h -45 q -10,0 -6.29,-9.28 l 12.58,-31.44 q 3.71,-9.28 13.71,-9.28 h 50 q 10,0 13.71,9.28 l 12.58,31.44 q 3.71,9.28 -6.29,9.28 z"
       fill="#adadad"
       stroke="none"
       pointer-events="none"
       id="path13" />
    <path
       d="m 316,60 5.53,-11.06 Q 326,40 336,40 h 60 q 10,0 14.47,8.94 l 11.06,22.12 q 4.47,8.94 0,17.88 l -11.06,22.12 Q 406,120 396,120 h -60 q -10,0 -14.47,-8.94 L 310.47,88.94 Q 306,80 310.47,71.06 Z"
       fill="#adadad"
       stroke="none"
       pointer-events="none"
       id="path14" />
    <path
       d="m 141,107.5 7.42,-27.84 Q 151,70 161,70 h 250 q 10,0 12.58,9.66 l 14.84,55.68 q 2.58,9.66 0,19.32 l -14.84,55.68 Q 421,220 411,220 H 161 q -10,0 -12.58,-9.66 l -14.84,-55.68 q -2.58,-9.66 0,-19.32 z"
       fill="#adadad"
       stroke="none"
       pointer-events="none"
       id="path15" />
    <path
       d="m 156,60 5.53,-11.06 Q 166,40 176,40 h 60 q 10,0 14.47,8.94 l 11.06,22.12 q 4.47,8.94 0,17.88 l -11.06,22.12 Q 246,120 236,120 h -60 q -10,0 -14.47,-8.94 L 150.47,88.94 Q 146,80 150.47,71.06 Z"
       fill="#adadad"
       stroke="none"
       pointer-events="none"
       id="path16" />
    <path
       d="m 181,220 5,-5 q 5,-5 15,-5 h 170 q 10,0 17.07,7.07 l 6.47,6.47 q 6.46,6.46 -0.61,13.53 l -6.47,6.47 Q 381,250 371,250 H 201 q -10,0 -17.07,-7.07 l -6.47,-6.47 Q 171,230 176,225 Z"
       fill="#adadad"
       stroke="none"
       pointer-events="none"
       id="path17" />
    <path
       d="m 186,240 5,-5 q 5,-5 15,-5 h 160 q 10,0 17.07,7.07 l 6.47,6.47 q 6.46,6.46 -0.61,13.53 l -6.47,6.47 Q 376,270 366,270 H 206 q -10,0 -17.07,-7.07 l -6.47,-6.47 Q 176,250 181,245 Z"
       fill="#adadad"
       stroke="none"
       pointer-events="none"
       id="path18" />
    <path
       d="m 191,260 5,-5 q 5,-5 15,-5 h 150 q 10,0 17.07,7.07 l 6.47,6.47 q 6.46,6.46 -0.61,13.53 l -6.47,6.47 Q 371,290 361,290 H 211 q -10,0 -17.07,-7.07 l -6.47,-6.47 Q 181,270 186,265 Z"
       fill="#adadad"
       stroke="none"
       pointer-events="none"
       id="path19" />
    <path
       d="m 431,90.71 5.53,-11.06 Q 441,70.71 451,70.71 h 60 q 10,0 14.47,8.94 l 11.06,22.12 q 4.47,8.94 0,17.88 l -11.06,22.12 Q 521,150.71 511,150.71 h -60 q -10,0 -14.47,-8.94 l -11.06,-22.12 q -4.47,-8.94 0,-17.88 z"
       fill="#adadad"
       stroke="none"
       transform="rotate(45,481,110.71)"
       pointer-events="none"
       id="path20" />
    <path
       d="m 411,100.71 5,-5 q 5,-5 15,-5 h 10 q 10,0 17.07,7.07 l 6.46,6.47 q 6.47,6.46 -0.6,13.53 l -6.47,6.47 Q 451,130.71 441,130.71 h -10 q -10,0 -17.07,-7.07 l -6.47,-6.47 Q 401,110.71 406,105.71 Z"
       fill="#adadad"
       stroke="none"
       transform="rotate(-105,436,110.71)"
       pointer-events="none"
       id="path21" />
    <path
       d="m 491,140.71 5,-5 q 5,-5 15,-5 h 10 q 10,0 17.07,7.07 l 6.46,6.47 q 6.47,6.46 -0.6,13.53 l -6.47,6.47 Q 531,170.71 521,170.71 h -10 q -10,0 -17.07,-7.07 l -6.47,-6.47 Q 481,150.71 486,145.71 Z"
       fill="#adadad"
       stroke="none"
       transform="rotate(150,516,150.71)"
       pointer-events="none"
       id="path22" />
    <path
       d="m 481,180.71 5.53,-11.06 Q 491,160.71 501,160.71 h 60 q 10,0 14.47,8.94 l 11.06,22.12 q 4.47,8.94 0,17.88 l -11.06,22.12 Q 571,240.71 561,240.71 h -60 q -10,0 -14.47,-8.94 l -11.06,-22.12 q -4.47,-8.94 0,-17.88 z"
       fill="#adadad"
       stroke="none"
       transform="rotate(-90,531,200.71)"
       pointer-events="none"
       id="path23" />
    <path
       d="M 40,90 45.53,78.94 Q 50,70 60,70 h 60 q 10,0 14.47,8.94 l 11.06,22.12 q 4.47,8.94 0,17.88 l -11.06,22.12 Q 130,150 120,150 H 60 q -10,0 -14.47,-8.94 L 34.47,118.94 Q 30,110 34.47,101.06 Z"
       fill="#adadad"
       stroke="none"
       transform="rotate(-45,90,110)"
       pointer-events="none"
       id="path24" />
    <path
       d="m 110,100 5,-5 q 5,-5 15,-5 h 10 q 10,0 17.07,7.07 l 6.47,6.47 q 6.46,6.46 -0.61,13.53 l -6.47,6.47 Q 150,130 140,130 h -10 q -10,0 -17.07,-7.07 l -6.47,-6.47 Q 100,110 105,105 Z"
       fill="#adadad"
       stroke="none"
       transform="rotate(105,135,110)"
       pointer-events="none"
       id="path25" />
    <path
       d="m 30,140 5,-5 q 5,-5 15,-5 h 10 q 10,0 17.07,7.07 l 6.47,6.47 Q 90,150 82.93,157.07 l -6.47,6.47 Q 70,170 60,170 H 50 q -10,0 -17.07,-7.07 l -6.47,-6.47 Q 20,150 25,145 Z"
       fill="#adadad"
       stroke="none"
       transform="rotate(-150,55,150)"
       pointer-events="none"
       id="path26" />
    <path
       d="m -10,180 5.53,-11.06 Q 0,160 10,160 h 60 q 10,0 14.47,8.94 l 11.06,22.12 q 4.47,8.94 0,17.88 L 84.47,231.06 Q 80,240 70,240 H 10 q -10,0 -14.47,-8.94 l -11.06,-22.12 q -4.47,-8.94 0,-17.88 z"
       fill="#adadad"
       stroke="none"
       transform="rotate(-90,40,200)"
       pointer-events="none"
       id="path27" />
  </g>
</svg>
