<?xml version="1.0" encoding="UTF-8"?>
<!DOCTYPE svg PUBLIC "-//W3C//DTD SVG 1.1//EN" "http://www.w3.org/Graphics/SVG/1.1/DTD/svg11.dtd">
<svg xmlns="http://www.w3.org/2000/svg" xmlns:xlink="http://www.w3.org/1999/xlink" version="1.1" width="566px" height="800px" viewBox="-0.5 -0.5 566 800"><defs/><g><rect x="-1" y="600" width="563" height="200" rx="14" ry="14" fill="#adadad" stroke="none" pointer-events="all"/><path d="M 312.11 21.45 L 317.76 9.74 Q 322.11 0.74 332.11 0.74 L 389.8 0.74 Q 399.8 0.74 404.14 9.74 L 415.45 33.16 Q 419.8 42.16 415.45 51.17 L 404.14 74.58 Q 399.8 83.59 389.8 83.59 L 332.11 83.59 Q 322.11 83.59 317.76 74.58 L 306.45 51.17 Q 302.11 42.16 306.45 33.16 Z" fill="#adadad" stroke="none" pointer-events="all"/><path d="M 140.48 70.64 L 147.98 41.49 Q 150.48 31.81 160.48 31.81 L 404.51 31.81 Q 414.51 31.81 417 41.49 L 432.01 99.8 Q 434.51 109.48 432.01 119.17 L 417 177.47 Q 414.51 187.16 404.51 187.16 L 160.48 187.16 Q 150.48 187.16 147.98 177.47 L 132.97 119.17 Q 130.48 109.48 132.97 99.8 Z" fill="#adadad" stroke="none" pointer-events="all"/><path d="M 155.19 21.45 L 160.84 9.74 Q 165.19 0.74 175.19 0.74 L 232.88 0.74 Q 242.88 0.74 247.22 9.74 L 258.53 33.16 Q 262.88 42.16 258.53 51.17 L 247.22 74.58 Q 242.88 83.59 232.88 83.59 L 175.19 83.59 Q 165.19 83.59 160.84 74.58 L 149.54 51.17 Q 145.19 42.16 149.54 33.16 Z" fill="#adadad" stroke="none" pointer-events="all"/><path d="M 179.71 187.16 L 184.71 181.98 Q 189.71 176.8 199.71 176.8 L 365.28 176.8 Q 375.28 176.8 382.22 183.99 L 388.75 190.75 Q 395.28 197.51 388.33 204.71 L 381.8 211.47 Q 375.28 218.23 365.28 218.23 L 199.71 218.23 Q 189.71 218.23 182.76 211.03 L 176.23 204.27 Q 169.71 197.51 174.71 192.34 Z" fill="#adadad" stroke="none" pointer-events="all"/><path d="M 184.61 207.87 L 189.61 202.69 Q 194.61 197.51 204.61 197.51 L 360.37 197.51 Q 370.37 197.51 377.32 204.71 L 383.85 211.47 Q 390.37 218.23 383.43 225.42 L 376.9 232.18 Q 370.37 238.94 360.37 238.94 L 204.61 238.94 Q 194.61 238.94 187.66 231.75 L 181.14 224.99 Q 174.61 218.23 179.61 213.05 Z" fill="#adadad" stroke="none" pointer-events="all"/><path d="M 189.51 228.58 L 194.51 223.41 Q 199.51 218.23 209.51 218.23 L 355.47 218.23 Q 365.47 218.23 372.42 225.42 L 378.94 232.18 Q 385.47 238.94 378.52 246.13 L 372 252.89 Q 365.47 259.65 355.47 259.65 L 209.51 259.65 Q 199.51 259.65 192.57 252.46 L 186.04 245.7 Q 179.51 238.94 184.51 233.76 Z" fill="#adadad" stroke="none" pointer-events="all"/><path d="M 282.49 332.15 L 179.71 332.15 Q 169.71 332.15 175.24 323.82 L 219.18 257.63 Q 224.71 249.3 234.71 249.3 L 330.28 249.3 Q 340.28 249.3 345.81 257.63 L 389.75 323.82 Q 395.28 332.15 385.28 332.15 Z" fill="#adadad" stroke="none" transform="translate(0,290.72)scale(1,-1)translate(0,-290.72)" pointer-events="all"/><path d="M 117.66 312.54 L 126.59 300.87 Q 132.66 292.92 142.66 292.92 L 186.94 292.92 Q 196.94 292.92 203.02 300.87 L 220.87 324.21 Q 226.94 332.15 220.87 340.1 L 203.02 363.44 Q 196.94 371.38 186.94 371.38 L 142.66 371.38 Q 132.66 371.38 126.59 363.44 L 108.74 340.1 Q 102.66 332.15 108.74 324.21 Z" fill="#adadad" stroke="none" transform="rotate(90,164.8,332.15)" pointer-events="all"/><path d="M 112.66 416.1 L 118.12 405.4 Q 122.66 396.49 132.66 396.49 L 196.94 396.49 Q 206.94 396.49 211.49 405.4 L 222.4 426.81 Q 226.94 435.72 222.4 444.63 L 211.49 466.04 Q 206.94 474.95 196.94 474.95 L 132.66 474.95 Q 122.66 474.95 118.12 466.04 L 107.2 444.63 Q 102.66 435.72 107.2 426.81 Z" fill="#adadad" stroke="none" transform="rotate(90,164.8,435.72)" pointer-events="all"/><path d="M 140.48 373.58 L 145.48 368.4 Q 150.48 363.22 160.48 363.22 L 169.8 363.22 Q 179.13 363.22 186.07 370.42 L 192.6 377.18 Q 199.13 383.94 192.18 391.13 L 185.66 397.89 Q 179.13 404.65 169.13 404.65 L 159.8 404.65 Q 150.48 404.65 143.53 397.46 L 137 390.7 Q 130.48 383.94 135.48 378.76 Z" fill="#adadad" stroke="none" transform="rotate(180,164.8,383.94)" pointer-events="all"/><path d="M 162.62 285.58 L 167.62 280.4 Q 172.62 275.22 182.62 275.22 L 198.99 275.22 Q 208.99 275.22 215.94 282.41 L 222.47 289.17 Q 228.99 295.93 222.05 303.13 L 215.52 309.89 Q 208.99 316.65 198.99 316.65 L 182.62 316.65 Q 172.62 316.65 165.68 309.45 L 159.15 302.69 Q 152.62 295.93 157.62 290.76 Z" fill="#adadad" stroke="none" transform="rotate(235,190.81,295.93)" pointer-events="all"/><path d="M 140.48 487.5 L 145.48 482.32 Q 150.48 477.15 160.48 477.15 L 169.8 477.15 Q 179.13 477.15 186.07 484.34 L 192.6 491.1 Q 199.13 497.86 192.18 505.05 L 185.66 511.81 Q 179.13 518.57 169.13 518.57 L 159.8 518.57 Q 150.48 518.57 143.53 511.38 L 137 504.62 Q 130.48 497.86 135.48 492.68 Z" fill="#adadad" stroke="none" transform="rotate(180,164.8,497.86)" pointer-events="all"/><path d="M 164.8 560 L 120.86 560 Q 110.86 560 114.47 550.67 L 127.26 517.54 Q 130.86 508.22 140.86 508.22 L 188.74 508.22 Q 198.74 508.22 202.35 517.54 L 215.14 550.67 Q 218.74 560 208.74 560 Z" fill="#adadad" stroke="none" pointer-events="all"/><path d="M 354.31 310.82 L 363.86 298.98 Q 370.14 291.2 380.14 291.2 L 421.1 291.2 Q 431.1 291.2 437.38 298.98 L 456.48 322.65 Q 462.76 330.43 456.48 338.21 L 437.38 361.88 Q 431.1 369.66 421.1 369.66 L 380.14 369.66 Q 370.14 369.66 363.86 361.88 L 344.76 338.21 Q 338.48 330.43 344.76 322.65 Z" fill="#adadad" stroke="none" transform="rotate(90,400.62,330.43)" pointer-events="all"/><path d="M 348.48 414.39 L 353.94 403.68 Q 358.48 394.77 368.48 394.77 L 432.76 394.77 Q 442.76 394.77 447.3 403.68 L 458.22 425.09 Q 462.76 434 458.22 442.91 L 447.3 464.32 Q 442.76 473.23 432.76 473.23 L 368.48 473.23 Q 358.48 473.23 353.94 464.32 L 343.02 442.91 Q 338.48 434 343.02 425.09 Z" fill="#adadad" stroke="none" transform="rotate(90,400.62,434)" pointer-events="all"/><path d="M 376.3 371.86 L 381.3 366.68 Q 386.3 361.5 396.3 361.5 L 405.62 361.5 Q 414.95 361.5 421.89 368.7 L 428.42 375.46 Q 434.95 382.22 428 389.41 L 421.48 396.17 Q 414.95 402.93 404.95 402.93 L 395.62 402.93 Q 386.3 402.93 379.35 395.74 L 372.82 388.98 Q 366.3 382.22 371.3 377.04 Z" fill="#adadad" stroke="none" transform="rotate(180,400.62,382.22)" pointer-events="all"/><path d="M 346.43 283.86 L 351.43 278.68 Q 356.43 273.5 366.43 273.5 L 382.8 273.5 Q 392.8 273.5 399.75 280.7 L 406.28 287.46 Q 412.8 294.21 405.86 301.41 L 399.33 308.17 Q 392.8 314.93 382.8 314.93 L 366.43 314.93 Q 356.43 314.93 349.49 307.73 L 342.96 300.97 Q 336.43 294.21 341.43 289.04 Z" fill="#adadad" stroke="none" transform="rotate(125,374.62,294.21)" pointer-events="all"/><path d="M 376.3 485.78 L 381.3 480.61 Q 386.3 475.43 396.3 475.43 L 405.62 475.43 Q 414.95 475.43 421.89 482.62 L 428.42 489.38 Q 434.95 496.14 428 503.33 L 421.48 510.09 Q 414.95 516.85 404.95 516.85 L 395.62 516.85 Q 386.3 516.85 379.35 509.66 L 372.82 502.9 Q 366.3 496.14 371.3 490.96 Z" fill="#adadad" stroke="none" transform="rotate(180,400.62,496.14)" pointer-events="all"/><path d="M 400.62 558.28 L 356.68 558.28 Q 346.68 558.28 350.28 548.95 L 363.08 515.83 Q 366.68 506.5 376.68 506.5 L 424.56 506.5 Q 434.56 506.5 438.17 515.83 L 450.96 548.95 Q 454.56 558.28 444.56 558.28 Z" fill="#adadad" stroke="none" pointer-events="all"/><path d="M 41.42 52.52 L 47.07 40.81 Q 51.42 31.81 61.42 31.81 L 119.11 31.81 Q 129.11 31.81 133.46 40.81 L 144.76 64.23 Q 149.11 73.23 144.76 82.24 L 133.46 105.65 Q 129.11 114.66 119.11 114.66 L 61.42 114.66 Q 51.42 114.66 47.07 105.65 L 35.77 82.24 Q 31.42 73.23 35.77 64.23 Z" fill="#adadad" stroke="none" transform="rotate(-45,90.27,73.23)" pointer-events="all"/><path d="M 110.07 62.88 L 115.07 57.7 Q 120.07 52.52 130.07 52.52 L 139.4 52.52 Q 148.73 52.52 155.67 59.71 L 162.2 66.47 Q 168.73 73.23 161.78 80.43 L 155.25 87.19 Q 148.73 93.95 138.73 93.95 L 129.4 93.95 Q 120.07 93.95 113.13 86.75 L 106.6 79.99 Q 100.07 73.23 105.07 68.05 Z" fill="#adadad" stroke="none" transform="rotate(105,134.4,73.23)" pointer-events="all"/><path d="M 31.61 104.3 L 36.61 99.13 Q 41.61 93.95 51.61 93.95 L 60.94 93.95 Q 70.27 93.95 77.21 101.14 L 83.74 107.9 Q 90.27 114.66 83.32 121.85 L 76.79 128.61 Q 70.27 135.37 60.27 135.37 L 50.94 135.37 Q 41.61 135.37 34.67 128.18 L 28.14 121.42 Q 21.61 114.66 26.61 109.48 Z" fill="#adadad" stroke="none" transform="rotate(210,55.94,114.66)" pointer-events="all"/><path d="M -7.61 145.73 L -1.96 134.02 Q 2.39 125.02 12.39 125.02 L 70.07 125.02 Q 80.07 125.02 84.42 134.02 L 95.73 157.44 Q 100.07 166.44 95.73 175.45 L 84.42 198.87 Q 80.07 207.87 70.07 207.87 L 12.39 207.87 Q 2.39 207.87 -1.96 198.87 L -13.27 175.45 Q -17.61 166.44 -13.27 157.44 Z" fill="#adadad" stroke="none" transform="rotate(-90,41.23,166.44)" pointer-events="all"/><path d="M 424.89 53.26 L 430.54 41.55 Q 434.89 32.54 444.89 32.54 L 502.58 32.54 Q 512.58 32.54 516.93 41.55 L 528.23 64.96 Q 532.58 73.97 528.23 82.97 L 516.93 106.39 Q 512.58 115.4 502.58 115.4 L 444.89 115.4 Q 434.89 115.4 430.54 106.39 L 419.24 82.97 Q 414.89 73.97 419.24 64.96 Z" fill="#adadad" stroke="none" transform="rotate(45,473.73,73.97)" pointer-events="all"/><path d="M 405.27 63.61 L 410.27 58.43 Q 415.27 53.26 425.27 53.26 L 434.6 53.26 Q 443.93 53.26 450.87 60.45 L 457.4 67.21 Q 463.93 73.97 456.98 81.16 L 450.45 87.92 Q 443.93 94.68 433.93 94.68 L 424.6 94.68 Q 415.27 94.68 408.33 87.49 L 401.8 80.73 Q 395.27 73.97 400.27 68.79 Z" fill="#adadad" stroke="none" transform="rotate(255,429.6,73.97)" pointer-events="all"/><path d="M 483.73 105.04 L 488.73 99.86 Q 493.73 94.68 503.73 94.68 L 513.06 94.68 Q 522.39 94.68 529.33 101.88 L 535.86 108.64 Q 542.39 115.4 535.44 122.59 L 528.91 129.35 Q 522.39 136.11 512.39 136.11 L 503.06 136.11 Q 493.73 136.11 486.79 128.92 L 480.26 122.16 Q 473.73 115.4 478.73 110.22 Z" fill="#adadad" stroke="none" transform="rotate(510,508.06,115.4)" pointer-events="all"/><path d="M 473.93 146.47 L 479.58 134.76 Q 483.93 125.75 493.93 125.75 L 551.61 125.75 Q 561.61 125.75 565.96 134.76 L 577.27 158.17 Q 581.61 167.18 577.27 176.18 L 565.96 199.6 Q 561.61 208.61 551.61 208.61 L 493.93 208.61 Q 483.93 208.61 479.58 199.6 L 468.27 176.18 Q 463.93 167.18 468.27 158.17 Z" fill="#adadad" stroke="none" transform="rotate(-90,522.77,167.18)" pointer-events="all"/></g></svg>