<svg version="1.1" viewBox="0.0 0.0 846.0367454068241 117.59055118110236" fill="none" stroke="none" stroke-linecap="square" stroke-miterlimit="10" xmlns:xlink="http://www.w3.org/1999/xlink" xmlns="http://www.w3.org/2000/svg"><clipPath id="p.0"><path d="m0 0l846.03674 0l0 117.59055l-846.03674 0l0 -117.59055z" clip-rule="nonzero"/></clipPath><g clip-path="url(#p.0)"><path fill="#000000" fill-opacity="0.0" d="m0 0l846.03674 0l0 117.59055l-846.03674 0z" fill-rule="evenodd"/><g filter="url(#shadowFilter-p.1)"><use xlink:href="#p.1" transform="matrix(1.0 0.0 0.0 1.0 -4.588611286089239 6.55321653543308)"/></g><defs><filter id="shadowFilter-p.1" filterUnits="userSpaceOnUse"><feGaussianBlur in="SourceAlpha" stdDeviation="0.0" result="blur"/><feComponentTransfer in="blur" color-interpolation-filters="sRGB"><feFuncR type="linear" slope="0" intercept="0.4"/><feFuncG type="linear" slope="0" intercept="0.4"/><feFuncB type="linear" slope="0" intercept="0.4"/><feFuncA type="linear" slope="1.0" intercept="0"/></feComponentTransfer></filter></defs><g id="p.1"><defs><linearGradient id="p.2" gradientUnits="userSpaceOnUse" gradientTransform="matrix(25.376587437860827 0.0 0.0 25.376587437860827 0.0 0.0)" spreadMethod="pad" x1="-1.3700810097360048" y1="2.092362525784368" x2="16.573843880903286" y2="20.036351756456888"><stop offset="0.0" stop-color="#ffffff"/><stop offset="0.2" stop-color="#dfffac"/><stop offset="0.61" stop-color="#ffc862"/><stop offset="1.0" stop-color="#ffc862"/></linearGradient></defs><path fill="url(#p.2)" d="m9.116785 25.386747l0 71.5952l24.559298 0l0 -30.386337l-24.559298 -41.208862zm0.059466362 -7.314129l46.799435 78.90933l18.969528 -32.64598l0 -39.72226l-16.650368 28.542938l-21.169758 -35.08403zm69.634224 0l0 78.90933l26.283798 0l0 -78.90933z" fill-rule="evenodd"/><defs><linearGradient id="p.3" gradientUnits="userSpaceOnUse" gradientTransform="matrix(25.376587437860827 0.0 0.0 25.376587437860827 0.0 0.0)" spreadMethod="pad" x1="-1.3700810097360048" y1="2.092362525784368" x2="16.573843880903286" y2="20.036351756456888"><stop offset="0.0" stop-color="#ffffff"/><stop offset="0.2" stop-color="#dfffac"/><stop offset="0.61" stop-color="#ffc862"/><stop offset="1.0" stop-color="#ffc862"/></linearGradient></defs><path fill="url(#p.3)" d="m147.43379 33.8307l0 15.75808l13.855484 0l0 11.06039l-13.855484 0l0 11.000923l38.057983 0l0 -22.061314l-15.758377 -15.75808zm-14.688004 0l-15.758385 15.75808l0 31.63509l15.758385 15.75808l10.525406 0l0 -63.15125zm14.688004 48.404064l0 14.747185l27.473114 0l7.849457 -7.9087677l0 -6.838417z" fill-rule="evenodd"/><defs><linearGradient id="p.4" gradientUnits="userSpaceOnUse" gradientTransform="matrix(25.376587437860827 0.0 0.0 25.376587437860827 0.0 0.0)" spreadMethod="pad" x1="-1.3700810097360048" y1="2.092362525784368" x2="16.573843880903286" y2="20.036351756456888"><stop offset="0.0" stop-color="#ffffff"/><stop offset="0.2" stop-color="#dfffac"/><stop offset="0.61" stop-color="#ffc862"/><stop offset="1.0" stop-color="#ffc862"/></linearGradient></defs><path fill="url(#p.4)" d="m226.4636 33.8307l0 15.75808l11.655258 0l0 9.454849l26.283798 0l0 -9.454849l-15.758392 -15.75808zm-14.688004 0l-15.758392 15.75808l0 31.63509l15.758392 15.75808l10.525406 0l0 -63.15125zm26.343262 40.495296l0 7.9087677l-11.655258 0l0 14.747185l22.180664 0l15.758392 -15.75808l0 -6.897873z" fill-rule="evenodd"/><defs><linearGradient id="p.5" gradientUnits="userSpaceOnUse" gradientTransform="matrix(25.376587437860827 0.0 0.0 25.376587437860827 0.0 0.0)" spreadMethod="pad" x1="-1.3700810097360048" y1="2.092362525784368" x2="16.573843880903286" y2="20.036351756456888"><stop offset="0.0" stop-color="#ffffff"/><stop offset="0.2" stop-color="#dfffac"/><stop offset="0.61" stop-color="#ffc862"/><stop offset="1.0" stop-color="#ffc862"/></linearGradient></defs><path fill="url(#p.5)" d="m274.57126 9.747595l0 87.23435l26.283813 0l0 -87.23435zm38.17694 24.083105l-7.73053 7.7898445l0 7.968235l11.595795 0l0 47.39317l26.343262 0l0 -47.39317l-15.817871 -15.75808z" fill-rule="evenodd"/><defs><linearGradient id="p.6" gradientUnits="userSpaceOnUse" gradientTransform="matrix(25.376587437860827 0.0 0.0 25.376587437860827 0.0 0.0)" spreadMethod="pad" x1="-1.3700810097360048" y1="2.092362525784368" x2="16.573843880903286" y2="20.036351756456888"><stop offset="0.0" stop-color="#ffffff"/><stop offset="0.2" stop-color="#dfffac"/><stop offset="0.61" stop-color="#ffc862"/><stop offset="1.0" stop-color="#ffc862"/></linearGradient></defs><path fill="url(#p.6)" d="m386.72342 33.8307l0 15.75808l14.1528015 0l0 -15.75808zm-4.1625977 -15.758081l-26.283813 8.919668l0 6.8384132l-5.232971 0l0 15.75808l5.232971 0l0 31.63509l15.817871 15.75808l27.829895 0l0 -15.75808l-17.363953 0l0 -63.151253z" fill-rule="evenodd"/><defs><linearGradient id="p.7" gradientUnits="userSpaceOnUse" gradientTransform="matrix(25.376587437860827 0.0 0.0 25.376587437860827 0.0 0.0)" spreadMethod="pad" x1="-1.3700810097360048" y1="2.092362525784368" x2="16.573843880903286" y2="20.036351756456888"><stop offset="0.0" stop-color="#ffffff"/><stop offset="0.2" stop-color="#dfffac"/><stop offset="0.61" stop-color="#ffc862"/><stop offset="1.0" stop-color="#ffc862"/></linearGradient></defs><path fill="url(#p.7)" d="m450.53 33.8307l-8.800903 8.860203l0 6.8978767l11.179535 0l0 15.341831l26.343262 0l0 -16.352726l-12.785095 -14.747185zm-39.306763 0l0 63.15125l26.283813 0l0 -63.15125z" fill-rule="evenodd"/><defs><linearGradient id="p.8" gradientUnits="userSpaceOnUse" gradientTransform="matrix(25.376587437860827 0.0 0.0 25.376587437860827 0.0 0.0)" spreadMethod="pad" x1="-1.3700810097360048" y1="2.092362525784368" x2="16.573843880903286" y2="20.036351756456888"><stop offset="0.0" stop-color="#ffffff"/><stop offset="0.2" stop-color="#dfffac"/><stop offset="0.61" stop-color="#ffc862"/><stop offset="1.0" stop-color="#ffc862"/></linearGradient></defs><path fill="url(#p.8)" d="m501.96774 33.8307l-15.758362 15.75808l0 31.63509l15.758362 15.75808l17.661285 0l0 -14.747185l-6.838501 0l0 -32.645985l6.838501 0l0 -15.75808zm21.823883 0l0 15.75808l6.5411987 0l0 32.645985l-6.5411987 0l0 14.747185l17.601807 0l15.758423 -15.75808l0 -31.63509l-15.758423 -15.75808z" fill-rule="evenodd"/><defs><linearGradient id="p.9" gradientUnits="userSpaceOnUse" gradientTransform="matrix(25.376587437860827 0.0 0.0 25.376587437860827 0.0 0.0)" spreadMethod="pad" x1="-1.3700810097360048" y1="2.092362525784368" x2="16.573843880903286" y2="20.036351756456888"><stop offset="0.0" stop-color="#ffffff"/><stop offset="0.2" stop-color="#dfffac"/><stop offset="0.61" stop-color="#ffc862"/><stop offset="1.0" stop-color="#ffc862"/></linearGradient></defs><path fill="url(#p.9)" d="m568.8071 33.8307l0 63.15125l26.521606 0l0 -63.15125zm39.604065 0l-8.800903 8.860203l0 6.8978767l11.298462 0l0 47.39317l26.343262 0l0 -48.939243l-14.21228 -14.212006z" fill-rule="evenodd"/><defs><linearGradient id="p.10" gradientUnits="userSpaceOnUse" gradientTransform="matrix(25.376587437860827 0.0 0.0 25.376587437860827 0.0 0.0)" spreadMethod="pad" x1="-1.3700810097360048" y1="2.092362525784368" x2="16.573843880903286" y2="20.036351756456888"><stop offset="0.0" stop-color="#ffffff"/><stop offset="0.2" stop-color="#dfffac"/><stop offset="0.61" stop-color="#ffc862"/><stop offset="1.0" stop-color="#ffc862"/></linearGradient></defs><path fill="url(#p.10)" d="m649.50195 9.212415l0 16.768978l26.343262 0l0 -16.768978zm0 24.618286l0 63.15125l26.343262 0l0 -63.15125z" fill-rule="evenodd"/><defs><linearGradient id="p.11" gradientUnits="userSpaceOnUse" gradientTransform="matrix(25.376587437860827 0.0 0.0 25.376587437860827 0.0 0.0)" spreadMethod="pad" x1="-1.3700810097360048" y1="2.092362525784368" x2="16.573843880903286" y2="20.036351756456888"><stop offset="0.0" stop-color="#ffffff"/><stop offset="0.2" stop-color="#dfffac"/><stop offset="0.61" stop-color="#ffc862"/><stop offset="1.0" stop-color="#ffc862"/></linearGradient></defs><path fill="url(#p.11)" d="m717.94684 33.8307l0 15.75808l11.655273 0l0 9.454849l26.283813 0l0 -9.454849l-15.758423 -15.75808zm-14.687988 0l-15.758423 15.75808l0 31.63509l15.758423 15.75808l10.525391 0l0 -63.15125zm26.343262 40.495296l0 7.9087677l-11.655273 0l0 14.747185l22.180664 0l15.758423 -15.75808l0 -6.897873z" fill-rule="evenodd"/><defs><linearGradient id="p.12" gradientUnits="userSpaceOnUse" gradientTransform="matrix(25.376587437860827 0.0 0.0 25.376587437860827 0.0 0.0)" spreadMethod="pad" x1="-1.3700810097360048" y1="2.092362525784368" x2="16.573843880903286" y2="20.036351756456888"><stop offset="0.0" stop-color="#ffffff"/><stop offset="0.2" stop-color="#dfffac"/><stop offset="0.61" stop-color="#ffc862"/><stop offset="1.0" stop-color="#ffc862"/></linearGradient></defs><path fill="url(#p.12)" d="m774.2608 60.232918l-10.5849 10.5252075l0 15.817543l10.5849 10.4062805l20.099365 0l7.8494263 -7.7898407l0 -6.957344l-13.558105 0l0 -11.060387l13.558105 0l0 -10.94146zm2.616455 -26.402218l-7.9089355 7.9087715l0 7.849308l37.40387 0l0 47.39317l25.689148 0l0 -47.39317l-15.758362 -15.75808z" fill-rule="evenodd"/><path stroke="#999999" stroke-width="4.0" stroke-linejoin="round" stroke-linecap="butt" d="m9.116785 25.386747l0 71.5952l24.559298 0l0 -30.386337l-24.559298 -41.208862zm0.059466362 -7.314129l46.799435 78.90933l18.969528 -32.64598l0 -39.72226l-16.650368 28.542938l-21.169758 -35.08403zm69.634224 0l0 78.90933l26.283798 0l0 -78.90933z" fill-rule="evenodd"/><path stroke="#999999" stroke-width="4.0" stroke-linejoin="round" stroke-linecap="butt" d="m147.43379 33.8307l0 15.75808l13.855484 0l0 11.06039l-13.855484 0l0 11.000923l38.057983 0l0 -22.061314l-15.758377 -15.75808zm-14.688004 0l-15.758385 15.75808l0 31.63509l15.758385 15.75808l10.525406 0l0 -63.15125zm14.688004 48.404064l0 14.747185l27.473114 0l7.849457 -7.9087677l0 -6.838417z" fill-rule="evenodd"/><path stroke="#999999" stroke-width="4.0" stroke-linejoin="round" stroke-linecap="butt" d="m226.4636 33.8307l0 15.75808l11.655258 0l0 9.454849l26.283798 0l0 -9.454849l-15.758392 -15.75808zm-14.688004 0l-15.758392 15.75808l0 31.63509l15.758392 15.75808l10.525406 0l0 -63.15125zm26.343262 40.495296l0 7.9087677l-11.655258 0l0 14.747185l22.180664 0l15.758392 -15.75808l0 -6.897873z" fill-rule="evenodd"/><path stroke="#999999" stroke-width="4.0" stroke-linejoin="round" stroke-linecap="butt" d="m274.57126 9.747595l0 87.23435l26.283813 0l0 -87.23435zm38.17694 24.083105l-7.73053 7.7898445l0 7.968235l11.595795 0l0 47.39317l26.343262 0l0 -47.39317l-15.817871 -15.75808z" fill-rule="evenodd"/><path stroke="#999999" stroke-width="4.0" stroke-linejoin="round" stroke-linecap="butt" d="m386.72342 33.8307l0 15.75808l14.1528015 0l0 -15.75808zm-4.1625977 -15.758081l-26.283813 8.919668l0 6.8384132l-5.232971 0l0 15.75808l5.232971 0l0 31.63509l15.817871 15.75808l27.829895 0l0 -15.75808l-17.363953 0l0 -63.151253z" fill-rule="evenodd"/><path stroke="#999999" stroke-width="4.0" stroke-linejoin="round" stroke-linecap="butt" d="m450.53 33.8307l-8.800903 8.860203l0 6.8978767l11.179535 0l0 15.341831l26.343262 0l0 -16.352726l-12.785095 -14.747185zm-39.306763 0l0 63.15125l26.283813 0l0 -63.15125z" fill-rule="evenodd"/><path stroke="#999999" stroke-width="4.0" stroke-linejoin="round" stroke-linecap="butt" d="m501.96774 33.8307l-15.758362 15.75808l0 31.63509l15.758362 15.75808l17.661285 0l0 -14.747185l-6.838501 0l0 -32.645985l6.838501 0l0 -15.75808zm21.823883 0l0 15.75808l6.5411987 0l0 32.645985l-6.5411987 0l0 14.747185l17.601807 0l15.758423 -15.75808l0 -31.63509l-15.758423 -15.75808z" fill-rule="evenodd"/><path stroke="#999999" stroke-width="4.0" stroke-linejoin="round" stroke-linecap="butt" d="m568.8071 33.8307l0 63.15125l26.521606 0l0 -63.15125zm39.604065 0l-8.800903 8.860203l0 6.8978767l11.298462 0l0 47.39317l26.343262 0l0 -48.939243l-14.21228 -14.212006z" fill-rule="evenodd"/><path stroke="#999999" stroke-width="4.0" stroke-linejoin="round" stroke-linecap="butt" d="m649.50195 9.212415l0 16.768978l26.343262 0l0 -16.768978zm0 24.618286l0 63.15125l26.343262 0l0 -63.15125z" fill-rule="evenodd"/><path stroke="#999999" stroke-width="4.0" stroke-linejoin="round" stroke-linecap="butt" d="m717.94684 33.8307l0 15.75808l11.655273 0l0 9.454849l26.283813 0l0 -9.454849l-15.758423 -15.75808zm-14.687988 0l-15.758423 15.75808l0 31.63509l15.758423 15.75808l10.525391 0l0 -63.15125zm26.343262 40.495296l0 7.9087677l-11.655273 0l0 14.747185l22.180664 0l15.758423 -15.75808l0 -6.897873z" fill-rule="evenodd"/><path stroke="#999999" stroke-width="4.0" stroke-linejoin="round" stroke-linecap="butt" d="m774.2608 60.232918l-10.5849 10.5252075l0 15.817543l10.5849 10.4062805l20.099365 0l7.8494263 -7.7898407l0 -6.957344l-13.558105 0l0 -11.060387l13.558105 0l0 -10.94146zm2.616455 -26.402218l-7.9089355 7.9087715l0 7.849308l37.40387 0l0 47.39317l25.689148 0l0 -47.39317l-15.758362 -15.75808z" fill-rule="evenodd"/></g></g></svg>