<svg version="1.1" viewBox="0.0 0.0 576.0 576.0" fill="none" stroke="none" stroke-linecap="square" stroke-miterlimit="10" xmlns:xlink="http://www.w3.org/1999/xlink" xmlns="http://www.w3.org/2000/svg"><clipPath id="p.0"><path d="m0 0l576.0 0l0 576.0l-576.0 0l0 -576.0z" clip-rule="nonzero"/></clipPath><g clip-path="url(#p.0)"><path fill="#000000" fill-opacity="0.0" d="m0 0l576.0 0l0 576.0l-576.0 0z" fill-rule="evenodd"/><defs><linearGradient id="p.1" gradientUnits="userSpaceOnUse" gradientTransform="matrix(6.45273548780597 0.0 0.0 6.45273548780597 0.0 0.0)" spreadMethod="pad" x1="41.405700976607704" y1="47.858697040792386" x2="47.85843646441367" y2="47.858697040792386"><stop offset="0.0" stop-color="#ffffff"/><stop offset="0.39" stop-color="#f9cb9c"/><stop offset="1.0" stop-color="#75939c"/></linearGradient></defs><path fill="url(#p.1)" d="m267.18002 288.0006l0 0c0 -11.497955 9.320953 -20.818878 20.818909 -20.818878l0 0c5.521515 0 10.816864 2.19339 14.721161 6.097687c3.9043274 3.9043274 6.0977173 9.1996765 6.0977173 14.721191l0 0c0 11.497955 -9.320923 20.818909 -20.818878 20.818909l0 0c-11.497955 0 -20.818909 -9.320953 -20.818909 -20.818909z" fill-rule="evenodd"/></g></svg>