<svg version="1.1" viewBox="0.0 0.0 576.0 576.0" fill="none" stroke="none" stroke-linecap="square" stroke-miterlimit="10" xmlns:xlink="http://www.w3.org/1999/xlink" xmlns="http://www.w3.org/2000/svg"><clipPath id="p.0"><path d="m0 0l576.0 0l0 576.0l-576.0 0l0 -576.0z" clip-rule="nonzero"/></clipPath><g clip-path="url(#p.0)"><path fill="#000000" fill-opacity="0.0" d="m0 0l576.0 0l0 576.0l-576.0 0z" fill-rule="evenodd"/><defs><radialGradient id="p.1" gradientUnits="userSpaceOnUse" gradientTransform="matrix(33.87025939943148 0.0 0.0 33.87025939943148 0.0 0.0)" spreadMethod="pad" cx="-14.506329335672453" cy="8.503015283613903" fx="-14.506329335672453" fy="8.503015283613903" r="33.87025833129883"><stop offset="0.0" stop-color="#fff6db"/><stop offset="1.0" stop-color="#ffd42d"/></radialGradient></defs><path fill="url(#p.1)" d="m-1302.5458 287.99933l0 0c0 -447.99426 363.19232 -811.16534 811.21265 -811.16534l0 0c215.14694 0 421.48206 85.46182 573.6139 237.58484c152.13187 152.123 237.59866 358.44608 237.59866 573.5805l0 0c0 447.99426 -363.19226 811.16534 -811.2126 811.16534l0 0c-448.02032 0 -811.21265 -363.17108 -811.21265 -811.16534z" fill-rule="evenodd"/></g></svg>