<svg version="1.1" viewBox="0.0 0.0 576.0 576.0" fill="none" stroke="none" stroke-linecap="square" stroke-miterlimit="10" xmlns:xlink="http://www.w3.org/1999/xlink" xmlns="http://www.w3.org/2000/svg"><clipPath id="p.0"><path d="m0 0l576.0 0l0 576.0l-576.0 0l0 -576.0z" clip-rule="nonzero"/></clipPath><g clip-path="url(#p.0)"><path fill="#000000" fill-opacity="0.0" d="m0 0l576.0 0l0 576.0l-576.0 0z" fill-rule="evenodd"/><path fill="#6aa84f" d="m179.99237 140.23744l0 0c0 -6.0186005 4.8790436 -10.897629 10.897644 -10.897629l0 0c2.8902283 0 5.662094 1.1481323 7.7057953 3.1918335c2.0437012 2.0437012 3.1918335 4.815567 3.1918335 7.7057953l0 0c0 6.0186005 -4.8790283 10.897644 -10.897629 10.897644l0 0c-6.0186005 0 -10.897644 -4.8790436 -10.897644 -10.897644z" fill-rule="evenodd"/><path fill="#e06666" d="m144.18753 177.1757l0 0c0 -3.4876556 2.827301 -6.314972 6.3149567 -6.314972l0 0c1.6748352 0 3.281067 0.665329 4.4653473 1.8496094c1.1842957 1.1842957 1.8496094 2.7905273 1.8496094 4.4653625l0 0c0 3.4876556 -2.827301 6.3149567 -6.3149567 6.3149567l0 0c-3.4876556 0 -6.3149567 -2.827301 -6.3149567 -6.3149567z" fill-rule="evenodd"/><path fill="#f9cb9c" d="m145.16559 288.0007l0 0c0 -78.88541 63.94925 -142.83466 142.83466 -142.83466l0 0c37.88208 0 74.21265 15.0486145 100.99933 41.835297c26.786682 26.786697 41.835297 63.11725 41.835297 100.99936l0 0c0 78.885376 -63.94925 142.83463 -142.83463 142.83463l0 0c-78.88541 0 -142.83466 -63.94925 -142.83466 -142.83463z" fill-rule="evenodd"/></g></svg>