<svg version="1.1" viewBox="0.0 0.0 576.0 576.0" fill="none" stroke="none" stroke-linecap="square" stroke-miterlimit="10" xmlns:xlink="http://www.w3.org/1999/xlink" xmlns="http://www.w3.org/2000/svg"><clipPath id="p.0"><path d="m0 0l576.0 0l0 576.0l-576.0 0l0 -576.0z" clip-rule="nonzero"/></clipPath><g clip-path="url(#p.0)"><path fill="#000000" fill-opacity="0.0" d="m0 0l576.0 0l0 576.0l-576.0 0z" fill-rule="evenodd"/><path fill="#000000" d="m263.20404 268.21725l0 0c0 -2.3544312 1.9086304 -4.2630615 4.263092 -4.2630615l0 0c1.1306458 0 2.2149658 0.4491272 3.0144653 1.2486267c0.799469 0.799469 1.2486267 1.8838196 1.2486267 3.0144348l0 0c0 2.3544617 -1.9086609 4.263092 -4.263092 4.263092l0 0c-2.3544617 0 -4.263092 -1.9086304 -4.263092 -4.263092z" fill-rule="evenodd"/><path fill="#000000" d="m272.0695 260.8343l1.3571167 0l0 1.9766846l-1.3571167 0z" fill-rule="evenodd"/><path fill="#000000" d="m266.78857 261.24487l1.5931091 0l0 0.73757935l-1.5931091 0z" fill-rule="evenodd"/><path fill="#000000" d="m272.70132 267.09863l0.73757935 0l0 0.73757935l-0.73757935 0z" fill-rule="evenodd"/><path fill="#000000" d="m262.28055 272.5432l0.7375488 0l0 0.7375488l-0.7375488 0z" fill-rule="evenodd"/><path fill="#000000" d="m262.92453 264.99106l0.7375488 0l0 0.73757935l-0.7375488 0z" fill-rule="evenodd"/><path fill="#000000" d="m261.2269 270.26062l1.5931396 0l0 0.7375488l-1.5931396 0z" fill-rule="evenodd"/><path fill="#000000" d="m260.8758 266.4791l1.3571167 0l0 1.976654l-1.3571167 0z" fill-rule="evenodd"/><path fill="#000000" d="m273.4266 269.14905l1.5931091 0l0 0.7375488l-1.5931091 0z" fill-rule="evenodd"/><path fill="#000000" d="m269.42166 262.81097l0.7375488 0l0 0.7375488l-0.7375488 0z" fill-rule="evenodd"/><path fill="#000000" d="m270.59375 260.6588l0.73757935 0l0 0.73757935l-0.73757935 0z" fill-rule="evenodd"/><path fill="#000000" d="m270.945 271.4894l0.73757935 0l0 0.73757935l-0.73757935 0z" fill-rule="evenodd"/><path fill="#3c78d8" d="m275.95187 287.99878l0 0c0 -6.6535034 5.393738 -12.047241 12.047241 -12.047241l0 0c3.1951294 0 6.2593994 1.2692566 8.518707 3.5285645c2.2592773 2.2593079 3.528534 5.3235474 3.528534 8.518677l0 0c0 6.653534 -5.3937073 12.047241 -12.047241 12.047241l0 0c-6.6535034 0 -12.047241 -5.3937073 -12.047241 -12.047241z" fill-rule="evenodd"/></g></svg>