<svg version="1.1" viewBox="0.0 0.0 576.0 576.0" fill="none" stroke="none" stroke-linecap="square" stroke-miterlimit="10" xmlns:xlink="http://www.w3.org/1999/xlink" xmlns="http://www.w3.org/2000/svg"><clipPath id="p.0"><path d="m0 0l576.0 0l0 576.0l-576.0 0l0 -576.0z" clip-rule="nonzero"/></clipPath><g clip-path="url(#p.0)"><path fill="#000000" fill-opacity="0.0" d="m0 0l576.0 0l0 576.0l-576.0 0z" fill-rule="evenodd"/><defs><radialGradient id="p.1" gradientUnits="userSpaceOnUse" gradientTransform="matrix(17.77118574127564 0.0 0.0 17.77118574127564 0.0 0.0)" spreadMethod="pad" cx="16.205986018993062" cy="16.206057635115403" fx="16.205986018993062" fy="16.206057635115403" r="17.77118492126465"><stop offset="0.0" stop-color="#ead1dc"/><stop offset="1.0" stop-color="#c27ba0"/></radialGradient></defs><path fill="url(#p.1)" d="m64.67675 288.00085l0 0c0 -123.32909 99.98504 -223.30708 223.32281 -223.30708l0 0c59.228912 0 116.03195 23.526932 157.91312 65.405136c41.881134 41.878204 65.40973 98.67723 65.40973 157.90195l0 0c0 123.3291 -99.98505 223.3071 -223.32285 223.3071l0 0c-123.33778 0 -223.32281 -99.978 -223.32281 -223.3071z" fill-rule="evenodd"/></g></svg>