<svg version="1.1" viewBox="0.0 0.0 138.49606299212599 138.21784776902888" fill="none" stroke="none" stroke-linecap="square" stroke-miterlimit="10" xmlns:xlink="http://www.w3.org/1999/xlink" xmlns="http://www.w3.org/2000/svg"><clipPath id="p.0"><path d="m0 0l138.49606 0l0 138.21785l-138.49606 0l0 -138.21785z" clip-rule="nonzero"/></clipPath><g clip-path="url(#p.0)"><path fill="#000000" fill-opacity="0.0" d="m0 0l138.49606 0l0 138.21785l-138.49606 0z" fill-rule="evenodd"/><defs><linearGradient id="p.1" gradientUnits="userSpaceOnUse" gradientTransform="matrix(13.532740818410545 0.0 0.0 13.532740818410545 0.0 0.0)" spreadMethod="pad" x1="-4.455720481932286" y1="5.0940606799737695" x2="5.1133552724244575" y2="14.66317052706283"><stop offset="0.0" stop-color="#ffffff"/><stop offset="0.29" stop-color="#b7b7b7"/><stop offset="0.41" stop-color="#ffffff"/><stop offset="0.53" stop-color="#b7b7b7"/><stop offset="0.63" stop-color="#efefef"/><stop offset="0.73" stop-color="#dbdbdb"/><stop offset="1.0" stop-color="#b7b7b7"/></linearGradient></defs><path fill="url(#p.1)" d="m4.4577966 4.180929l107.89983 0l21.580482 21.580484l0 107.93132l0 0l-107.899826 0l-21.580484 -21.580475l0 -107.93133z" fill-rule="evenodd"/><path stroke="#999999" stroke-width="4.0" stroke-linejoin="round" stroke-linecap="butt" d="m4.4577966 4.180929l107.89983 0l21.580482 21.580484l0 107.93132l0 0l-107.899826 0l-21.580484 -21.580475l0 -107.93133z" fill-rule="evenodd"/><g filter="url(#shadowFilter-p.2)"><use xlink:href="#p.2" transform="matrix(1.0 0.0 0.0 1.0 -4.58861128608924 6.55321653543308)"/></g><defs><filter id="shadowFilter-p.2" filterUnits="userSpaceOnUse"><feGaussianBlur in="SourceAlpha" stdDeviation="0.0" result="blur"/><feComponentTransfer in="blur" color-interpolation-filters="sRGB"><feFuncR type="linear" slope="0" intercept="0.4"/><feFuncG type="linear" slope="0" intercept="0.4"/><feFuncB type="linear" slope="0" intercept="0.4"/><feFuncA type="linear" slope="1.0" intercept="0"/></feComponentTransfer></filter></defs><g id="p.2"><defs><linearGradient id="p.3" gradientUnits="userSpaceOnUse" gradientTransform="matrix(11.120415176749246 0.0 0.0 11.120415176749246 0.0 0.0)" spreadMethod="pad" x1="-1.370321612357272" y1="6.01916266808534" x2="6.492984963028113" y2="13.882498054851945"><stop offset="0.0" stop-color="#ffffff"/><stop offset="0.35" stop-color="#dfffac"/><stop offset="0.75" stop-color="#ffc862"/><stop offset="1.0" stop-color="#ffc862"/></linearGradient></defs><path fill="url(#p.3)" d="m24.21612 34.795193l0 71.5952l24.559298 0l0 -30.386337l-24.559298 -41.208866zm0.05946541 -7.314127l46.799435 78.90933l18.969528 -32.64598l0 -39.72226l-16.650368 28.542938l-21.169758 -35.08403zm69.63423 0l0 78.90933l26.283798 0l0 -78.90933z" fill-rule="evenodd"/><path stroke="#999999" stroke-width="4.0" stroke-linejoin="round" stroke-linecap="butt" d="m24.21612 34.795193l0 71.5952l24.559298 0l0 -30.386337l-24.559298 -41.208866zm0.05946541 -7.314127l46.799435 78.90933l18.969528 -32.64598l0 -39.72226l-16.650368 28.542938l-21.169758 -35.08403zm69.63423 0l0 78.90933l26.283798 0l0 -78.90933z" fill-rule="evenodd"/></g></g></svg>