<svg version="1.1" viewBox="0.0 0.0 2021.9212598425197 658.6640419947506" fill="none" stroke="none" stroke-linecap="square" stroke-miterlimit="10" xmlns:xlink="http://www.w3.org/1999/xlink" xmlns="http://www.w3.org/2000/svg"><clipPath id="p.0"><path d="m0 0l2021.9213 0l0 658.66406l-2021.9213 0l0 -658.66406z" clip-rule="nonzero"/></clipPath><g clip-path="url(#p.0)"><path fill="#000000" fill-opacity="0.0" d="m0 0l2021.9213 0l0 658.66406l-2021.9213 0z" fill-rule="evenodd"/><defs><radialGradient id="p.1" gradientUnits="userSpaceOnUse" gradientTransform="matrix(34.99584128836332 0.0 0.0 34.99584128836332 0.0 0.0)" spreadMethod="pad" cx="-21.517667347561968" cy="9.26862466064383" fx="-21.517667347561968" fy="9.26862466064383" r="34.99584197998047"><stop offset="0.0" stop-color="#fff6db"/><stop offset="1.0" stop-color="#ffd42d"/></radialGradient></defs><path fill="url(#p.1)" d="m-1619.0289 324.3633l0 0c0 -478.2786 387.72144 -866.0 866.00006 -866.0l0 0c229.67749 0 449.94797 91.23901 612.3545 253.64551c162.4065 162.4065 253.64552 382.677 253.64552 612.3545l0 0c0 478.2786 -387.7214 866.0 -866.0 866.0l0 0c-478.27863 0 -866.00006 -387.72137 -866.00006 -866.0z" fill-rule="evenodd"/><path fill="#e06666" d="m225.38321 360.0l0 0c0 -4.2704163 3.461853 -7.7322693 7.7322693 -7.7322693l0 0c2.0507355 0 4.0174713 0.81463623 5.46756 2.2647095c1.4500885 1.4501038 2.2647247 3.4168396 2.2647247 5.46756l0 0c0 4.2704163 -3.461853 7.7322693 -7.7322845 7.7322693l0 0c-4.2704163 0 -7.7322693 -3.461853 -7.7322693 -7.7322693z" fill-rule="evenodd"/><path fill="#000000" d="m343.3701 339.62466l0 0c0 -2.5135498 2.0376282 -4.551178 4.551178 -4.551178l0 0c1.2070312 0 2.3646545 0.4794922 3.2181702 1.3330078c0.8535156 0.8535156 1.3330078 2.011139 1.3330078 3.2181702l0 0c0 2.5135498 -2.0376282 4.551178 -4.551178 4.551178l0 0c-2.5135498 0 -4.551178 -2.0376282 -4.551178 -4.551178z" fill-rule="evenodd"/><path fill="#000000" d="m352.83466 331.74277l1.448822 0l0 2.11026l-1.448822 0z" fill-rule="evenodd"/><path fill="#000000" d="m347.19684 332.1811l1.7008057 0l0 0.78741455l-1.7008057 0z" fill-rule="evenodd"/><path fill="#000000" d="m353.5092 338.43045l0.78741455 0l0 0.78738403l-0.78741455 0z" fill-rule="evenodd"/><path fill="#000000" d="m342.3842 344.24295l0.78741455 0l0 0.78738403l-0.78741455 0z" fill-rule="evenodd"/><path fill="#000000" d="m343.0717 336.18045l0.78741455 0l0 0.78738403l-0.78741455 0z" fill-rule="evenodd"/><path fill="#000000" d="m341.25934 341.8061l1.7008057 0l0 0.78741455l-1.7008057 0z" fill-rule="evenodd"/><path fill="#000000" d="m340.88452 337.76904l1.448822 0l0 2.1102295l-1.448822 0z" fill-rule="evenodd"/><path fill="#000000" d="m354.28348 340.61942l1.7007751 0l0 0.78741455l-1.7007751 0z" fill-rule="evenodd"/><path fill="#000000" d="m350.00787 333.85303l0.78741455 0l0 0.78738403l-0.78741455 0z" fill-rule="evenodd"/><path fill="#000000" d="m351.2592 331.55545l0.78741455 0l0 0.78738403l-0.78741455 0z" fill-rule="evenodd"/><path fill="#000000" d="m351.6342 343.11795l0.78741455 0l0 0.78738403l-0.78741455 0z" fill-rule="evenodd"/><defs><linearGradient id="p.2" gradientUnits="userSpaceOnUse" gradientTransform="matrix(6.666404194308185 0.0 0.0 6.666404194308185 0.0 0.0)" spreadMethod="pad" x1="73.38556641775875" y1="57.335328206964554" x2="80.05197061206694" y2="57.335328206964554"><stop offset="0.0" stop-color="#ffffff"/><stop offset="0.39" stop-color="#f9cb9c"/><stop offset="1.0" stop-color="#75939c"/></linearGradient></defs><path fill="url(#p.2)" d="m489.21783 360.0l0 0c0 -12.272034 9.948456 -22.220459 22.22049 -22.220459l0 0c5.893219 0 11.545074 2.3410645 15.71225 6.508209c4.1671143 4.167145 6.5082397 9.819 6.5082397 15.71225l0 0c0 12.272034 -9.948486 22.220459 -22.22049 22.220459l0 0c-12.272034 0 -22.22049 -9.948425 -22.22049 -22.220459z" fill-rule="evenodd"/><path fill="#6aa84f" d="m678.12335 202.43832l0 0c0 -6.4273834 5.210449 -11.637802 11.637817 -11.637802l0 0c3.0865479 0 6.046631 1.22612 8.229126 3.4086304c2.1825562 2.1825104 3.4086304 5.142639 3.4086304 8.229172l0 0c0 6.427368 -5.210388 11.637787 -11.637756 11.637787l0 0c-6.427368 0 -11.637817 -5.2104187 -11.637817 -11.637787z" fill-rule="evenodd"/><path fill="#3c78d8" d="m355.98294 360.0l0 0c0 -7.105774 5.760376 -12.86615 12.86615 -12.86615l0 0c3.4122925 0 6.684845 1.3555298 9.097717 3.768402c2.4128723 2.4128723 3.768402 5.685425 3.768402 9.097748l0 0c0 7.105774 -5.7603455 12.86615 -12.866119 12.86615l0 0c-7.105774 0 -12.86615 -5.760376 -12.86615 -12.86615z" fill-rule="evenodd"/><defs><radialGradient id="p.3" gradientUnits="userSpaceOnUse" gradientTransform="matrix(18.361967989252136 0.0 0.0 18.361967989252136 0.0 0.0)" spreadMethod="pad" cx="87.70832060434704" cy="19.605741618257902" fx="87.70832060434704" fy="19.605741618257902" r="18.361967086791992"><stop offset="0.0" stop-color="#ead1dc"/><stop offset="1.0" stop-color="#c27ba0"/></radialGradient></defs><path fill="url(#p.3)" d="m1372.0879 360.0l0 0c0 -131.6699 106.739624 -238.40945 238.40942 -238.40945l0 0c63.230225 0 123.870605 25.118065 168.58105 69.828514c44.71045 44.710434 69.82849 105.35083 69.82849 168.58093l0 0c0 131.66989 -106.739624 238.40942 -238.40955 238.40942l0 0c-131.6698 0 -238.40942 -106.73953 -238.40942 -238.40942z" fill-rule="evenodd"/><path fill="#ffe599" d="m1033.895 360.0l0 0c0 -39.146973 31.734863 -70.8819 70.881836 -70.8819l0 0c18.799072 0 36.828125 7.4678955 50.121094 20.760834c13.292969 13.292938 20.760864 31.322021 20.760864 50.121063l0 0c0 39.146973 -31.734863 70.8819 -70.88196 70.8819l0 0c-39.146973 0 -70.881836 -31.734924 -70.881836 -70.8819z" fill-rule="evenodd"/><path fill="#e06666" d="m639.90027 241.86876l0 0c0 -3.7224731 3.0176392 -6.740143 6.7401733 -6.740143l0 0c1.7875977 0 3.5019531 0.7101135 4.765991 1.9741364c1.2640381 1.2640228 1.9741211 2.9784088 1.9741211 4.7660065l0 0c0 3.7224884 -3.0176392 6.740158 -6.7401123 6.740158l0 0c-3.7225342 0 -6.7401733 -3.0176697 -6.7401733 -6.740158z" fill-rule="evenodd"/><path fill="#9fc5e8" d="m1334.9238 241.86876l0 0c0 -10.262924 8.319824 -18.582672 18.582764 -18.582672l0 0c4.9283447 0 9.655029 1.9578094 13.139893 5.442749c3.4849854 3.4849243 5.442749 8.211502 5.442749 13.139923l0 0c0 10.262939 -8.319702 18.582687 -18.582642 18.582687l0 0c-10.262939 0 -18.582764 -8.319748 -18.582764 -18.582687z" fill-rule="evenodd"/><path fill="#f9cb9c" d="m641.9895 360.0l0 0c0 -84.21689 68.2713 -152.48819 152.48816 -152.48819l0 0c40.442383 0 79.22839 16.065674 107.82544 44.66275c28.597107 28.597076 44.66278 67.38306 44.66278 107.82544l0 0c0 84.21689 -68.2713 152.48816 -152.48822 152.48816l0 0c-84.21686 0 -152.48816 -68.27127 -152.48816 -152.48816z" fill-rule="evenodd"/><path fill="#999999" d="m1923.2677 360.0l0 0c0 -6.427368 5.210449 -11.637787 11.637817 -11.637787l0 0c3.0865479 0 6.046631 1.2261047 8.229126 3.4086304c2.182495 2.182495 3.4086914 5.1426086 3.4086914 8.2291565l0 0c0 6.427368 -5.210449 11.637787 -11.637817 11.637787l0 0c-6.427368 0 -11.637817 -5.2104187 -11.637817 -11.637787z" fill-rule="evenodd"/><path fill="#c6d677" d="m1422.8373 138.46982l0 0c0 -4.2704315 3.461792 -7.7322845 7.7323 -7.7322845l0 0c2.0506592 0 4.017456 0.8146515 5.4675293 2.26474c1.4500732 1.4500732 2.2647705 3.416809 2.2647705 5.4675446l0 0c0 4.2704163 -3.461914 7.7322845 -7.7323 7.7322845l0 0c-4.270508 0 -7.7323 -3.4618683 -7.7323 -7.7322845z" fill-rule="evenodd"/><path fill="#774141" d="m1380.5598 180.01323l0 0c0 -6.4273834 5.210449 -11.637802 11.637817 -11.637802l0 0c3.0865479 0 6.046631 1.22612 8.229248 3.4086304c2.182495 2.1825104 3.4085693 5.142624 3.4085693 8.229172l0 0c0 6.427368 -5.210449 11.637787 -11.637817 11.637787l0 0c-6.427368 0 -11.637817 -5.2104187 -11.637817 -11.637787z" fill-rule="evenodd"/></g></svg>