<svg version="1.1" viewBox="0.0 0.0 2021.9212598425197 658.6640419947506" fill="none" stroke="none" stroke-linecap="square" stroke-miterlimit="10" xmlns:xlink="http://www.w3.org/1999/xlink" xmlns="http://www.w3.org/2000/svg"><clipPath id="p.0"><path d="m0 0l2021.9213 0l0 658.66406l-2021.9213 0l0 -658.66406z" clip-rule="nonzero"/></clipPath><g clip-path="url(#p.0)"><path fill="#000000" fill-opacity="0.0" d="m0 0l2021.9213 0l0 658.66406l-2021.9213 0z" fill-rule="evenodd"/><defs><radialGradient id="p.1" gradientUnits="userSpaceOnUse" gradientTransform="matrix(34.99584128836332 0.0 0.0 34.99584128836332 0.0 0.0)" spreadMethod="pad" cx="-21.517667347561968" cy="9.26862466064383" fx="-21.517667347561968" fy="9.26862466064383" r="34.99584197998047"><stop offset="0.0" stop-color="#fff6db"/><stop offset="1.0" stop-color="#ffd42d"/></radialGradient></defs><path fill="url(#p.1)" d="m-1619.0289 324.3633l0 0c0 -478.2786 387.72144 -866.0 866.00006 -866.0l0 0c229.67749 0 449.94797 91.23901 612.3545 253.64551c162.4065 162.4065 253.64552 382.677 253.64552 612.3545l0 0c0 478.2786 -387.7214 866.0 -866.0 866.0l0 0c-478.27863 0 -866.00006 -387.72137 -866.00006 -866.0z" fill-rule="evenodd"/><path fill="#e06666" d="m225.38321 360.0l0 0c0 -4.2704163 3.461853 -7.7322693 7.7322693 -7.7322693l0 0c2.0507355 0 4.0174713 0.81463623 5.46756 2.2647095c1.4500885 1.4501038 2.2647247 3.4168396 2.2647247 5.46756l0 0c0 4.2704163 -3.461853 7.7322693 -7.7322845 7.7322693l0 0c-4.2704163 0 -7.7322693 -3.461853 -7.7322693 -7.7322693z" fill-rule="evenodd"/><path fill="#000000" d="m343.3701 339.62466l0 0c0 -2.5135498 2.0376282 -4.551178 4.551178 -4.551178l0 0c1.2070312 0 2.3646545 0.4794922 3.2181702 1.3330078c0.8535156 0.8535156 1.3330078 2.011139 1.3330078 3.2181702l0 0c0 2.5135498 -2.0376282 4.551178 -4.551178 4.551178l0 0c-2.5135498 0 -4.551178 -2.0376282 -4.551178 -4.551178z" fill-rule="evenodd"/><path fill="#000000" d="m352.83466 331.74277l1.448822 0l0 2.11026l-1.448822 0z" fill-rule="evenodd"/><path fill="#000000" d="m347.19684 332.1811l1.7008057 0l0 0.78741455l-1.7008057 0z" fill-rule="evenodd"/><path fill="#000000" d="m353.5092 338.43045l0.78741455 0l0 0.78738403l-0.78741455 0z" fill-rule="evenodd"/><path fill="#000000" d="m342.3842 344.24295l0.78741455 0l0 0.78738403l-0.78741455 0z" fill-rule="evenodd"/><path fill="#000000" d="m343.0717 336.18045l0.78741455 0l0 0.78738403l-0.78741455 0z" fill-rule="evenodd"/><path fill="#000000" d="m341.25934 341.8061l1.7008057 0l0 0.78741455l-1.7008057 0z" fill-rule="evenodd"/><path fill="#000000" d="m340.88452 337.76904l1.448822 0l0 2.1102295l-1.448822 0z" fill-rule="evenodd"/><path fill="#000000" d="m354.28348 340.61942l1.7007751 0l0 0.78741455l-1.7007751 0z" fill-rule="evenodd"/><path fill="#000000" d="m350.00787 333.85303l0.78741455 0l0 0.78738403l-0.78741455 0z" fill-rule="evenodd"/><path fill="#000000" d="m351.2592 331.55545l0.78741455 0l0 0.78738403l-0.78741455 0z" fill-rule="evenodd"/><path fill="#000000" d="m351.6342 343.11795l0.78741455 0l0 0.78738403l-0.78741455 0z" fill-rule="evenodd"/><defs><linearGradient id="p.2" gradientUnits="userSpaceOnUse" gradientTransform="matrix(6.666404194308185 0.0 0.0 6.666404194308185 0.0 0.0)" spreadMethod="pad" x1="73.38556641775875" y1="57.335328206964554" x2="80.05197061206694" y2="57.335328206964554"><stop offset="0.0" stop-color="#ffffff"/><stop offset="0.39" stop-color="#f9cb9c"/><stop offset="1.0" stop-color="#75939c"/></linearGradient></defs><path fill="url(#p.2)" d="m489.21783 360.0l0 0c0 -12.272034 9.948456 -22.220459 22.22049 -22.220459l0 0c5.893219 0 11.545074 2.3410645 15.71225 6.508209c4.1671143 4.167145 6.5082397 9.819 6.5082397 15.71225l0 0c0 12.272034 -9.948486 22.220459 -22.22049 22.220459l0 0c-12.272034 0 -22.22049 -9.948425 -22.22049 -22.220459z" fill-rule="evenodd"/><path fill="#6aa84f" d="m678.12335 202.43832l0 0c0 -6.4273834 5.210449 -11.637802 11.637817 -11.637802l0 0c3.0865479 0 6.046631 1.22612 8.229126 3.4086304c2.1825562 2.1825104 3.4086304 5.142639 3.4086304 8.229172l0 0c0 6.427368 -5.210388 11.637787 -11.637756 11.637787l0 0c-6.427368 0 -11.637817 -5.2104187 -11.637817 -11.637787z" fill-rule="evenodd"/><path fill="#3c78d8" d="m355.98294 360.0l0 0c0 -7.105774 5.760376 -12.86615 12.86615 -12.86615l0 0c3.4122925 0 6.684845 1.3555298 9.097717 3.768402c2.4128723 2.4128723 3.768402 5.685425 3.768402 9.097748l0 0c0 7.105774 -5.7603455 12.86615 -12.866119 12.86615l0 0c-7.105774 0 -12.86615 -5.760376 -12.86615 -12.86615z" fill-rule="evenodd"/><defs><radialGradient id="p.3" gradientUnits="userSpaceOnUse" gradientTransform="matrix(18.361967989252136 0.0 0.0 18.361967989252136 0.0 0.0)" spreadMethod="pad" cx="87.70832060434704" cy="19.605741618257902" fx="87.70832060434704" fy="19.605741618257902" r="18.361967086791992"><stop offset="0.0" stop-color="#ead1dc"/><stop offset="1.0" stop-color="#c27ba0"/></radialGradient></defs><path fill="url(#p.3)" d="m1372.0879 360.0l0 0c0 -131.6699 106.739624 -238.40945 238.40942 -238.40945l0 0c63.230225 0 123.870605 25.118065 168.58105 69.828514c44.71045 44.710434 69.82849 105.35083 69.82849 168.58093l0 0c0 131.66989 -106.739624 238.40942 -238.40955 238.40942l0 0c-131.6698 0 -238.40942 -106.73953 -238.40942 -238.40942z" fill-rule="evenodd"/><path fill="#ffe599" d="m1033.895 360.0l0 0c0 -39.146973 31.734863 -70.8819 70.881836 -70.8819l0 0c18.799072 0 36.828125 7.4678955 50.121094 20.760834c13.292969 13.292938 20.760864 31.322021 20.760864 50.121063l0 0c0 39.146973 -31.734863 70.8819 -70.88196 70.8819l0 0c-39.146973 0 -70.881836 -31.734924 -70.881836 -70.8819z" fill-rule="evenodd"/><path fill="#e06666" d="m639.90027 241.86876l0 0c0 -3.7224731 3.0176392 -6.740143 6.7401733 -6.740143l0 0c1.7875977 0 3.5019531 0.7101135 4.765991 1.9741364c1.2640381 1.2640228 1.9741211 2.9784088 1.9741211 4.7660065l0 0c0 3.7224884 -3.0176392 6.740158 -6.7401123 6.740158l0 0c-3.7225342 0 -6.7401733 -3.0176697 -6.7401733 -6.740158z" fill-rule="evenodd"/><path fill="#9fc5e8" d="m1334.9238 241.86876l0 0c0 -10.262924 8.319824 -18.582672 18.582764 -18.582672l0 0c4.9283447 0 9.655029 1.9578094 13.139893 5.442749c3.4849854 3.4849243 5.442749 8.211502 5.442749 13.139923l0 0c0 10.262939 -8.319702 18.582687 -18.582642 18.582687l0 0c-10.262939 0 -18.582764 -8.319748 -18.582764 -18.582687z" fill-rule="evenodd"/><path fill="#f9cb9c" d="m641.9895 360.0l0 0c0 -84.21689 68.2713 -152.48819 152.48816 -152.48819l0 0c40.442383 0 79.22839 16.065674 107.82544 44.66275c28.597107 28.597076 44.66278 67.38306 44.66278 107.82544l0 0c0 84.21689 -68.2713 152.48816 -152.48822 152.48816l0 0c-84.21686 0 -152.48816 -68.27127 -152.48816 -152.48816z" fill-rule="evenodd"/><path fill="#999999" d="m1923.2677 360.0l0 0c0 -6.427368 5.210449 -11.637787 11.637817 -11.637787l0 0c3.0865479 0 6.046631 1.2261047 8.229126 3.4086304c2.182495 2.182495 3.4086914 5.1426086 3.4086914 8.2291565l0 0c0 6.427368 -5.210449 11.637787 -11.637817 11.637787l0 0c-6.427368 0 -11.637817 -5.2104187 -11.637817 -11.637787z" fill-rule="evenodd"/><path fill="#c6d677" d="m1422.8373 138.46982l0 0c0 -4.2704315 3.461792 -7.7322845 7.7323 -7.7322845l0 0c2.0506592 0 4.017456 0.8146515 5.4675293 2.26474c1.4500732 1.4500732 2.2647705 3.416809 2.2647705 5.4675446l0 0c0 4.2704163 -3.461914 7.7322845 -7.7323 7.7322845l0 0c-4.270508 0 -7.7323 -3.4618683 -7.7323 -7.7322845z" fill-rule="evenodd"/><path fill="#774141" d="m1380.5598 180.01323l0 0c0 -6.4273834 5.210449 -11.637802 11.637817 -11.637802l0 0c3.0865479 0 6.046631 1.22612 8.229248 3.4086304c2.182495 2.1825104 3.4085693 5.142624 3.4085693 8.229172l0 0c0 6.427368 -5.210449 11.637787 -11.637817 11.637787l0 0c-6.427368 0 -11.637817 -5.2104187 -11.637817 -11.637787z" fill-rule="evenodd"/><path fill="#000000" fill-opacity="0.0" d="m453.32907 38.213192l116.22049 0l0 48.47244l-116.22049 0z" fill-rule="evenodd"/><path fill="#3c78d8" d="m477.02136 69.65945q-1.015625 0.40625 -1.96875 0.609375q-0.953125 0.203125 -1.984375 0.203125q-1.65625 0 -2.9375 -0.484375q-1.265625 -0.5 -2.140625 -1.453125q-0.875 -0.96875 -1.328125 -2.390625q-0.4375 -1.421875 -0.4375 -3.3125038q0 -1.9375 0.484375 -3.4375q0.5 -1.5 1.40625 -2.53125q0.921875 -1.046875 2.21875 -1.59375q1.3125 -0.546875 2.9375 -0.546875q0.53125 0 0.984375 0.03125q0.46875 0.015625 0.90625 0.078125q0.453125 0.0625 0.90625 0.171875q0.46875 0.109375 0.953125 0.265625l0 2.859375q-1.0 -0.46875 -1.90625 -0.65625q-0.890625 -0.203125 -1.625 -0.203125q-1.09375 0 -1.875 0.390625q-0.765625 0.390625 -1.265625 1.109375q-0.5 0.703125 -0.734375 1.6875q-0.234375 0.96875 -0.234375 2.140625q0 1.25 0.234375 2.2343788q0.25 0.96875 0.75 1.65625q0.5 0.671875 1.28125 1.03125q0.796875 0.359375 1.875 0.359375q0.390625 0 0.828125 -0.078125q0.453125 -0.078125 0.921875 -0.203125q0.46875 -0.125 0.90625 -0.296875q0.453125 -0.171875 0.84375 -0.34375l0 2.703125zm10.1640625 0.59375l0 -7.765629q0 -1.953125 -1.453125 -1.953125q-0.734375 0 -1.390625 0.59375q-0.65625 0.578125 -1.40625 1.59375l0 7.531254l-2.859375 0l0 -16.562504l2.859375 0l0 4.078125l-0.140625 2.15625q0.375 -0.4375 0.75 -0.78125q0.375 -0.34375 0.796875 -0.578125q0.4375 -0.234375 0.9375 -0.359375q0.515625 -0.125 1.125 -0.125q0.90625 0 1.578125 0.3125q0.6875 0.296875 1.140625 0.84375q0.46875 0.53125 0.6875 1.3125q0.234375 0.765625 0.234375 1.703125l0 8.000004l-2.859375 0zm16.460938 -6.875004q0 0.296875 -0.015625 0.7656288q-0.015625 0.46875 -0.046875 0.875l-7.828125 0q0 0.796875 0.234375 1.390625q0.234375 0.59375 0.671875 1.0q0.453125 0.40625 1.0625 0.625q0.609375 0.203125 1.359375 0.203125q0.875 0 1.859375 -0.125q1.0 -0.140625 2.0625 -0.453125l0 2.28125q-0.453125 0.125 -1.0 0.234375q-0.53125 0.109375 -1.09375 0.1875q-0.5625 0.078125 -1.140625 0.109375q-0.578125 0.046875 -1.109375 0.046875q-1.359375 0 -2.4375 -0.375q-1.078125 -0.390625 -1.828125 -1.140625q-0.75 -0.765625 -1.15625 -1.875q-0.390625 -1.125 -0.390625 -2.578125q0 -1.4531288 0.390625 -2.6406288q0.40625 -1.203125 1.125 -2.046875q0.734375 -0.84375 1.765625 -1.3125q1.03125 -0.46875 2.3125 -0.46875q1.265625 0 2.234375 0.40625q0.984375 0.390625 1.640625 1.09375q0.65625 0.703125 0.984375 1.671875q0.34375 0.96875 0.34375 2.125zm-2.90625 -0.40625q0.015625 -0.703125 -0.171875 -1.21875q-0.1875 -0.53125 -0.515625 -0.859375q-0.3125 -0.34375 -0.75 -0.5q-0.421875 -0.171875 -0.921875 -0.171875q-1.078125 0 -1.765625 0.71875q-0.6875 0.71875 -0.8125 2.03125l4.9375 0zm12.7421875 -7.890625q0 0.390625 -0.140625 0.734375q-0.140625 0.34375 -0.390625 0.59375q-0.25 0.25 -0.59375 0.40625q-0.34375 0.140625 -0.734375 0.140625q-0.40625 0 -0.75 -0.140625q-0.34375 -0.15625 -0.59375 -0.40625q-0.25 -0.25 -0.390625 -0.59375q-0.140625 -0.34375 -0.140625 -0.734375q0 -0.375 0.140625 -0.71875q0.140625 -0.34375 0.390625 -0.59375q0.25 -0.265625 0.59375 -0.40625q0.34375 -0.15625 0.75 -0.15625q0.390625 0 0.734375 0.15625q0.34375 0.140625 0.59375 0.40625q0.25 0.25 0.390625 0.59375q0.140625 0.34375 0.140625 0.71875zm-3.171875 5.484375l-3.359375 0l0 -2.21875l6.296875 0l0 9.671879l3.4375 0l0 2.234375l-10.140625 0l0 -2.234375l3.765625 0l0 -7.453129zm13.1953125 -4.640625l-3.359375 0l0 -2.234375l6.296875 0l0 14.328129l3.4375 0l0 2.234375l-10.140625 0l0 -2.234375l3.765625 0l0 -12.093754zm20.085938 8.281254q0 1.40625 -0.40625 2.578125q-0.390625 1.15625 -1.140625 2.0q-0.75 0.828125 -1.84375 1.28125q-1.09375 0.453125 -2.484375 0.453125q-1.328125 0 -2.375 -0.375q-1.03125 -0.390625 -1.765625 -1.15625q-0.71875 -0.78125 -1.109375 -1.921875q-0.390625 -1.15625 -0.390625 -2.703125q0 -1.4062538 0.40625 -2.5625038q0.40625 -1.171875 1.15625 -1.984375q0.765625 -0.828125 1.84375 -1.28125q1.09375 -0.453125 2.46875 -0.453125q1.328125 0 2.375 0.40625q1.046875 0.390625 1.765625 1.171875q0.734375 0.765625 1.109375 1.90625q0.390625 1.140625 0.390625 2.6406288zm-2.984375 0.0625q0 -1.8437538 -0.703125 -2.7656288q-0.6875 -0.9375 -2.046875 -0.9375q-0.75 0 -1.28125 0.296875q-0.53125 0.28125 -0.875 0.796875q-0.328125 0.5 -0.484375 1.1875q-0.15625 0.671875 -0.15625 1.4531288q0 1.859375 0.75 2.8125q0.75 0.9375 2.046875 0.9375q0.71875 0 1.234375 -0.28125q0.53125 -0.296875 0.859375 -0.796875q0.328125 -0.515625 0.484375 -1.203125q0.171875 -0.703125 0.171875 -1.5zm15.2734375 2.484375q0 1.015625 -0.453125 1.734375q-0.453125 0.71875 -1.203125 1.171875q-0.734375 0.453125 -1.6875 0.65625q-0.9375 0.203125 -1.921875 0.203125q-1.3125 0 -2.375 -0.125q-1.046875 -0.109375 -1.984375 -0.359375l0 -2.578125q1.109375 0.46875 2.203125 0.671875q1.09375 0.203125 2.0625 0.203125q1.125 0 1.671875 -0.359375q0.5625 -0.359375 0.5625 -0.9375q0 -0.265625 -0.125 -0.484375q-0.109375 -0.21875 -0.4375 -0.421875q-0.3125 -0.21875 -0.90625 -0.421875q-0.578125 -0.21875 -1.53125 -0.5q-0.875 -0.234375 -1.546875 -0.546875q-0.65625 -0.3125 -1.09375 -0.7343788q-0.421875 -0.421875 -0.640625 -0.96875q-0.21875 -0.5625 -0.21875 -1.3125q0 -0.734375 0.328125 -1.375q0.328125 -0.640625 0.96875 -1.125q0.65625 -0.5 1.625 -0.78125q0.984375 -0.28125 2.28125 -0.28125q1.125 0 1.984375 0.125q0.875 0.109375 1.546875 0.25l0 2.34375q-1.015625 -0.328125 -1.921875 -0.46875q-0.890625 -0.140625 -1.765625 -0.140625q-0.890625 0 -1.421875 0.328125q-0.53125 0.3125 -0.53125 0.875q0 0.265625 0.109375 0.484375q0.109375 0.203125 0.40625 0.40625q0.3125 0.203125 0.875 0.421875q0.5625 0.203125 1.46875 0.46875q1.03125 0.296875 1.734375 0.625q0.703125 0.3281288 1.125 0.7500038q0.4375 0.421875 0.625 0.96875q0.1875 0.53125 0.1875 1.234375z" fill-rule="nonzero"/><path fill="#000000" fill-opacity="0.0" d="m310.73883 114.2021l116.22049 0l0 48.472443l-116.22049 0z" fill-rule="evenodd"/><path fill="#3c78d8" d="m335.43112 138.52335q0 2.078125 -0.484375 3.59375q-0.484375 1.515625 -1.34375 2.484375q-0.84375 0.96875 -1.984375 1.4375q-1.140625 0.46875 -2.453125 0.46875q-3.015625 0 -4.546875 -2.0q-1.515625 -2.015625 -1.515625 -5.84375q0 -2.09375 0.484375 -3.59375q0.484375 -1.515625 1.328125 -2.484375q0.859375 -0.984375 2.0 -1.453125q1.140625 -0.46875 2.4375 -0.46875q3.03125 0 4.546875 2.015625q1.53125 2.0 1.53125 5.84375zm-3.046875 0.140625q0 -2.71875 -0.734375 -4.046875q-0.71875 -1.34375 -2.390625 -1.34375q-0.828125 0 -1.421875 0.34375q-0.578125 0.34375 -0.96875 1.015625q-0.375 0.65625 -0.546875 1.640625q-0.171875 0.984375 -0.171875 2.25q0 2.71875 0.734375 4.0625q0.734375 1.328125 2.375 1.328125q0.84375 0 1.421875 -0.34375q0.59375 -0.359375 0.96875 -1.015625q0.375 -0.671875 0.546875 -1.640625q0.1875 -0.984375 0.1875 -2.25zm12.4765625 7.578125l-4.390625 -5.953125l0 5.953125l-2.859375 0l0 -16.5625l2.859375 0l0 9.6875l4.15625 -5.03125l3.578125 0l-4.828125 5.421875l5.21875 6.484375l-3.734375 0zm16.195312 -6.875q0 0.296875 -0.015625 0.765625q-0.015625 0.46875 -0.046875 0.875l-7.828125 0q0 0.796875 0.234375 1.390625q0.234375 0.59375 0.671875 1.0q0.453125 0.40625 1.0625 0.625q0.609375 0.203125 1.359375 0.203125q0.875 0 1.859375 -0.125q1.0 -0.140625 2.0625 -0.453125l0 2.28125q-0.453125 0.125 -1.0 0.234375q-0.53125 0.109375 -1.09375 0.1875q-0.5625 0.078125 -1.140625 0.109375q-0.578125 0.046875 -1.109375 0.046875q-1.359375 0 -2.4375 -0.375q-1.078125 -0.390625 -1.828125 -1.140625q-0.75 -0.765625 -1.15625 -1.875q-0.390625 -1.125 -0.390625 -2.578125q0 -1.453125 0.390625 -2.640625q0.40625 -1.203125 1.125 -2.046875q0.734375 -0.84375 1.765625 -1.3125q1.03125 -0.46875 2.3125 -0.46875q1.265625 0 2.234375 0.40625q0.984375 0.390625 1.640625 1.09375q0.65625 0.703125 0.984375 1.671875q0.34375 0.96875 0.34375 2.125zm-2.90625 -0.40625q0.015625 -0.703125 -0.171875 -1.21875q-0.1875 -0.53125 -0.515625 -0.859375q-0.3125 -0.34375 -0.75 -0.5q-0.421875 -0.171875 -0.921875 -0.171875q-1.078125 0 -1.765625 0.71875q-0.6875 0.71875 -0.8125 2.03125l4.9375 0zm13.1953125 7.28125l-0.0625 -1.5625q-0.375 0.40625 -0.796875 0.734375q-0.40625 0.328125 -0.90625 0.578125q-0.484375 0.25 -1.0625 0.375q-0.578125 0.140625 -1.265625 0.140625q-0.921875 0 -1.609375 -0.265625q-0.6875 -0.265625 -1.15625 -0.75q-0.46875 -0.484375 -0.71875 -1.15625q-0.234375 -0.6875 -0.234375 -1.5q0 -0.84375 0.359375 -1.5625q0.359375 -0.71875 1.078125 -1.234375q0.734375 -0.515625 1.828125 -0.796875q1.109375 -0.296875 2.578125 -0.296875l1.5625 0l0 -0.71875q0 -0.453125 -0.140625 -0.828125q-0.125 -0.375 -0.40625 -0.625q-0.28125 -0.265625 -0.75 -0.40625q-0.453125 -0.140625 -1.125 -0.140625q-1.046875 0 -2.078125 0.25q-1.015625 0.234375 -1.984375 0.671875l0 -2.28125q0.859375 -0.34375 1.96875 -0.5625q1.125 -0.234375 2.328125 -0.234375q1.328125 0 2.28125 0.265625q0.953125 0.25 1.5625 0.75q0.609375 0.5 0.90625 1.265625q0.296875 0.75 0.296875 1.75l0 8.140625l-2.453125 0zm-0.40625 -5.265625l-1.75 0q-0.71875 0 -1.234375 0.140625q-0.5 0.140625 -0.8125 0.390625q-0.3125 0.25 -0.46875 0.578125q-0.140625 0.3125 -0.140625 0.671875q0 0.734375 0.46875 1.109375q0.46875 0.375 1.28125 0.375q0.59375 0 1.234375 -0.421875q0.640625 -0.4375 1.421875 -1.25l0 -1.59375zm13.2421875 5.265625l0 -7.765625q0 -1.953125 -1.453125 -1.953125q-0.734375 0 -1.390625 0.59375q-0.65625 0.578125 -1.40625 1.59375l0 7.53125l-2.859375 0l0 -11.90625l2.484375 0l0.0625 1.75q0.359375 -0.453125 0.75 -0.828125q0.40625 -0.375 0.859375 -0.640625q0.453125 -0.265625 0.984375 -0.40625q0.53125 -0.140625 1.1875 -0.140625q0.90625 0 1.578125 0.3125q0.6875 0.296875 1.140625 0.84375q0.46875 0.53125 0.6875 1.3125q0.234375 0.765625 0.234375 1.703125l0 8.0l-2.859375 0zm16.820312 -6.046875q0 1.40625 -0.40625 2.578125q-0.390625 1.15625 -1.140625 2.0q-0.75 0.828125 -1.84375 1.28125q-1.09375 0.453125 -2.484375 0.453125q-1.328125 0 -2.375 -0.375q-1.03125 -0.390625 -1.765625 -1.15625q-0.71875 -0.78125 -1.109375 -1.921875q-0.390625 -1.15625 -0.390625 -2.703125q0 -1.40625 0.40625 -2.5625q0.40625 -1.171875 1.15625 -1.984375q0.765625 -0.828125 1.84375 -1.28125q1.09375 -0.453125 2.46875 -0.453125q1.328125 0 2.375 0.40625q1.046875 0.390625 1.765625 1.171875q0.734375 0.765625 1.109375 1.90625q0.390625 1.140625 0.390625 2.640625zm-2.984375 0.0625q0 -1.84375 -0.703125 -2.765625q-0.6875 -0.9375 -2.046875 -0.9375q-0.75 0 -1.28125 0.296875q-0.53125 0.28125 -0.875 0.796875q-0.328125 0.5 -0.484375 1.1875q-0.15625 0.671875 -0.15625 1.453125q0 1.859375 0.75 2.8125q0.75 0.9375 2.046875 0.9375q0.71875 0 1.234375 -0.28125q0.53125 -0.296875 0.859375 -0.796875q0.328125 -0.515625 0.484375 -1.203125q0.171875 -0.703125 0.171875 -1.5zm15.2734375 2.484375q0 1.015625 -0.453125 1.734375q-0.453125 0.71875 -1.203125 1.171875q-0.734375 0.453125 -1.6875 0.65625q-0.9375 0.203125 -1.921875 0.203125q-1.3125 0 -2.375 -0.125q-1.046875 -0.109375 -1.984375 -0.359375l0 -2.578125q1.109375 0.46875 2.203125 0.671875q1.09375 0.203125 2.0625 0.203125q1.125 0 1.671875 -0.359375q0.5625 -0.359375 0.5625 -0.9375q0 -0.265625 -0.125 -0.484375q-0.109375 -0.21875 -0.4375 -0.421875q-0.3125 -0.21875 -0.90625 -0.421875q-0.578125 -0.21875 -1.53125 -0.5q-0.875 -0.234375 -1.546875 -0.546875q-0.65625 -0.3125 -1.09375 -0.734375q-0.421875 -0.421875 -0.640625 -0.96875q-0.21875 -0.5625 -0.21875 -1.3125q0 -0.734375 0.328125 -1.375q0.328125 -0.640625 0.96875 -1.125q0.65625 -0.5 1.625 -0.78125q0.984375 -0.28125 2.28125 -0.28125q1.125 0 1.984375 0.125q0.875 0.109375 1.546875 0.25l0 2.34375q-1.015625 -0.328125 -1.921875 -0.46875q-0.890625 -0.140625 -1.765625 -0.140625q-0.890625 0 -1.421875 0.328125q-0.53125 0.3125 -0.53125 0.875q0 0.265625 0.109375 0.484375q0.109375 0.203125 0.40625 0.40625q0.3125 0.203125 0.875 0.421875q0.5625 0.203125 1.46875 0.46875q1.03125 0.296875 1.734375 0.625q0.703125 0.328125 1.125 0.75q0.4375 0.421875 0.625 0.96875q0.1875 0.53125 0.1875 1.234375z" fill-rule="nonzero"/><path fill="#000000" fill-opacity="0.0" d="m175.00575 111.17716l116.220474 0l0 48.47245l-116.220474 0z" fill-rule="evenodd"/><path fill="#3c78d8" d="m195.97928 143.21716l-4.609375 -7.40625l0 7.40625l-2.921875 0l0 -15.3125l2.921875 0l0 6.96875l4.59375 -6.96875l3.46875 0l-5.203125 7.296875l5.484375 8.015625l-3.734375 0zm13.2421875 0l-0.0625 -1.5625q-0.375 0.40625 -0.796875 0.734375q-0.40625 0.328125 -0.90625 0.578125q-0.484375 0.25 -1.0625 0.375q-0.578125 0.140625 -1.265625 0.140625q-0.921875 0 -1.609375 -0.265625q-0.6875 -0.265625 -1.15625 -0.75q-0.46875 -0.484375 -0.71875 -1.15625q-0.234375 -0.6875 -0.234375 -1.5q0 -0.84375 0.359375 -1.5625q0.359375 -0.71875 1.078125 -1.234375q0.734375 -0.515625 1.828125 -0.796875q1.109375 -0.296875 2.578125 -0.296875l1.5625 0l0 -0.71875q0 -0.453125 -0.140625 -0.828125q-0.125 -0.375 -0.40625 -0.625q-0.28125 -0.265625 -0.75 -0.40625q-0.453125 -0.140625 -1.125 -0.140625q-1.046875 0 -2.078125 0.25q-1.015625 0.234375 -1.984375 0.671875l0 -2.28125q0.859375 -0.34375 1.96875 -0.5625q1.125 -0.234375 2.328125 -0.234375q1.328125 0 2.28125 0.265625q0.953125 0.25 1.5625 0.75q0.609375 0.5 0.90625 1.265625q0.296875 0.75 0.296875 1.75l0 8.140625l-2.453125 0zm-0.40625 -5.265625l-1.75 0q-0.71875 0 -1.234375 0.140625q-0.5 0.140625 -0.8125 0.390625q-0.3125 0.25 -0.46875 0.578125q-0.140625 0.3125 -0.140625 0.671875q0 0.734375 0.46875 1.109375q0.46875 0.375 1.28125 0.375q0.59375 0 1.234375 -0.421875q0.640625 -0.4375 1.421875 -1.25l0 -1.59375zm14.5390625 5.265625l0 -8.109375q0 -0.453125 -0.03125 -0.78125q-0.015625 -0.328125 -0.09375 -0.546875q-0.0625 -0.234375 -0.203125 -0.34375q-0.125 -0.109375 -0.359375 -0.109375q-0.359375 0 -0.71875 0.5q-0.34375 0.484375 -0.796875 1.671875l0 7.71875l-2.453125 0l0 -8.109375q0 -0.453125 -0.03125 -0.78125q-0.015625 -0.328125 -0.09375 -0.546875q-0.0625 -0.234375 -0.203125 -0.34375q-0.140625 -0.109375 -0.375 -0.109375q-0.296875 0 -0.671875 0.5q-0.375 0.484375 -0.828125 1.671875l0 7.71875l-2.484375 0l0 -11.90625l2.125 0l0.046875 1.734375q0.265625 -0.53125 0.515625 -0.90625q0.265625 -0.375 0.546875 -0.609375q0.296875 -0.25 0.625 -0.34375q0.34375 -0.109375 0.765625 -0.109375q1.0 0 1.515625 0.53125q0.515625 0.515625 0.59375 1.4375q0.28125 -0.53125 0.546875 -0.90625q0.28125 -0.375 0.578125 -0.609375q0.296875 -0.25 0.640625 -0.34375q0.359375 -0.109375 0.78125 -0.109375q1.296875 0 1.90625 0.90625q0.625 0.90625 0.625 2.6875l0 8.546875l-2.46875 0zm11.8046875 -15.171875q0 0.390625 -0.140625 0.734375q-0.140625 0.34375 -0.390625 0.59375q-0.25 0.25 -0.59375 0.40625q-0.34375 0.140625 -0.734375 0.140625q-0.40625 0 -0.75 -0.140625q-0.34375 -0.15625 -0.59375 -0.40625q-0.25 -0.25 -0.390625 -0.59375q-0.140625 -0.34375 -0.140625 -0.734375q0 -0.375 0.140625 -0.71875q0.140625 -0.34375 0.390625 -0.59375q0.25 -0.265625 0.59375 -0.40625q0.34375 -0.15625 0.75 -0.15625q0.390625 0 0.734375 0.15625q0.34375 0.140625 0.59375 0.40625q0.25 0.25 0.390625 0.59375q0.140625 0.34375 0.140625 0.71875zm-3.171875 5.484375l-3.359375 0l0 -2.21875l6.296875 0l0 9.671875l3.4375 0l0 2.234375l-10.140625 0l0 -2.234375l3.765625 0l0 -7.453125zm16.460938 9.6875l0 -7.765625q0 -1.953125 -1.453125 -1.953125q-0.734375 0 -1.390625 0.59375q-0.65625 0.578125 -1.40625 1.59375l0 7.53125l-2.859375 0l0 -11.90625l2.484375 0l0.0625 1.75q0.359375 -0.453125 0.75 -0.828125q0.40625 -0.375 0.859375 -0.640625q0.453125 -0.265625 0.984375 -0.40625q0.53125 -0.140625 1.1875 -0.140625q0.90625 0 1.578125 0.3125q0.6875 0.296875 1.140625 0.84375q0.46875 0.53125 0.6875 1.3125q0.234375 0.765625 0.234375 1.703125l0 8.0l-2.859375 0zm16.820312 -6.046875q0 1.40625 -0.40625 2.578125q-0.390625 1.15625 -1.140625 2.0q-0.75 0.828125 -1.84375 1.28125q-1.09375 0.453125 -2.484375 0.453125q-1.328125 0 -2.375 -0.375q-1.03125 -0.390625 -1.765625 -1.15625q-0.71875 -0.78125 -1.109375 -1.921875q-0.390625 -1.15625 -0.390625 -2.703125q0 -1.40625 0.40625 -2.5625q0.40625 -1.171875 1.15625 -1.984375q0.765625 -0.828125 1.84375 -1.28125q1.09375 -0.453125 2.46875 -0.453125q1.328125 0 2.375 0.40625q1.046875 0.390625 1.765625 1.171875q0.734375 0.765625 1.109375 1.90625q0.390625 1.140625 0.390625 2.640625zm-2.984375 0.0625q0 -1.84375 -0.703125 -2.765625q-0.6875 -0.9375 -2.046875 -0.9375q-0.75 0 -1.28125 0.296875q-0.53125 0.28125 -0.875 0.796875q-0.328125 0.5 -0.484375 1.1875q-0.15625 0.671875 -0.15625 1.453125q0 1.859375 0.75 2.8125q0.75 0.9375 2.046875 0.9375q0.71875 0 1.234375 -0.28125q0.53125 -0.296875 0.859375 -0.796875q0.328125 -0.515625 0.484375 -1.203125q0.171875 -0.703125 0.171875 -1.5zm15.2734375 2.484375q0 1.015625 -0.453125 1.734375q-0.453125 0.71875 -1.203125 1.171875q-0.734375 0.453125 -1.6875 0.65625q-0.9375 0.203125 -1.921875 0.203125q-1.3125 0 -2.375 -0.125q-1.046875 -0.109375 -1.984375 -0.359375l0 -2.578125q1.109375 0.46875 2.203125 0.671875q1.09375 0.203125 2.0625 0.203125q1.125 0 1.671875 -0.359375q0.5625 -0.359375 0.5625 -0.9375q0 -0.265625 -0.125 -0.484375q-0.109375 -0.21875 -0.4375 -0.421875q-0.3125 -0.21875 -0.90625 -0.421875q-0.578125 -0.21875 -1.53125 -0.5q-0.875 -0.234375 -1.546875 -0.546875q-0.65625 -0.3125 -1.09375 -0.734375q-0.421875 -0.421875 -0.640625 -0.96875q-0.21875 -0.5625 -0.21875 -1.3125q0 -0.734375 0.328125 -1.375q0.328125 -0.640625 0.96875 -1.125q0.65625 -0.5 1.625 -0.78125q0.984375 -0.28125 2.28125 -0.28125q1.125 0 1.984375 0.125q0.875 0.109375 1.546875 0.25l0 2.34375q-1.015625 -0.328125 -1.921875 -0.46875q-0.890625 -0.140625 -1.765625 -0.140625q-0.890625 0 -1.421875 0.328125q-0.53125 0.3125 -0.53125 0.875q0 0.265625 0.109375 0.484375q0.109375 0.203125 0.40625 0.40625q0.3125 0.203125 0.875 0.421875q0.5625 0.203125 1.46875 0.46875q1.03125 0.296875 1.734375 0.625q0.703125 0.328125 1.125 0.75q0.4375 0.421875 0.625 0.96875q0.1875 0.53125 0.1875 1.234375z" fill-rule="nonzero"/><path fill="#000000" fill-opacity="0.0" d="m234.32535 38.213192l116.22046 0l0 48.47244l-116.22046 0z" fill-rule="evenodd"/><path fill="#3c78d8" d="m255.0059 70.2532l0 -15.312504l9.218735 0l0 2.4375l-6.28125 0l0 3.796875l6.0 0l0 2.390625l-6.0 0l0 4.250004l6.28125 0l0 2.4375l-9.218735 0zm20.335922 -7.281254q0.015625 -0.671875 -0.078125 -1.140625q-0.078125 -0.46875 -0.28125 -0.765625q-0.1875 -0.3125 -0.46875 -0.453125q-0.28125 -0.140625 -0.640625 -0.140625q-0.625 0 -1.3125 0.53125q-0.671875 0.515625 -1.46875 1.71875l0 7.531254l-2.9375 0l0 -11.906254l2.59375 0l0.109375 1.734375q0.28125 -0.453125 0.65625 -0.8125q0.375 -0.375 0.8125 -0.640625q0.453125 -0.265625 1.0 -0.40625q0.5625 -0.140625 1.21875 -0.140625q0.90625 0 1.59375 0.3125q0.703125 0.3125 1.171875 0.921875q0.484375 0.609375 0.703125 1.53125q0.234375 0.921875 0.203125 2.125l-2.875 0zm12.5390625 -7.890625q0 0.390625 -0.140625 0.734375q-0.140625 0.34375 -0.390625 0.59375q-0.25 0.25 -0.59375 0.40625q-0.34375 0.140625 -0.734375 0.140625q-0.40625 0 -0.75 -0.140625q-0.34375 -0.15625 -0.59375 -0.40625q-0.25 -0.25 -0.390625 -0.59375q-0.140625 -0.34375 -0.140625 -0.734375q0 -0.375 0.140625 -0.71875q0.140625 -0.34375 0.390625 -0.59375q0.25 -0.265625 0.59375 -0.40625q0.34375 -0.15625 0.75 -0.15625q0.390625 0 0.734375 0.15625q0.34375 0.140625 0.59375 0.40625q0.25 0.25 0.390625 0.59375q0.140625 0.34375 0.140625 0.71875zm-3.171875 5.484375l-3.359375 0l0 -2.21875l6.296875 0l0 9.671879l3.4375 0l0 2.234375l-10.140625 0l0 -2.234375l3.765625 0l0 -7.453129zm17.757812 9.687504l0 -8.109379q0 -0.453125 -0.03125 -0.78125q-0.015625 -0.328125 -0.09375 -0.546875q-0.0625 -0.234375 -0.203125 -0.34375q-0.125 -0.109375 -0.359375 -0.109375q-0.359375 0 -0.71875 0.5q-0.34375 0.484375 -0.796875 1.671875l0 7.718754l-2.453125 0l0 -8.109379q0 -0.453125 -0.03125 -0.78125q-0.015625 -0.328125 -0.09375 -0.546875q-0.0625 -0.234375 -0.203125 -0.34375q-0.140625 -0.109375 -0.375 -0.109375q-0.296875 0 -0.671875 0.5q-0.375 0.484375 -0.828125 1.671875l0 7.718754l-2.484375 0l0 -11.906254l2.125 0l0.046875 1.734375q0.265625 -0.53125 0.515625 -0.90625q0.265625 -0.375 0.546875 -0.609375q0.296875 -0.25 0.625 -0.34375q0.34375 -0.109375 0.765625 -0.109375q1.0 0 1.515625 0.53125q0.515625 0.515625 0.59375 1.4375q0.28125 -0.53125 0.546875 -0.90625q0.28125 -0.375 0.578125 -0.609375q0.296875 -0.25 0.640625 -0.34375q0.359375 -0.109375 0.78125 -0.109375q1.296875 0 1.90625 0.90625q0.625 0.90625 0.625 2.6875l0 8.546879l-2.46875 0zm15.5234375 -6.046875q0 1.40625 -0.40625 2.578125q-0.390625 1.15625 -1.140625 2.0q-0.75 0.828125 -1.84375 1.28125q-1.09375 0.453125 -2.484375 0.453125q-1.328125 0 -2.375 -0.375q-1.03125 -0.390625 -1.765625 -1.15625q-0.71875 -0.78125 -1.109375 -1.921875q-0.390625 -1.15625 -0.390625 -2.703125q0 -1.4062538 0.40625 -2.5625038q0.40625 -1.171875 1.15625 -1.984375q0.765625 -0.828125 1.84375 -1.28125q1.09375 -0.453125 2.46875 -0.453125q1.328125 0 2.375 0.40625q1.046875 0.390625 1.765625 1.171875q0.734375 0.765625 1.109375 1.90625q0.390625 1.140625 0.390625 2.6406288zm-2.984375 0.0625q0 -1.8437538 -0.703125 -2.7656288q-0.6875 -0.9375 -2.046875 -0.9375q-0.75 0 -1.28125 0.296875q-0.53125 0.28125 -0.875 0.796875q-0.328125 0.5 -0.484375 1.1875q-0.15625 0.671875 -0.15625 1.4531288q0 1.859375 0.75 2.8125q0.75 0.9375 2.046875 0.9375q0.71875 0 1.234375 -0.28125q0.53125 -0.296875 0.859375 -0.796875q0.328125 -0.515625 0.484375 -1.203125q0.171875 -0.703125 0.171875 -1.5zm15.2734375 2.484375q0 1.015625 -0.453125 1.734375q-0.453125 0.71875 -1.203125 1.171875q-0.734375 0.453125 -1.6875 0.65625q-0.9375 0.203125 -1.921875 0.203125q-1.3125 0 -2.375 -0.125q-1.046875 -0.109375 -1.984375 -0.359375l0 -2.578125q1.109375 0.46875 2.203125 0.671875q1.09375 0.203125 2.0625 0.203125q1.125 0 1.671875 -0.359375q0.5625 -0.359375 0.5625 -0.9375q0 -0.265625 -0.125 -0.484375q-0.109375 -0.21875 -0.4375 -0.421875q-0.3125 -0.21875 -0.90625 -0.421875q-0.578125 -0.21875 -1.53125 -0.5q-0.875 -0.234375 -1.546875 -0.546875q-0.65625 -0.3125 -1.09375 -0.7343788q-0.421875 -0.421875 -0.640625 -0.96875q-0.21875 -0.5625 -0.21875 -1.3125q0 -0.734375 0.328125 -1.375q0.328125 -0.640625 0.96875 -1.125q0.65625 -0.5 1.625 -0.78125q0.984375 -0.28125 2.28125 -0.28125q1.125 0 1.984375 0.125q0.875 0.109375 1.546875 0.25l0 2.34375q-1.015625 -0.328125 -1.921875 -0.46875q-0.890625 -0.140625 -1.765625 -0.140625q-0.890625 0 -1.421875 0.328125q-0.53125 0.3125 -0.53125 0.875q0 0.265625 0.109375 0.484375q0.109375 0.203125 0.40625 0.40625q0.3125 0.203125 0.875 0.421875q0.5625 0.203125 1.46875 0.46875q1.03125 0.296875 1.734375 0.625q0.703125 0.3281288 1.125 0.7500038q0.4375 0.421875 0.625 0.96875q0.1875 0.53125 0.1875 1.234375z" fill-rule="nonzero"/><path fill="#000000" fill-opacity="0.0" d="m114.926506 38.213192l116.22048 0l0 48.47244l-116.22048 0z" fill-rule="evenodd"/><path fill="#3c78d8" d="m128.61877 57.284443l0 -2.34375l9.671875 0l0 2.34375l-3.375 0l0 10.593754l3.375 0l0 2.375l-9.671875 0l0 -2.375l3.375 0l0 -10.593754l-3.375 0zm16.898438 -1.359375l-3.359375 0l0 -2.234375l6.296875 0l0 14.328129l3.4375 0l0 2.234375l-10.140625 0l0 -2.234375l3.765625 0l0 -12.093754zm16.523438 13.031254q-0.625 1.546875 -1.296875 2.703125q-0.671875 1.171875 -1.484375 1.953125q-0.8125 0.78125 -1.8125 1.171875q-0.984375 0.390625 -2.203125 0.390625q-0.296875 0 -0.640625 -0.03125q-0.34375 -0.03125 -0.71875 -0.078125l0 -2.4375q0.140625 0.03125 0.328125 0.0625q0.1875 0.03125 0.375 0.046875q0.203125 0.015625 0.40625 0.015625q0.203125 0.015625 0.390625 0.015625q0.484375 0 0.90625 -0.1875q0.421875 -0.1875 0.78125 -0.515625q0.359375 -0.328125 0.640625 -0.796875q0.296875 -0.46875 0.53125 -1.015625l-4.734375 -11.906254l3.1875 0l2.484375 6.750004l0.734375 2.171875l0.71875 -2.078125l2.5 -6.843754l3.078125 0l-4.171875 10.609379zm15.8515625 1.171875q-0.78125 0.1875 -1.5625 0.28125q-0.78125 0.109375 -1.484375 0.109375q-1.171875 0 -2.03125 -0.25q-0.84375 -0.234375 -1.40625 -0.734375q-0.546875 -0.515625 -0.8125 -1.296875q-0.265625 -0.78125 -0.265625 -1.859375l0 -5.812504l-3.203125 0l0 -2.21875l3.203125 0l0 -3.046875l2.9375 -0.765625l0 3.8125l4.625 0l0 2.21875l-4.625 0l0 5.609379q0 1.015625 0.46875 1.546875q0.46875 0.515625 1.5625 0.515625q0.703125 0 1.375 -0.109375q0.671875 -0.125 1.21875 -0.28125l0 2.28125zm10.4765625 0.125l0 -7.765629q0 -1.953125 -1.453125 -1.953125q-0.734375 0 -1.390625 0.59375q-0.65625 0.578125 -1.40625 1.59375l0 7.531254l-2.859375 0l0 -16.562504l2.859375 0l0 4.078125l-0.140625 2.15625q0.375 -0.4375 0.75 -0.78125q0.375 -0.34375 0.796875 -0.578125q0.4375 -0.234375 0.9375 -0.359375q0.515625 -0.125 1.125 -0.125q0.90625 0 1.578125 0.3125q0.6875 0.296875 1.140625 0.84375q0.46875 0.53125 0.6875 1.3125q0.234375 0.765625 0.234375 1.703125l0 8.000004l-2.859375 0zm13.1015625 -15.171879q0 0.390625 -0.140625 0.734375q-0.140625 0.34375 -0.390625 0.59375q-0.25 0.25 -0.59375 0.40625q-0.34375 0.140625 -0.734375 0.140625q-0.40625 0 -0.75 -0.140625q-0.34375 -0.15625 -0.59375 -0.40625q-0.25 -0.25 -0.390625 -0.59375q-0.140625 -0.34375 -0.140625 -0.734375q0 -0.375 0.140625 -0.71875q0.140625 -0.34375 0.390625 -0.59375q0.25 -0.265625 0.59375 -0.40625q0.34375 -0.15625 0.75 -0.15625q0.390625 0 0.734375 0.15625q0.34375 0.140625 0.59375 0.40625q0.25 0.25 0.390625 0.59375q0.140625 0.34375 0.140625 0.71875zm-3.171875 5.484375l-3.359375 0l0 -2.21875l6.296875 0l0 9.671879l3.4375 0l0 2.234375l-10.140625 0l0 -2.234375l3.765625 0l0 -7.453129zm16.820312 9.687504l-0.0625 -1.5625q-0.375 0.40625 -0.796875 0.734375q-0.40625 0.328125 -0.90625 0.578125q-0.484375 0.25 -1.0625 0.375q-0.578125 0.140625 -1.265625 0.140625q-0.921875 0 -1.609375 -0.265625q-0.6875 -0.265625 -1.15625 -0.75q-0.46875 -0.484375 -0.71875 -1.15625q-0.234375 -0.6875 -0.234375 -1.5q0 -0.84375 0.359375 -1.5625q0.359375 -0.71875 1.078125 -1.234375q0.734375 -0.5156288 1.828125 -0.7968788q1.109375 -0.296875 2.578125 -0.296875l1.5625 0l0 -0.71875q0 -0.453125 -0.140625 -0.828125q-0.125 -0.375 -0.40625 -0.625q-0.28125 -0.265625 -0.75 -0.40625q-0.453125 -0.140625 -1.125 -0.140625q-1.046875 0 -2.078125 0.25q-1.015625 0.234375 -1.984375 0.671875l0 -2.28125q0.859375 -0.34375 1.96875 -0.5625q1.125 -0.234375 2.328125 -0.234375q1.328125 0 2.28125 0.265625q0.953125 0.25 1.5625 0.75q0.609375 0.5 0.90625 1.265625q0.296875 0.75 0.296875 1.75l0 8.140629l-2.453125 0zm-0.40625 -5.265625l-1.75 0q-0.71875 0 -1.234375 0.140625q-0.5 0.140625 -0.8125 0.390625q-0.3125 0.25 -0.46875 0.578125q-0.140625 0.3125 -0.140625 0.671875q0 0.734375 0.46875 1.109375q0.46875 0.375 1.28125 0.375q0.59375 0 1.234375 -0.421875q0.640625 -0.4375 1.421875 -1.25l0 -1.59375z" fill-rule="nonzero"/><path fill="#000000" fill-opacity="0.0" d="m292.43558 86.68563l0 252.12598l48.44095 0" fill-rule="evenodd"/><path stroke="#4a86e8" stroke-width="1.0" stroke-linejoin="round" stroke-linecap="butt" stroke-dasharray="4.0,3.0" d="m292.43558 86.68563l0 252.12598l48.44095 0" fill-rule="evenodd"/><path fill="#000000" fill-opacity="0.0" d="m173.03674 86.68563l0 237.66928l-60.06299 0" fill-rule="evenodd"/><path stroke="#4a86e8" stroke-width="1.0" stroke-linejoin="round" stroke-linecap="butt" stroke-dasharray="4.0,3.0" d="m173.03674 86.68563l0 237.66928l-60.06299 0" fill-rule="evenodd"/><path fill="#000000" fill-opacity="0.0" d="m233.11598 159.64961l0 96.30917l0.06300354 0l0 96.320755" fill-rule="evenodd"/><path stroke="#4a86e8" stroke-width="1.0" stroke-linejoin="round" stroke-linecap="butt" stroke-dasharray="4.0,3.0" d="m233.11598 159.64961l0 96.30917l0.06300354 0l0 96.320755" fill-rule="evenodd"/><path fill="#000000" fill-opacity="0.0" d="m368.8491 162.67455l0 92.228836l0.06298828 0l0 92.24359" fill-rule="evenodd"/><path stroke="#4a86e8" stroke-width="1.0" stroke-linejoin="round" stroke-linecap="butt" stroke-dasharray="4.0,3.0" d="m368.8491 162.67455l0 92.228836l0.06298828 0l0 92.24359" fill-rule="evenodd"/><path fill="#000000" fill-opacity="0.0" d="m511.43933 86.68563l0 125.545815l0.06298828 0l0 125.5408" fill-rule="evenodd"/><path stroke="#4a86e8" stroke-width="1.0" stroke-linejoin="round" stroke-linecap="butt" stroke-dasharray="4.0,3.0" d="m511.43933 86.68563l0 125.545815l0.06298828 0l0 125.5408" fill-rule="evenodd"/><path fill="#000000" fill-opacity="0.0" d="m520.3399 114.20079l116.22046 0l0 48.472443l-116.22046 0z" fill-rule="evenodd"/><path fill="#3c78d8" d="m540.76654 146.24078l-3.828125 0l-4.671875 -15.3125l3.265625 0l2.59375 9.21875l0.828125 3.015625l0.875 -3.1875l2.5625 -9.046875l3.078125 0l-4.703125 15.3125zm13.4921875 -1.296875q-0.625 1.546875 -1.296875 2.703125q-0.671875 1.171875 -1.484375 1.953125q-0.8125 0.78125 -1.8125 1.171875q-0.984375 0.390625 -2.203125 0.390625q-0.296875 0 -0.640625 -0.03125q-0.34375 -0.03125 -0.71875 -0.078125l0 -2.4375q0.140625 0.03125 0.328125 0.0625q0.1875 0.03125 0.375 0.046875q0.203125 0.015625 0.40625 0.015625q0.203125 0.015625 0.390625 0.015625q0.484375 0 0.90625 -0.1875q0.421875 -0.1875 0.78125 -0.515625q0.359375 -0.328125 0.640625 -0.796875q0.296875 -0.46875 0.53125 -1.015625l-4.734375 -11.90625l3.1875 0l2.484375 6.75l0.734375 2.171875l0.71875 -2.078125l2.5 -6.84375l3.078125 0l-4.171875 10.609375zm15.8515625 -2.203125q0 1.015625 -0.453125 1.734375q-0.453125 0.71875 -1.203125 1.171875q-0.734375 0.453125 -1.6875 0.65625q-0.9375 0.203125 -1.921875 0.203125q-1.3125 0 -2.375 -0.125q-1.046875 -0.109375 -1.984375 -0.359375l0 -2.578125q1.109375 0.46875 2.203125 0.671875q1.09375 0.203125 2.0625 0.203125q1.125 0 1.671875 -0.359375q0.5625 -0.359375 0.5625 -0.9375q0 -0.265625 -0.125 -0.484375q-0.109375 -0.21875 -0.4375 -0.421875q-0.3125 -0.21875 -0.90625 -0.421875q-0.578125 -0.21875 -1.53125 -0.5q-0.875 -0.234375 -1.546875 -0.546875q-0.65625 -0.3125 -1.09375 -0.734375q-0.421875 -0.421875 -0.640625 -0.96875q-0.21875 -0.5625 -0.21875 -1.3125q0 -0.734375 0.328125 -1.375q0.328125 -0.640625 0.96875 -1.125q0.65625 -0.5 1.625 -0.78125q0.984375 -0.28125 2.28125 -0.28125q1.125 0 1.984375 0.125q0.875 0.109375 1.546875 0.25l0 2.34375q-1.015625 -0.328125 -1.921875 -0.46875q-0.890625 -0.140625 -1.765625 -0.140625q-0.890625 0 -1.421875 0.328125q-0.53125 0.3125 -0.53125 0.875q0 0.265625 0.109375 0.484375q0.109375 0.203125 0.40625 0.40625q0.3125 0.203125 0.875 0.421875q0.5625 0.203125 1.46875 0.46875q1.03125 0.296875 1.734375 0.625q0.703125 0.328125 1.125 0.75q0.4375 0.421875 0.625 0.96875q0.1875 0.53125 0.1875 1.234375zm13.1953125 0q0 1.015625 -0.453125 1.734375q-0.453125 0.71875 -1.203125 1.171875q-0.734375 0.453125 -1.6875 0.65625q-0.9375 0.203125 -1.921875 0.203125q-1.3125 0 -2.375 -0.125q-1.046875 -0.109375 -1.984375 -0.359375l0 -2.578125q1.109375 0.46875 2.203125 0.671875q1.09375 0.203125 2.0625 0.203125q1.125 0 1.671875 -0.359375q0.5625 -0.359375 0.5625 -0.9375q0 -0.265625 -0.125 -0.484375q-0.109375 -0.21875 -0.4375 -0.421875q-0.3125 -0.21875 -0.90625 -0.421875q-0.578125 -0.21875 -1.53125 -0.5q-0.875 -0.234375 -1.546875 -0.546875q-0.65625 -0.3125 -1.09375 -0.734375q-0.421875 -0.421875 -0.640625 -0.96875q-0.21875 -0.5625 -0.21875 -1.3125q0 -0.734375 0.328125 -1.375q0.328125 -0.640625 0.96875 -1.125q0.65625 -0.5 1.625 -0.78125q0.984375 -0.28125 2.28125 -0.28125q1.125 0 1.984375 0.125q0.875 0.109375 1.546875 0.25l0 2.34375q-1.015625 -0.328125 -1.921875 -0.46875q-0.890625 -0.140625 -1.765625 -0.140625q-0.890625 0 -1.421875 0.328125q-0.53125 0.3125 -0.53125 0.875q0 0.265625 0.109375 0.484375q0.109375 0.203125 0.40625 0.40625q0.3125 0.203125 0.875 0.421875q0.5625 0.203125 1.46875 0.46875q1.03125 0.296875 1.734375 0.625q0.703125 0.328125 1.125 0.75q0.4375 0.421875 0.625 0.96875q0.1875 0.53125 0.1875 1.234375zm10.3828125 -11.671875q0 0.390625 -0.140625 0.734375q-0.140625 0.34375 -0.390625 0.59375q-0.25 0.25 -0.59375 0.40625q-0.34375 0.140625 -0.734375 0.140625q-0.40625 0 -0.75 -0.140625q-0.34375 -0.15625 -0.59375 -0.40625q-0.25 -0.25 -0.390625 -0.59375q-0.140625 -0.34375 -0.140625 -0.734375q0 -0.375 0.140625 -0.71875q0.140625 -0.34375 0.390625 -0.59375q0.25 -0.265625 0.59375 -0.40625q0.34375 -0.15625 0.75 -0.15625q0.390625 0 0.734375 0.15625q0.34375 0.140625 0.59375 0.40625q0.25 0.25 0.390625 0.59375q0.140625 0.34375 0.140625 0.71875zm-3.171875 5.484375l-3.359375 0l0 -2.21875l6.296875 0l0 9.671875l3.4375 0l0 2.234375l-10.140625 0l0 -2.234375l3.765625 0l0 -7.453125zm16.460938 9.6875l0 -7.765625q0 -1.953125 -1.453125 -1.953125q-0.734375 0 -1.390625 0.59375q-0.65625 0.578125 -1.40625 1.59375l0 7.53125l-2.859375 0l0 -11.90625l2.484375 0l0.0625 1.75q0.359375 -0.453125 0.75 -0.828125q0.40625 -0.375 0.859375 -0.640625q0.453125 -0.265625 0.984375 -0.40625q0.53125 -0.140625 1.1875 -0.140625q0.90625 0 1.578125 0.3125q0.6875 0.296875 1.140625 0.84375q0.46875 0.53125 0.6875 1.3125q0.234375 0.765625 0.234375 1.703125l0 8.0l-2.859375 0zm13.1015625 -15.171875q0 0.390625 -0.140625 0.734375q-0.140625 0.34375 -0.390625 0.59375q-0.25 0.25 -0.59375 0.40625q-0.34375 0.140625 -0.734375 0.140625q-0.40625 0 -0.75 -0.140625q-0.34375 -0.15625 -0.59375 -0.40625q-0.25 -0.25 -0.390625 -0.59375q-0.140625 -0.34375 -0.140625 -0.734375q0 -0.375 0.140625 -0.71875q0.140625 -0.34375 0.390625 -0.59375q0.25 -0.265625 0.59375 -0.40625q0.34375 -0.15625 0.75 -0.15625q0.390625 0 0.734375 0.15625q0.34375 0.140625 0.59375 0.40625q0.25 0.25 0.390625 0.59375q0.140625 0.34375 0.140625 0.71875zm-3.171875 5.484375l-3.359375 0l0 -2.21875l6.296875 0l0 9.671875l3.4375 0l0 2.234375l-10.140625 0l0 -2.234375l3.765625 0l0 -7.453125z" fill-rule="nonzero"/><path fill="#000000" fill-opacity="0.0" d="m578.45013 162.67323l0 79.18109l61.44879 0" fill-rule="evenodd"/><path stroke="#4a86e8" stroke-width="1.0" stroke-linejoin="round" stroke-linecap="butt" stroke-dasharray="4.0,3.0" d="m578.45013 162.67323l0 79.18109l61.44879 0" fill-rule="evenodd"/><path fill="#000000" fill-opacity="0.0" d="m594.84735 38.212246l116.22046 0l0 48.47244l-116.22046 0z" fill-rule="evenodd"/><path fill="#3c78d8" d="m607.99274 70.25225l0 -2.1875l7.015625 -10.515629l-6.796875 0l0 -2.609375l10.453125 0l0 2.34375l-7.0625 10.359379l7.15625 0l0 2.609375l-10.765625 0zm24.335938 -6.046875q0 1.40625 -0.40625 2.578125q-0.390625 1.15625 -1.140625 2.0q-0.75 0.828125 -1.84375 1.28125q-1.09375 0.453125 -2.484375 0.453125q-1.328125 0 -2.375 -0.375q-1.03125 -0.390625 -1.765625 -1.15625q-0.71875 -0.78125 -1.109375 -1.921875q-0.390625 -1.15625 -0.390625 -2.703125q0 -1.4062538 0.40625 -2.5625038q0.40625 -1.171875 1.15625 -1.984375q0.765625 -0.828125 1.84375 -1.28125q1.09375 -0.453125 2.46875 -0.453125q1.328125 0 2.375 0.40625q1.046875 0.390625 1.765625 1.171875q0.734375 0.765625 1.109375 1.90625q0.390625 1.140625 0.390625 2.6406288zm-2.984375 0.0625q0 -1.8437538 -0.703125 -2.7656288q-0.6875 -0.9375 -2.046875 -0.9375q-0.75 0 -1.28125 0.296875q-0.53125 0.28125 -0.875 0.796875q-0.328125 0.5 -0.484375 1.1875q-0.15625 0.671875 -0.15625 1.4531288q0 1.859375 0.75 2.8125q0.75 0.9375 2.046875 0.9375q0.71875 0 1.234375 -0.28125q0.53125 -0.296875 0.859375 -0.796875q0.328125 -0.515625 0.484375 -1.203125q0.171875 -0.703125 0.171875 -1.5zm8.2890625 -5.921879l0 7.750004q0 0.984375 0.359375 1.484375q0.359375 0.484375 1.109375 0.484375q0.703125 0 1.359375 -0.578125q0.671875 -0.59375 1.40625 -1.609375l0 -7.531254l2.859375 0l0 11.906254l-2.46875 0l-0.0625 -1.765625q-0.375 0.46875 -0.765625 0.84375q-0.390625 0.375 -0.84375 0.640625q-0.453125 0.25 -0.984375 0.390625q-0.53125 0.15625 -1.171875 0.15625q-0.921875 0 -1.609375 -0.296875q-0.671875 -0.296875 -1.140625 -0.84375q-0.453125 -0.5625 -0.6875 -1.328125q-0.21875 -0.765625 -0.21875 -1.71875l0 -7.984379l2.859375 0zm17.460938 11.906254l0 -7.765629q0 -1.953125 -1.453125 -1.953125q-0.734375 0 -1.390625 0.59375q-0.65625 0.578125 -1.40625 1.59375l0 7.531254l-2.859375 0l0 -11.906254l2.484375 0l0.0625 1.75q0.359375 -0.453125 0.75 -0.828125q0.40625 -0.375 0.859375 -0.640625q0.453125 -0.265625 0.984375 -0.40625q0.53125 -0.140625 1.1875 -0.140625q0.90625 0 1.578125 0.3125q0.6875 0.296875 1.140625 0.84375q0.46875 0.53125 0.6875 1.3125q0.234375 0.765625 0.234375 1.703125l0 8.000004l-2.859375 0zm13.4609375 0l-4.390625 -5.953125l0 5.953125l-2.859375 0l0 -16.562504l2.859375 0l0 9.6875l4.15625 -5.03125l3.578125 0l-4.828125 5.421875l5.21875 6.484379l-3.734375 0zm9.6640625 -14.328129l-3.359375 0l0 -2.234375l6.296875 0l0 14.328129l3.4375 0l0 2.234375l-10.140625 0l0 -2.234375l3.765625 0l0 -12.093754zm16.820312 14.328129l-0.0625 -1.5625q-0.375 0.40625 -0.796875 0.734375q-0.40625 0.328125 -0.90625 0.578125q-0.484375 0.25 -1.0625 0.375q-0.578125 0.140625 -1.265625 0.140625q-0.921875 0 -1.609375 -0.265625q-0.6875 -0.265625 -1.15625 -0.75q-0.46875 -0.484375 -0.71875 -1.15625q-0.234375 -0.6875 -0.234375 -1.5q0 -0.84375 0.359375 -1.5625q0.359375 -0.71875 1.078125 -1.234375q0.734375 -0.5156288 1.828125 -0.7968788q1.109375 -0.296875 2.578125 -0.296875l1.5625 0l0 -0.71875q0 -0.453125 -0.140625 -0.828125q-0.125 -0.375 -0.40625 -0.625q-0.28125 -0.265625 -0.75 -0.40625q-0.453125 -0.140625 -1.125 -0.140625q-1.046875 0 -2.078125 0.25q-1.015625 0.234375 -1.984375 0.671875l0 -2.28125q0.859375 -0.34375 1.96875 -0.5625q1.125 -0.234375 2.328125 -0.234375q1.328125 0 2.28125 0.265625q0.953125 0.25 1.5625 0.75q0.609375 0.5 0.90625 1.265625q0.296875 0.75 0.296875 1.75l0 8.140629l-2.453125 0zm-0.40625 -5.265625l-1.75 0q-0.71875 0 -1.234375 0.140625q-0.5 0.140625 -0.8125 0.390625q-0.3125 0.25 -0.46875 0.578125q-0.140625 0.3125 -0.140625 0.671875q0 0.734375 0.46875 1.109375q0.46875 0.375 1.28125 0.375q0.59375 0 1.234375 -0.421875q0.640625 -0.4375 1.421875 -1.25l0 -1.59375z" fill-rule="nonzero"/><path fill="#000000" fill-opacity="0.0" d="m652.9576 86.684685l0 115.74804l25.165344 0" fill-rule="evenodd"/><path stroke="#4a86e8" stroke-width="1.0" stroke-linejoin="round" stroke-linecap="butt" stroke-dasharray="4.0,3.0" d="m652.9576 86.684685l0 115.74804l25.165344 0" fill-rule="evenodd"/><path fill="#000000" fill-opacity="0.0" d="m706.9672 38.213192l175.02362 0l0 48.47244l-175.02362 0z" fill-rule="evenodd"/><path fill="#3c78d8" d="m758.4205 70.2532l-0.28125 -8.656254l-0.109375 -3.46875l-0.734375 2.34375l-1.703125 5.218754l-1.796875 0l-1.53125 -5.218754l-0.65625 -2.34375l-0.078125 3.390625l-0.25 8.734379l-2.453125 0l0.75 -15.312504l3.25 0l1.359375 4.34375l0.640625 2.453125l0.640625 -2.3125l1.421875 -4.484375l3.3125 0l0.765625 15.312504l-2.546875 0zm15.0703125 -6.875004q0 0.296875 -0.015625 0.7656288q-0.015625 0.46875 -0.046875 0.875l-7.828125 0q0 0.796875 0.234375 1.390625q0.234375 0.59375 0.671875 1.0q0.453125 0.40625 1.0625 0.625q0.609375 0.203125 1.359375 0.203125q0.875 0 1.859375 -0.125q1.0 -0.140625 2.0625 -0.453125l0 2.28125q-0.453125 0.125 -1.0 0.234375q-0.53125 0.109375 -1.09375 0.1875q-0.5625 0.078125 -1.140625 0.109375q-0.578125 0.046875 -1.109375 0.046875q-1.359375 0 -2.4375 -0.375q-1.078125 -0.390625 -1.828125 -1.140625q-0.75 -0.765625 -1.15625 -1.875q-0.390625 -1.125 -0.390625 -2.578125q0 -1.4531288 0.390625 -2.6406288q0.40625 -1.203125 1.125 -2.046875q0.734375 -0.84375 1.765625 -1.3125q1.03125 -0.46875 2.3125 -0.46875q1.265625 0 2.234375 0.40625q0.984375 0.390625 1.640625 1.09375q0.65625 0.703125 0.984375 1.671875q0.34375 0.96875 0.34375 2.125zm-2.90625 -0.40625q0.015625 -0.703125 -0.171875 -1.21875q-0.1875 -0.53125 -0.515625 -0.859375q-0.3125 -0.34375 -0.75 -0.5q-0.421875 -0.171875 -0.921875 -0.171875q-1.078125 0 -1.765625 0.71875q-0.6875 0.71875 -0.8125 2.03125l4.9375 0zm14.6640625 -2.546875q0.328125 0.421875 0.453125 0.875q0.140625 0.4375 0.140625 0.90625q0 1.0 -0.34375 1.765625q-0.34375 0.7656288 -0.96875 1.2812538q-0.625 0.515625 -1.5 0.78125q-0.875 0.25 -1.9375 0.25q-0.609375 0 -1.140625 -0.109375q-0.53125 -0.125 -0.796875 -0.296875q-0.203125 0.203125 -0.34375 0.453125q-0.140625 0.234375 -0.140625 0.53125q0 0.1875 0.09375 0.375q0.09375 0.1875 0.265625 0.34375q0.1875 0.140625 0.4375 0.234375q0.265625 0.09375 0.578125 0.109375l2.828125 0.09375q0.9375 0.03125 1.703125 0.25q0.78125 0.21875 1.328125 0.625q0.546875 0.390625 0.84375 0.96875q0.296875 0.5625 0.296875 1.28125q0 0.828125 -0.375 1.5625q-0.375 0.75 -1.125 1.296875q-0.75 0.546875 -1.875 0.859375q-1.125 0.3125 -2.625 0.3125q-1.4375 0 -2.484375 -0.234375q-1.03125 -0.21875 -1.6875 -0.640625q-0.65625 -0.40625 -0.984375 -0.96875q-0.3125 -0.5625 -0.3125 -1.25q0 -0.40625 0.109375 -0.765625q0.109375 -0.34375 0.3125 -0.671875q0.21875 -0.3125 0.53125 -0.625q0.3125 -0.3125 0.75 -0.609375q-0.578125 -0.328125 -0.875 -0.84375q-0.296875 -0.515625 -0.296875 -1.109375q0 -0.390625 0.09375 -0.734375q0.109375 -0.34375 0.28125 -0.65625q0.171875 -0.328125 0.390625 -0.609375q0.234375 -0.296875 0.46875 -0.578125q-0.421875 -0.4375 -0.71875 -1.0468788q-0.28125 -0.625 -0.28125 -1.546875q0 -1.0 0.359375 -1.78125q0.359375 -0.78125 0.984375 -1.3125q0.640625 -0.53125 1.5 -0.796875q0.875 -0.28125 1.90625 -0.28125q0.53125 0 1.015625 0.0625q0.484375 0.046875 0.890625 0.171875l4.125 0l0 2.078125l-1.875 0zm-6.734375 11.406254q0 0.703125 0.6875 1.03125q0.703125 0.328125 1.96875 0.328125q0.8125 0 1.359375 -0.15625q0.5625 -0.15625 0.90625 -0.40625q0.359375 -0.234375 0.5 -0.5625q0.15625 -0.328125 0.15625 -0.6875q0 -0.3125 -0.140625 -0.53125q-0.140625 -0.21875 -0.40625 -0.375q-0.265625 -0.140625 -0.625 -0.21875q-0.359375 -0.078125 -0.796875 -0.09375l-2.515625 -0.046875q-0.34375 0.234375 -0.5625 0.4375q-0.203125 0.21875 -0.328125 0.421875q-0.125 0.203125 -0.171875 0.40625q-0.03125 0.21875 -0.03125 0.453125zm0.46875 -9.546879q0 0.953125 0.5625 1.515625q0.5625 0.5468788 1.546875 0.5468788q0.53125 0 0.921875 -0.171875q0.390625 -0.18750381 0.640625 -0.4687538q0.265625 -0.296875 0.390625 -0.6875q0.140625 -0.390625 0.140625 -0.8125q0 -0.984375 -0.5625 -1.546875q-0.546875 -0.5625 -1.546875 -0.5625q-0.53125 0 -0.921875 0.1875q-0.390625 0.171875 -0.65625 0.46875q-0.25 0.296875 -0.390625 0.703125q-0.125 0.390625 -0.125 0.828125zm17.992188 7.968754l-0.0625 -1.5625q-0.375 0.40625 -0.796875 0.734375q-0.40625 0.328125 -0.90625 0.578125q-0.484375 0.25 -1.0625 0.375q-0.578125 0.140625 -1.265625 0.140625q-0.921875 0 -1.609375 -0.265625q-0.6875 -0.265625 -1.15625 -0.75q-0.46875 -0.484375 -0.71875 -1.15625q-0.234375 -0.6875 -0.234375 -1.5q0 -0.84375 0.359375 -1.5625q0.359375 -0.71875 1.078125 -1.234375q0.734375 -0.5156288 1.828125 -0.7968788q1.109375 -0.296875 2.578125 -0.296875l1.5625 0l0 -0.71875q0 -0.453125 -0.140625 -0.828125q-0.125 -0.375 -0.40625 -0.625q-0.28125 -0.265625 -0.75 -0.40625q-0.453125 -0.140625 -1.125 -0.140625q-1.046875 0 -2.078125 0.25q-1.015625 0.234375 -1.984375 0.671875l0 -2.28125q0.859375 -0.34375 1.96875 -0.5625q1.125 -0.234375 2.328125 -0.234375q1.328125 0 2.28125 0.265625q0.953125 0.25 1.5625 0.75q0.609375 0.5 0.90625 1.265625q0.296875 0.75 0.296875 1.75l0 8.140629l-2.453125 0zm-0.40625 -5.265625l-1.75 0q-0.71875 0 -1.234375 0.140625q-0.5 0.140625 -0.8125 0.390625q-0.3125 0.25 -0.46875 0.578125q-0.140625 0.3125 -0.140625 0.671875q0 0.734375 0.46875 1.109375q0.46875 0.375 1.28125 0.375q0.59375 0 1.234375 -0.421875q0.640625 -0.4375 1.421875 -1.25l0 -1.59375zm9.9765625 -9.062504l-3.359375 0l0 -2.234375l6.296875 0l0 14.328129l3.4375 0l0 2.234375l-10.140625 0l0 -2.234375l3.765625 0l0 -12.093754zm20.085938 8.281254q0 1.40625 -0.40625 2.578125q-0.390625 1.15625 -1.140625 2.0q-0.75 0.828125 -1.84375 1.28125q-1.09375 0.453125 -2.484375 0.453125q-1.328125 0 -2.375 -0.375q-1.03125 -0.390625 -1.765625 -1.15625q-0.71875 -0.78125 -1.109375 -1.921875q-0.390625 -1.15625 -0.390625 -2.703125q0 -1.4062538 0.40625 -2.5625038q0.40625 -1.171875 1.15625 -1.984375q0.765625 -0.828125 1.84375 -1.28125q1.09375 -0.453125 2.46875 -0.453125q1.328125 0 2.375 0.40625q1.046875 0.390625 1.765625 1.171875q0.734375 0.765625 1.109375 1.90625q0.390625 1.140625 0.390625 2.6406288zm-2.984375 0.0625q0 -1.8437538 -0.703125 -2.7656288q-0.6875 -0.9375 -2.046875 -0.9375q-0.75 0 -1.28125 0.296875q-0.53125 0.28125 -0.875 0.796875q-0.328125 0.5 -0.484375 1.1875q-0.15625 0.671875 -0.15625 1.4531288q0 1.859375 0.75 2.8125q0.75 0.9375 2.046875 0.9375q0.71875 0 1.234375 -0.28125q0.53125 -0.296875 0.859375 -0.796875q0.328125 -0.515625 0.484375 -1.203125q0.171875 -0.703125 0.171875 -1.5zm15.2734375 2.484375q0 1.015625 -0.453125 1.734375q-0.453125 0.71875 -1.203125 1.171875q-0.734375 0.453125 -1.6875 0.65625q-0.9375 0.203125 -1.921875 0.203125q-1.3125 0 -2.375 -0.125q-1.046875 -0.109375 -1.984375 -0.359375l0 -2.578125q1.109375 0.46875 2.203125 0.671875q1.09375 0.203125 2.0625 0.203125q1.125 0 1.671875 -0.359375q0.5625 -0.359375 0.5625 -0.9375q0 -0.265625 -0.125 -0.484375q-0.109375 -0.21875 -0.4375 -0.421875q-0.3125 -0.21875 -0.90625 -0.421875q-0.578125 -0.21875 -1.53125 -0.5q-0.875 -0.234375 -1.546875 -0.546875q-0.65625 -0.3125 -1.09375 -0.7343788q-0.421875 -0.421875 -0.640625 -0.96875q-0.21875 -0.5625 -0.21875 -1.3125q0 -0.734375 0.328125 -1.375q0.328125 -0.640625 0.96875 -1.125q0.65625 -0.5 1.625 -0.78125q0.984375 -0.28125 2.28125 -0.28125q1.125 0 1.984375 0.125q0.875 0.109375 1.546875 0.25l0 2.34375q-1.015625 -0.328125 -1.921875 -0.46875q-0.890625 -0.140625 -1.765625 -0.140625q-0.890625 0 -1.421875 0.328125q-0.53125 0.3125 -0.53125 0.875q0 0.265625 0.109375 0.484375q0.109375 0.203125 0.40625 0.40625q0.3125 0.203125 0.875 0.421875q0.5625 0.203125 1.46875 0.46875q1.03125 0.296875 1.734375 0.625q0.703125 0.3281288 1.125 0.7500038q0.4375 0.421875 0.625 0.96875q0.1875 0.53125 0.1875 1.234375z" fill-rule="nonzero"/><path fill="#000000" fill-opacity="0.0" d="m794.47906 86.68563l0 60.41308l0.06298828 0l0 60.405823" fill-rule="evenodd"/><path stroke="#4a86e8" stroke-width="1.0" stroke-linejoin="round" stroke-linecap="butt" stroke-dasharray="4.0,3.0" d="m794.47906 86.68563l0 60.41308l0.06298828 0l0 60.405823" fill-rule="evenodd"/><path fill="#000000" fill-opacity="0.0" d="m1017.2662 38.213192l175.02362 0l0 48.47244l-175.02362 0z" fill-rule="evenodd"/><path fill="#3c78d8" d="m1054.4459 70.2532l-4.609375 -7.406254l0 7.406254l-2.921875 0l0 -15.312504l2.921875 0l0 6.96875l4.59375 -6.96875l3.46875 0l-5.203125 7.296875l5.484375 8.015629l-3.734375 0zm13.2421875 0l-0.0625 -1.5625q-0.375 0.40625 -0.796875 0.734375q-0.40625 0.328125 -0.90625 0.578125q-0.484375 0.25 -1.0625 0.375q-0.578125 0.140625 -1.265625 0.140625q-0.921875 0 -1.609375 -0.265625q-0.6875 -0.265625 -1.15625 -0.75q-0.46875 -0.484375 -0.71875 -1.15625q-0.234375 -0.6875 -0.234375 -1.5q0 -0.84375 0.359375 -1.5625q0.359375 -0.71875 1.078125 -1.234375q0.734375 -0.5156288 1.828125 -0.7968788q1.109375 -0.296875 2.578125 -0.296875l1.5625 0l0 -0.71875q0 -0.453125 -0.140625 -0.828125q-0.125 -0.375 -0.40625 -0.625q-0.28125 -0.265625 -0.75 -0.40625q-0.453125 -0.140625 -1.125 -0.140625q-1.046875 0 -2.078125 0.25q-1.015625 0.234375 -1.984375 0.671875l0 -2.28125q0.859375 -0.34375 1.96875 -0.5625q1.125 -0.234375 2.328125 -0.234375q1.328125 0 2.28125 0.265625q0.953125 0.25 1.5625 0.75q0.609375 0.5 0.90625 1.265625q0.296875 0.75 0.296875 1.75l0 8.140629l-2.453125 0zm-0.40625 -5.265625l-1.75 0q-0.71875 0 -1.234375 0.140625q-0.5 0.140625 -0.8125 0.390625q-0.3125 0.25 -0.46875 0.578125q-0.140625 0.3125 -0.140625 0.671875q0 0.734375 0.46875 1.109375q0.46875 0.375 1.28125 0.375q0.59375 0 1.234375 -0.421875q0.640625 -0.4375 1.421875 -1.25l0 -1.59375zm15.9609375 5.140625q-0.78125 0.1875 -1.5625 0.28125q-0.78125 0.109375 -1.484375 0.109375q-1.171875 0 -2.03125 -0.25q-0.84375 -0.234375 -1.40625 -0.734375q-0.546875 -0.515625 -0.8125 -1.296875q-0.265625 -0.78125 -0.265625 -1.859375l0 -5.812504l-3.203125 0l0 -2.21875l3.203125 0l0 -3.046875l2.9375 -0.765625l0 3.8125l4.625 0l0 2.21875l-4.625 0l0 5.609379q0 1.015625 0.46875 1.546875q0.46875 0.515625 1.5625 0.515625q0.703125 0 1.375 -0.109375q0.671875 -0.125 1.21875 -0.28125l0 2.28125zm10.8359375 0.125l-0.0625 -1.5625q-0.375 0.40625 -0.796875 0.734375q-0.40625 0.328125 -0.90625 0.578125q-0.484375 0.25 -1.0625 0.375q-0.578125 0.140625 -1.265625 0.140625q-0.921875 0 -1.609375 -0.265625q-0.6875 -0.265625 -1.15625 -0.75q-0.46875 -0.484375 -0.71875 -1.15625q-0.234375 -0.6875 -0.234375 -1.5q0 -0.84375 0.359375 -1.5625q0.359375 -0.71875 1.078125 -1.234375q0.734375 -0.5156288 1.828125 -0.7968788q1.109375 -0.296875 2.578125 -0.296875l1.5625 0l0 -0.71875q0 -0.453125 -0.140625 -0.828125q-0.125 -0.375 -0.40625 -0.625q-0.28125 -0.265625 -0.75 -0.40625q-0.453125 -0.140625 -1.125 -0.140625q-1.046875 0 -2.078125 0.25q-1.015625 0.234375 -1.984375 0.671875l0 -2.28125q0.859375 -0.34375 1.96875 -0.5625q1.125 -0.234375 2.328125 -0.234375q1.328125 0 2.28125 0.265625q0.953125 0.25 1.5625 0.75q0.609375 0.5 0.90625 1.265625q0.296875 0.75 0.296875 1.75l0 8.140629l-2.453125 0zm-0.40625 -5.265625l-1.75 0q-0.71875 0 -1.234375 0.140625q-0.5 0.140625 -0.8125 0.390625q-0.3125 0.25 -0.46875 0.578125q-0.140625 0.3125 -0.140625 0.671875q0 0.734375 0.46875 1.109375q0.46875 0.375 1.28125 0.375q0.59375 0 1.234375 -0.421875q0.640625 -0.4375 1.421875 -1.25l0 -1.59375zm15.0703125 -4.562504q0.328125 0.421875 0.453125 0.875q0.140625 0.4375 0.140625 0.90625q0 1.0 -0.34375 1.765625q-0.34375 0.7656288 -0.96875 1.2812538q-0.625 0.515625 -1.5 0.78125q-0.875 0.25 -1.9375 0.25q-0.609375 0 -1.140625 -0.109375q-0.53125 -0.125 -0.796875 -0.296875q-0.203125 0.203125 -0.34375 0.453125q-0.140625 0.234375 -0.140625 0.53125q0 0.1875 0.09375 0.375q0.09375 0.1875 0.265625 0.34375q0.1875 0.140625 0.4375 0.234375q0.265625 0.09375 0.578125 0.109375l2.828125 0.09375q0.9375 0.03125 1.703125 0.25q0.78125 0.21875 1.328125 0.625q0.546875 0.390625 0.84375 0.96875q0.296875 0.5625 0.296875 1.28125q0 0.828125 -0.375 1.5625q-0.375 0.75 -1.125 1.296875q-0.75 0.546875 -1.875 0.859375q-1.125 0.3125 -2.625 0.3125q-1.4375 0 -2.484375 -0.234375q-1.03125 -0.21875 -1.6875 -0.640625q-0.65625 -0.40625 -0.984375 -0.96875q-0.3125 -0.5625 -0.3125 -1.25q0 -0.40625 0.109375 -0.765625q0.109375 -0.34375 0.3125 -0.671875q0.21875 -0.3125 0.53125 -0.625q0.3125 -0.3125 0.75 -0.609375q-0.578125 -0.328125 -0.875 -0.84375q-0.296875 -0.515625 -0.296875 -1.109375q0 -0.390625 0.09375 -0.734375q0.109375 -0.34375 0.28125 -0.65625q0.171875 -0.328125 0.390625 -0.609375q0.234375 -0.296875 0.46875 -0.578125q-0.421875 -0.4375 -0.71875 -1.0468788q-0.28125 -0.625 -0.28125 -1.546875q0 -1.0 0.359375 -1.78125q0.359375 -0.78125 0.984375 -1.3125q0.640625 -0.53125 1.5 -0.796875q0.875 -0.28125 1.90625 -0.28125q0.53125 0 1.015625 0.0625q0.484375 0.046875 0.890625 0.171875l4.125 0l0 2.078125l-1.875 0zm-6.734375 11.406254q0 0.703125 0.6875 1.03125q0.703125 0.328125 1.96875 0.328125q0.8125 0 1.359375 -0.15625q0.5625 -0.15625 0.90625 -0.40625q0.359375 -0.234375 0.5 -0.5625q0.15625 -0.328125 0.15625 -0.6875q0 -0.3125 -0.140625 -0.53125q-0.140625 -0.21875 -0.40625 -0.375q-0.265625 -0.140625 -0.625 -0.21875q-0.359375 -0.078125 -0.796875 -0.09375l-2.515625 -0.046875q-0.34375 0.234375 -0.5625 0.4375q-0.203125 0.21875 -0.328125 0.421875q-0.125 0.203125 -0.171875 0.40625q-0.03125 0.21875 -0.03125 0.453125zm0.46875 -9.546879q0 0.953125 0.5625 1.515625q0.5625 0.5468788 1.546875 0.5468788q0.53125 0 0.921875 -0.171875q0.390625 -0.18750381 0.640625 -0.4687538q0.265625 -0.296875 0.390625 -0.6875q0.140625 -0.390625 0.140625 -0.8125q0 -0.984375 -0.5625 -1.546875q-0.546875 -0.5625 -1.546875 -0.5625q-0.53125 0 -0.921875 0.1875q-0.390625 0.171875 -0.65625 0.46875q-0.25 0.296875 -0.390625 0.703125q-0.125 0.390625 -0.125 0.828125zm17.992188 7.968754l-0.0625 -1.5625q-0.375 0.40625 -0.796875 0.734375q-0.40625 0.328125 -0.90625 0.578125q-0.484375 0.25 -1.0625 0.375q-0.578125 0.140625 -1.265625 0.140625q-0.921875 0 -1.609375 -0.265625q-0.6875 -0.265625 -1.15625 -0.75q-0.46875 -0.484375 -0.71875 -1.15625q-0.234375 -0.6875 -0.234375 -1.5q0 -0.84375 0.359375 -1.5625q0.359375 -0.71875 1.078125 -1.234375q0.734375 -0.5156288 1.828125 -0.7968788q1.109375 -0.296875 2.578125 -0.296875l1.5625 0l0 -0.71875q0 -0.453125 -0.140625 -0.828125q-0.125 -0.375 -0.40625 -0.625q-0.28125 -0.265625 -0.75 -0.40625q-0.453125 -0.140625 -1.125 -0.140625q-1.046875 0 -2.078125 0.25q-1.015625 0.234375 -1.984375 0.671875l0 -2.28125q0.859375 -0.34375 1.96875 -0.5625q1.125 -0.234375 2.328125 -0.234375q1.328125 0 2.28125 0.265625q0.953125 0.25 1.5625 0.75q0.609375 0.5 0.90625 1.265625q0.296875 0.75 0.296875 1.75l0 8.140629l-2.453125 0zm-0.40625 -5.265625l-1.75 0q-0.71875 0 -1.234375 0.140625q-0.5 0.140625 -0.8125 0.390625q-0.3125 0.25 -0.46875 0.578125q-0.140625 0.3125 -0.140625 0.671875q0 0.734375 0.46875 1.109375q0.46875 0.375 1.28125 0.375q0.59375 0 1.234375 -0.421875q0.640625 -0.4375 1.421875 -1.25l0 -1.59375zm13.1484375 -9.906254q0 0.390625 -0.140625 0.734375q-0.140625 0.34375 -0.390625 0.59375q-0.25 0.25 -0.59375 0.40625q-0.34375 0.140625 -0.734375 0.140625q-0.40625 0 -0.75 -0.140625q-0.34375 -0.15625 -0.59375 -0.40625q-0.25 -0.25 -0.390625 -0.59375q-0.140625 -0.34375 -0.140625 -0.734375q0 -0.375 0.140625 -0.71875q0.140625 -0.34375 0.390625 -0.59375q0.25 -0.265625 0.59375 -0.40625q0.34375 -0.15625 0.75 -0.15625q0.390625 0 0.734375 0.15625q0.34375 0.140625 0.59375 0.40625q0.25 0.25 0.390625 0.59375q0.140625 0.34375 0.140625 0.71875zm-3.171875 5.484375l-3.359375 0l0 -2.21875l6.296875 0l0 9.671879l3.4375 0l0 2.234375l-10.140625 0l0 -2.234375l3.765625 0l0 -7.453129zm16.851562 9.687504l-0.078125 -1.765625q-0.375 0.46875 -0.78125 0.84375q-0.390625 0.375 -0.84375 0.640625q-0.453125 0.25 -0.984375 0.390625q-0.515625 0.15625 -1.15625 0.15625q-1.046875 0 -1.875 -0.421875q-0.8125 -0.421875 -1.375 -1.203125q-0.546875 -0.78125 -0.84375 -1.890625q-0.296875 -1.109375 -0.296875 -2.484375q0 -1.6406288 0.453125 -2.8437538q0.46875 -1.203125 1.28125 -1.984375q0.828125 -0.796875 1.953125 -1.171875q1.125 -0.390625 2.453125 -0.390625q0.453125 0 0.890625 0.0625q0.453125 0.0625 0.8125 0.15625l0 -4.65625l2.859375 0l0 16.562504l-2.46875 0zm-5.234375 -5.859375q0 0.984375 0.125 1.6875q0.140625 0.6875 0.40625 1.140625q0.265625 0.4375 0.65625 0.640625q0.390625 0.203125 0.875 0.203125q0.734375 0 1.390625 -0.578125q0.65625 -0.59375 1.390625 -1.609375l0 -5.203129q-0.34375 -0.125 -0.84375 -0.203125q-0.5 -0.09375 -1.0 -0.09375q-0.6875 0 -1.25 0.28125q-0.546875 0.28125 -0.9375 0.796875q-0.390625 0.515625 -0.609375 1.265625q-0.203125 0.75 -0.203125 1.6718788zm18.398438 5.859375l-0.0625 -1.5625q-0.375 0.40625 -0.796875 0.734375q-0.40625 0.328125 -0.90625 0.578125q-0.484375 0.25 -1.0625 0.375q-0.578125 0.140625 -1.265625 0.140625q-0.921875 0 -1.609375 -0.265625q-0.6875 -0.265625 -1.15625 -0.75q-0.46875 -0.484375 -0.71875 -1.15625q-0.234375 -0.6875 -0.234375 -1.5q0 -0.84375 0.359375 -1.5625q0.359375 -0.71875 1.078125 -1.234375q0.734375 -0.5156288 1.828125 -0.7968788q1.109375 -0.296875 2.578125 -0.296875l1.5625 0l0 -0.71875q0 -0.453125 -0.140625 -0.828125q-0.125 -0.375 -0.40625 -0.625q-0.28125 -0.265625 -0.75 -0.40625q-0.453125 -0.140625 -1.125 -0.140625q-1.046875 0 -2.078125 0.25q-1.015625 0.234375 -1.984375 0.671875l0 -2.28125q0.859375 -0.34375 1.96875 -0.5625q1.125 -0.234375 2.328125 -0.234375q1.328125 0 2.28125 0.265625q0.953125 0.25 1.5625 0.75q0.609375 0.5 0.90625 1.265625q0.296875 0.75 0.296875 1.75l0 8.140629l-2.453125 0zm-0.40625 -5.265625l-1.75 0q-0.71875 0 -1.234375 0.140625q-0.5 0.140625 -0.8125 0.390625q-0.3125 0.25 -0.46875 0.578125q-0.140625 0.3125 -0.140625 0.671875q0 0.734375 0.46875 1.109375q0.46875 0.375 1.28125 0.375q0.59375 0 1.234375 -0.421875q0.640625 -0.4375 1.421875 -1.25l0 -1.59375z" fill-rule="nonzero"/><path fill="#000000" fill-opacity="0.0" d="m1104.778 86.68563l0 101.21665l0.06298828 0l0 101.20856" fill-rule="evenodd"/><path stroke="#4a86e8" stroke-width="1.0" stroke-linejoin="round" stroke-linecap="butt" stroke-dasharray="4.0,3.0" d="m1104.778 86.68563l0 101.21665l0.06298828 0l0 101.20856" fill-rule="evenodd"/><path fill="#000000" fill-opacity="0.0" d="m1847.3939 38.213192l175.02356 0l0 48.47244l-175.02356 0z" fill-rule="evenodd"/><path fill="#3c78d8" d="m1912.0424 70.2532l-0.28125 -8.656254l-0.109375 -3.46875l-0.734375 2.34375l-1.703125 5.218754l-1.796875 0l-1.53125 -5.218754l-0.65625 -2.34375l-0.078125 3.390625l-0.25 8.734379l-2.453125 0l0.75 -15.312504l3.25 0l1.359375 4.34375l0.640625 2.453125l0.640625 -2.3125l1.421875 -4.484375l3.3125 0l0.765625 15.312504l-2.546875 0zm11.8046875 0l0 -7.765629q0 -1.953125 -1.453125 -1.953125q-0.734375 0 -1.390625 0.59375q-0.65625 0.578125 -1.40625 1.59375l0 7.531254l-2.859375 0l0 -11.906254l2.484375 0l0.0625 1.75q0.359375 -0.453125 0.75 -0.828125q0.40625 -0.375 0.859375 -0.640625q0.453125 -0.265625 0.984375 -0.40625q0.53125 -0.140625 1.1875 -0.140625q0.90625 0 1.578125 0.3125q0.6875 0.296875 1.140625 0.84375q0.46875 0.53125 0.6875 1.3125q0.234375 0.765625 0.234375 1.703125l0 8.000004l-2.859375 0zm13.1015625 -15.171879q0 0.390625 -0.140625 0.734375q-0.140625 0.34375 -0.390625 0.59375q-0.25 0.25 -0.59375 0.40625q-0.34375 0.140625 -0.734375 0.140625q-0.40625 0 -0.75 -0.140625q-0.34375 -0.15625 -0.59375 -0.40625q-0.25 -0.25 -0.390625 -0.59375q-0.140625 -0.34375 -0.140625 -0.734375q0 -0.375 0.140625 -0.71875q0.140625 -0.34375 0.390625 -0.59375q0.25 -0.265625 0.59375 -0.40625q0.34375 -0.15625 0.75 -0.15625q0.390625 0 0.734375 0.15625q0.34375 0.140625 0.59375 0.40625q0.25 0.25 0.390625 0.59375q0.140625 0.34375 0.140625 0.71875zm-3.171875 5.484375l-3.359375 0l0 -2.21875l6.296875 0l0 9.671879l3.4375 0l0 2.234375l-10.140625 0l0 -2.234375l3.765625 0l0 -7.453129zm17.757812 9.687504l0 -8.109379q0 -0.453125 -0.03125 -0.78125q-0.015625 -0.328125 -0.09375 -0.546875q-0.0625 -0.234375 -0.203125 -0.34375q-0.125 -0.109375 -0.359375 -0.109375q-0.359375 0 -0.71875 0.5q-0.34375 0.484375 -0.796875 1.671875l0 7.718754l-2.453125 0l0 -8.109379q0 -0.453125 -0.03125 -0.78125q-0.015625 -0.328125 -0.09375 -0.546875q-0.0625 -0.234375 -0.203125 -0.34375q-0.140625 -0.109375 -0.375 -0.109375q-0.296875 0 -0.671875 0.5q-0.375 0.484375 -0.828125 1.671875l0 7.718754l-2.484375 0l0 -11.906254l2.125 0l0.046875 1.734375q0.265625 -0.53125 0.515625 -0.90625q0.265625 -0.375 0.546875 -0.609375q0.296875 -0.25 0.625 -0.34375q0.34375 -0.109375 0.765625 -0.109375q1.0 0 1.515625 0.53125q0.515625 0.515625 0.59375 1.4375q0.28125 -0.53125 0.546875 -0.90625q0.28125 -0.375 0.578125 -0.609375q0.296875 -0.25 0.640625 -0.34375q0.359375 -0.109375 0.78125 -0.109375q1.296875 0 1.90625 0.90625q0.625 0.90625 0.625 2.6875l0 8.546879l-2.46875 0zm11.8046875 -15.171879q0 0.390625 -0.140625 0.734375q-0.140625 0.34375 -0.390625 0.59375q-0.25 0.25 -0.59375 0.40625q-0.34375 0.140625 -0.734375 0.140625q-0.40625 0 -0.75 -0.140625q-0.34375 -0.15625 -0.59375 -0.40625q-0.25 -0.25 -0.390625 -0.59375q-0.140625 -0.34375 -0.140625 -0.734375q0 -0.375 0.140625 -0.71875q0.140625 -0.34375 0.390625 -0.59375q0.25 -0.265625 0.59375 -0.40625q0.34375 -0.15625 0.75 -0.15625q0.390625 0 0.734375 0.15625q0.34375 0.140625 0.59375 0.40625q0.25 0.25 0.390625 0.59375q0.140625 0.34375 0.140625 0.71875zm-3.171875 5.484375l-3.359375 0l0 -2.21875l6.296875 0l0 9.671879l3.4375 0l0 2.234375l-10.140625 0l0 -2.234375l3.765625 0l0 -7.453129z" fill-rule="nonzero"/><path fill="#000000" fill-opacity="0.0" d="m1343.0585 38.213192l175.02356 0l0 48.47244l-175.02356 0z" fill-rule="evenodd"/><path fill="#3c78d8" d="m1386.5428 70.2532l0 -15.312504l9.21875 0l0 2.4375l-6.28125 0l0 3.796875l6.0 0l0 2.390625l-6.0 0l0 4.250004l6.28125 0l0 2.4375l-9.21875 0zm23.351562 -14.140629q-0.515625 -0.15625 -1.21875 -0.265625q-0.703125 -0.109375 -1.453125 -0.109375q-0.5 0 -0.9375 0.140625q-0.421875 0.125 -0.75 0.421875q-0.3125 0.28125 -0.5 0.734375q-0.171875 0.453125 -0.171875 1.09375l0 1.921875l4.671875 0l0 2.234375l-4.671875 0l0 7.968754l-2.890625 0l0 -7.968754l-3.453125 0l0 -2.234375l3.453125 0l0 -1.796875q0 -1.265625 0.375 -2.171875q0.375 -0.90625 1.046875 -1.484375q0.671875 -0.59375 1.609375 -0.859375q0.953125 -0.265625 2.125 -0.265625q0.78125 0 1.46875 0.109375q0.703125 0.09375 1.296875 0.234375l0 2.296875zm-12.3125 2.234375l0 0zm25.507812 -2.234375q-0.515625 -0.15625 -1.21875 -0.265625q-0.703125 -0.109375 -1.453125 -0.109375q-0.5 0 -0.9375 0.140625q-0.421875 0.125 -0.75 0.421875q-0.3125 0.28125 -0.5 0.734375q-0.171875 0.453125 -0.171875 1.09375l0 1.921875l4.671875 0l0 2.234375l-4.671875 0l0 7.968754l-2.890625 0l0 -7.968754l-3.453125 0l0 -2.234375l3.453125 0l0 -1.796875q0 -1.265625 0.375 -2.171875q0.375 -0.90625 1.046875 -1.484375q0.671875 -0.59375 1.609375 -0.859375q0.953125 -0.265625 2.125 -0.265625q0.78125 0 1.46875 0.109375q0.703125 0.09375 1.296875 0.234375l0 2.296875zm-12.3125 2.234375l0 0zm25.195312 5.03125q0 0.296875 -0.015625 0.7656288q-0.015625 0.46875 -0.046875 0.875l-7.828125 0q0 0.796875 0.234375 1.390625q0.234375 0.59375 0.671875 1.0q0.453125 0.40625 1.0625 0.625q0.609375 0.203125 1.359375 0.203125q0.875 0 1.859375 -0.125q1.0 -0.140625 2.0625 -0.453125l0 2.28125q-0.453125 0.125 -1.0 0.234375q-0.53125 0.109375 -1.09375 0.1875q-0.5625 0.078125 -1.140625 0.109375q-0.578125 0.046875 -1.109375 0.046875q-1.359375 0 -2.4375 -0.375q-1.078125 -0.390625 -1.828125 -1.140625q-0.75 -0.765625 -1.15625 -1.875q-0.390625 -1.125 -0.390625 -2.578125q0 -1.4531288 0.390625 -2.6406288q0.40625 -1.203125 1.125 -2.046875q0.734375 -0.84375 1.765625 -1.3125q1.03125 -0.46875 2.3125 -0.46875q1.265625 0 2.234375 0.40625q0.984375 0.390625 1.640625 1.09375q0.65625 0.703125 0.984375 1.671875q0.34375 0.96875 0.34375 2.125zm-2.90625 -0.40625q0.015625 -0.703125 -0.171875 -1.21875q-0.1875 -0.53125 -0.515625 -0.859375q-0.3125 -0.34375 -0.75 -0.5q-0.421875 -0.171875 -0.921875 -0.171875q-1.078125 0 -1.765625 0.71875q-0.6875 0.71875 -0.8125 2.03125l4.9375 0zm13.3984375 0q0.015625 -0.671875 -0.078125 -1.140625q-0.078125 -0.46875 -0.28125 -0.765625q-0.1875 -0.3125 -0.46875 -0.453125q-0.28125 -0.140625 -0.640625 -0.140625q-0.625 0 -1.3125 0.53125q-0.671875 0.515625 -1.46875 1.71875l0 7.531254l-2.9375 0l0 -11.906254l2.59375 0l0.109375 1.734375q0.28125 -0.453125 0.65625 -0.8125q0.375 -0.375 0.8125 -0.640625q0.453125 -0.265625 1.0 -0.40625q0.5625 -0.140625 1.21875 -0.140625q0.90625 0 1.59375 0.3125q0.703125 0.3125 1.171875 0.921875q0.484375 0.609375 0.703125 1.53125q0.234375 0.921875 0.203125 2.125l-2.875 0zm16.257812 1.2343788q0 1.40625 -0.40625 2.578125q-0.390625 1.15625 -1.140625 2.0q-0.75 0.828125 -1.84375 1.28125q-1.09375 0.453125 -2.484375 0.453125q-1.328125 0 -2.375 -0.375q-1.03125 -0.390625 -1.765625 -1.15625q-0.71875 -0.78125 -1.109375 -1.921875q-0.390625 -1.15625 -0.390625 -2.703125q0 -1.4062538 0.40625 -2.5625038q0.40625 -1.171875 1.15625 -1.984375q0.765625 -0.828125 1.84375 -1.28125q1.09375 -0.453125 2.46875 -0.453125q1.328125 0 2.375 0.40625q1.046875 0.390625 1.765625 1.171875q0.734375 0.765625 1.109375 1.90625q0.390625 1.140625 0.390625 2.6406288zm-2.984375 0.0625q0 -1.8437538 -0.703125 -2.7656288q-0.6875 -0.9375 -2.046875 -0.9375q-0.75 0 -1.28125 0.296875q-0.53125 0.28125 -0.875 0.796875q-0.328125 0.5 -0.484375 1.1875q-0.15625 0.671875 -0.15625 1.4531288q0 1.859375 0.75 2.8125q0.75 0.9375 2.046875 0.9375q0.71875 0 1.234375 -0.28125q0.53125 -0.296875 0.859375 -0.796875q0.328125 -0.515625 0.484375 -1.203125q0.171875 -0.703125 0.171875 -1.5zm15.2734375 2.484375q0 1.015625 -0.453125 1.734375q-0.453125 0.71875 -1.203125 1.171875q-0.734375 0.453125 -1.6875 0.65625q-0.9375 0.203125 -1.921875 0.203125q-1.3125 0 -2.375 -0.125q-1.046875 -0.109375 -1.984375 -0.359375l0 -2.578125q1.109375 0.46875 2.203125 0.671875q1.09375 0.203125 2.0625 0.203125q1.125 0 1.671875 -0.359375q0.5625 -0.359375 0.5625 -0.9375q0 -0.265625 -0.125 -0.484375q-0.109375 -0.21875 -0.4375 -0.421875q-0.3125 -0.21875 -0.90625 -0.421875q-0.578125 -0.21875 -1.53125 -0.5q-0.875 -0.234375 -1.546875 -0.546875q-0.65625 -0.3125 -1.09375 -0.7343788q-0.421875 -0.421875 -0.640625 -0.96875q-0.21875 -0.5625 -0.21875 -1.3125q0 -0.734375 0.328125 -1.375q0.328125 -0.640625 0.96875 -1.125q0.65625 -0.5 1.625 -0.78125q0.984375 -0.28125 2.28125 -0.28125q1.125 0 1.984375 0.125q0.875 0.109375 1.546875 0.25l0 2.34375q-1.015625 -0.328125 -1.921875 -0.46875q-0.890625 -0.140625 -1.765625 -0.140625q-0.890625 0 -1.421875 0.328125q-0.53125 0.3125 -0.53125 0.875q0 0.265625 0.109375 0.484375q0.109375 0.203125 0.40625 0.40625q0.3125 0.203125 0.875 0.421875q0.5625 0.203125 1.46875 0.46875q1.03125 0.296875 1.734375 0.625q0.703125 0.3281288 1.125 0.7500038q0.4375 0.421875 0.625 0.96875q0.1875 0.53125 0.1875 1.234375z" fill-rule="nonzero"/><path fill="#000000" fill-opacity="0.0" d="m1230.3254 38.212597l141.7638 0l0 48.47244l-141.7638 0z" fill-rule="evenodd"/><path fill="#3c78d8" d="m1257.4729 70.2526l-4.609375 -7.406254l0 7.406254l-2.921875 0l0 -15.312504l2.921875 0l0 6.96875l4.59375 -6.96875l3.46875 0l-5.203125 7.296875l5.484375 8.015629l-3.734375 0zm13.2421875 0l-0.0625 -1.5625q-0.375 0.40625 -0.796875 0.734375q-0.40625 0.328125 -0.90625 0.578125q-0.484375 0.25 -1.0625 0.375q-0.578125 0.140625 -1.265625 0.140625q-0.921875 0 -1.609375 -0.265625q-0.6875 -0.265625 -1.15625 -0.75q-0.46875 -0.484375 -0.71875 -1.15625q-0.234375 -0.6875 -0.234375 -1.5q0 -0.84375 0.359375 -1.5625q0.359375 -0.71875 1.078125 -1.234375q0.734375 -0.5156288 1.828125 -0.7968788q1.109375 -0.296875 2.578125 -0.296875l1.5625 0l0 -0.71875q0 -0.453125 -0.140625 -0.828125q-0.125 -0.375 -0.40625 -0.625q-0.28125 -0.265625 -0.75 -0.40625q-0.453125 -0.140625 -1.125 -0.140625q-1.046875 0 -2.078125 0.25q-1.015625 0.234375 -1.984375 0.671875l0 -2.28125q0.859375 -0.34375 1.96875 -0.5625q1.125 -0.234375 2.328125 -0.234375q1.328125 0 2.28125 0.265625q0.953125 0.25 1.5625 0.75q0.609375 0.5 0.90625 1.265625q0.296875 0.75 0.296875 1.75l0 8.140629l-2.453125 0zm-0.40625 -5.265625l-1.75 0q-0.71875 0 -1.234375 0.140625q-0.5 0.140625 -0.8125 0.390625q-0.3125 0.25 -0.46875 0.578125q-0.140625 0.3125 -0.140625 0.671875q0 0.734375 0.46875 1.109375q0.46875 0.375 1.28125 0.375q0.59375 0 1.234375 -0.421875q0.640625 -0.4375 1.421875 -1.25l0 -1.59375zm13.8046875 -2.0156288q0.015625 -0.671875 -0.078125 -1.140625q-0.078125 -0.46875 -0.28125 -0.765625q-0.1875 -0.3125 -0.46875 -0.453125q-0.28125 -0.140625 -0.640625 -0.140625q-0.625 0 -1.3125 0.53125q-0.671875 0.515625 -1.46875 1.71875l0 7.531254l-2.9375 0l0 -11.906254l2.59375 0l0.109375 1.734375q0.28125 -0.453125 0.65625 -0.8125q0.375 -0.375 0.8125 -0.640625q0.453125 -0.265625 1.0 -0.40625q0.5625 -0.140625 1.21875 -0.140625q0.90625 0 1.59375 0.3125q0.703125 0.3125 1.171875 0.921875q0.484375 0.609375 0.703125 1.53125q0.234375 0.921875 0.203125 2.125l-2.875 0zm12.1796875 7.281254l-3.28125 0l-4.734375 -11.906254l3.1875 0l2.484375 6.750004l0.734375 2.171875l0.71875 -2.078125l2.5 -6.843754l3.078125 0l-4.6875 11.906254zm17.273438 -6.046875q0 1.40625 -0.40625 2.578125q-0.390625 1.15625 -1.140625 2.0q-0.75 0.828125 -1.84375 1.28125q-1.09375 0.453125 -2.484375 0.453125q-1.328125 0 -2.375 -0.375q-1.03125 -0.390625 -1.765625 -1.15625q-0.71875 -0.78125 -1.109375 -1.921875q-0.390625 -1.15625 -0.390625 -2.703125q0 -1.4062538 0.40625 -2.5625038q0.40625 -1.171875 1.15625 -1.984375q0.765625 -0.828125 1.84375 -1.28125q1.09375 -0.453125 2.46875 -0.453125q1.328125 0 2.375 0.40625q1.046875 0.390625 1.765625 1.171875q0.734375 0.765625 1.109375 1.90625q0.390625 1.140625 0.390625 2.6406288zm-2.984375 0.0625q0 -1.8437538 -0.703125 -2.7656288q-0.6875 -0.9375 -2.046875 -0.9375q-0.75 0 -1.28125 0.296875q-0.53125 0.28125 -0.875 0.796875q-0.328125 0.5 -0.484375 1.1875q-0.15625 0.671875 -0.15625 1.4531288q0 1.859375 0.75 2.8125q0.75 0.9375 2.046875 0.9375q0.71875 0 1.234375 -0.28125q0.53125 -0.296875 0.859375 -0.796875q0.328125 -0.515625 0.484375 -1.203125q0.171875 -0.703125 0.171875 -1.5zm8.2890625 -5.921879l0 7.750004q0 0.984375 0.359375 1.484375q0.359375 0.484375 1.109375 0.484375q0.703125 0 1.359375 -0.578125q0.671875 -0.59375 1.40625 -1.609375l0 -7.531254l2.859375 0l0 11.906254l-2.46875 0l-0.0625 -1.765625q-0.375 0.46875 -0.765625 0.84375q-0.390625 0.375 -0.84375 0.640625q-0.453125 0.25 -0.984375 0.390625q-0.53125 0.15625 -1.171875 0.15625q-0.921875 0 -1.609375 -0.296875q-0.671875 -0.296875 -1.140625 -0.84375q-0.453125 -0.5625 -0.6875 -1.328125q-0.21875 -0.765625 -0.21875 -1.71875l0 -7.984379l2.859375 0zm17.460938 11.906254l0 -7.765629q0 -1.953125 -1.453125 -1.953125q-0.734375 0 -1.390625 0.59375q-0.65625 0.578125 -1.40625 1.59375l0 7.531254l-2.859375 0l0 -11.906254l2.484375 0l0.0625 1.75q0.359375 -0.453125 0.75 -0.828125q0.40625 -0.375 0.859375 -0.640625q0.453125 -0.265625 0.984375 -0.40625q0.53125 -0.140625 1.1875 -0.140625q0.90625 0 1.578125 0.3125q0.6875 0.296875 1.140625 0.84375q0.46875 0.53125 0.6875 1.3125q0.234375 0.765625 0.234375 1.703125l0 8.000004l-2.859375 0zm16.820312 -6.046875q0 1.40625 -0.40625 2.578125q-0.390625 1.15625 -1.140625 2.0q-0.75 0.828125 -1.84375 1.28125q-1.09375 0.453125 -2.484375 0.453125q-1.328125 0 -2.375 -0.375q-1.03125 -0.390625 -1.765625 -1.15625q-0.71875 -0.78125 -1.109375 -1.921875q-0.390625 -1.15625 -0.390625 -2.703125q0 -1.4062538 0.40625 -2.5625038q0.40625 -1.171875 1.15625 -1.984375q0.765625 -0.828125 1.84375 -1.28125q1.09375 -0.453125 2.46875 -0.453125q1.328125 0 2.375 0.40625q1.046875 0.390625 1.765625 1.171875q0.734375 0.765625 1.109375 1.90625q0.390625 1.140625 0.390625 2.6406288zm-2.984375 0.0625q0 -1.8437538 -0.703125 -2.7656288q-0.6875 -0.9375 -2.046875 -0.9375q-0.75 0 -1.28125 0.296875q-0.53125 0.28125 -0.875 0.796875q-0.328125 0.5 -0.484375 1.1875q-0.15625 0.671875 -0.15625 1.4531288q0 1.859375 0.75 2.8125q0.75 0.9375 2.046875 0.9375q0.71875 0 1.234375 -0.28125q0.53125 -0.296875 0.859375 -0.796875q0.328125 -0.515625 0.484375 -1.203125q0.171875 -0.703125 0.171875 -1.5z" fill-rule="nonzero"/><path fill="#000000" fill-opacity="0.0" d="m1522.9874 38.213192l175.02356 0l0 48.47244l-175.02356 0z" fill-rule="evenodd"/><path fill="#3c78d8" d="m1563.0734 65.6282q0 1.25 -0.46875 2.171875q-0.453125 0.921875 -1.296875 1.53125q-0.828125 0.609375 -1.984375 0.90625q-1.140625 0.28125 -2.5 0.28125q-1.203125 0 -2.328125 -0.140625q-1.125 -0.140625 -2.21875 -0.46875l0 -2.84375q0.53125 0.1875 1.109375 0.359375q0.59375 0.15625 1.1875 0.28125q0.59375 0.125 1.171875 0.203125q0.59375 0.0625 1.140625 0.0625q0.828125 0 1.390625 -0.140625q0.578125 -0.140625 0.9375 -0.390625q0.375 -0.25 0.53125 -0.578125q0.171875 -0.34375 0.171875 -0.765625q0 -0.5625 -0.328125 -0.9375q-0.328125 -0.375 -0.859375 -0.671875q-0.515625 -0.296875 -1.1875 -0.5312538q-0.671875 -0.234375 -1.375 -0.5q-0.703125 -0.265625 -1.375 -0.609375q-0.671875 -0.34375 -1.203125 -0.84375q-0.515625 -0.5 -0.84375 -1.203125q-0.328125 -0.703125 -0.328125 -1.6875q0 -0.890625 0.328125 -1.703125q0.328125 -0.8125 1.03125 -1.40625q0.703125 -0.609375 1.796875 -0.96875q1.109375 -0.359375 2.671875 -0.359375q0.453125 0 0.953125 0.046875q0.5 0.03125 0.984375 0.109375q0.484375 0.0625 0.9375 0.15625q0.453125 0.078125 0.828125 0.171875l0 2.640625q-0.375 -0.140625 -0.828125 -0.25q-0.4375 -0.125 -0.921875 -0.21875q-0.46875 -0.09375 -0.953125 -0.140625q-0.46875 -0.046875 -0.90625 -0.046875q-0.765625 0 -1.296875 0.125q-0.515625 0.125 -0.859375 0.34375q-0.34375 0.21875 -0.5 0.53125q-0.140625 0.3125 -0.140625 0.703125q0 0.484375 0.3125 0.828125q0.328125 0.34375 0.859375 0.625q0.53125 0.265625 1.203125 0.515625q0.6875 0.234375 1.390625 0.515625q0.703125 0.265625 1.375 0.625q0.6875 0.34375 1.21875 0.859375q0.53125 0.5 0.84375 1.1875038q0.328125 0.6875 0.328125 1.625zm13.6015625 -1.421875q0 1.40625 -0.40625 2.578125q-0.390625 1.15625 -1.140625 2.0q-0.75 0.828125 -1.84375 1.28125q-1.09375 0.453125 -2.484375 0.453125q-1.328125 0 -2.375 -0.375q-1.03125 -0.390625 -1.765625 -1.15625q-0.71875 -0.78125 -1.109375 -1.921875q-0.390625 -1.15625 -0.390625 -2.703125q0 -1.4062538 0.40625 -2.5625038q0.40625 -1.171875 1.15625 -1.984375q0.765625 -0.828125 1.84375 -1.28125q1.09375 -0.453125 2.46875 -0.453125q1.328125 0 2.375 0.40625q1.046875 0.390625 1.765625 1.171875q0.734375 0.765625 1.109375 1.90625q0.390625 1.140625 0.390625 2.6406288zm-2.984375 0.0625q0 -1.8437538 -0.703125 -2.7656288q-0.6875 -0.9375 -2.046875 -0.9375q-0.75 0 -1.28125 0.296875q-0.53125 0.28125 -0.875 0.796875q-0.328125 0.5 -0.484375 1.1875q-0.15625 0.671875 -0.15625 1.4531288q0 1.859375 0.75 2.8125q0.75 0.9375 2.046875 0.9375q0.71875 0 1.234375 -0.28125q0.53125 -0.296875 0.859375 -0.796875q0.328125 -0.515625 0.484375 -1.203125q0.171875 -0.703125 0.171875 -1.5zm15.2734375 2.484375q0 1.015625 -0.453125 1.734375q-0.453125 0.71875 -1.203125 1.171875q-0.734375 0.453125 -1.6875 0.65625q-0.9375 0.203125 -1.921875 0.203125q-1.3125 0 -2.375 -0.125q-1.046875 -0.109375 -1.984375 -0.359375l0 -2.578125q1.109375 0.46875 2.203125 0.671875q1.09375 0.203125 2.0625 0.203125q1.125 0 1.671875 -0.359375q0.5625 -0.359375 0.5625 -0.9375q0 -0.265625 -0.125 -0.484375q-0.109375 -0.21875 -0.4375 -0.421875q-0.3125 -0.21875 -0.90625 -0.421875q-0.578125 -0.21875 -1.53125 -0.5q-0.875 -0.234375 -1.546875 -0.546875q-0.65625 -0.3125 -1.09375 -0.7343788q-0.421875 -0.421875 -0.640625 -0.96875q-0.21875 -0.5625 -0.21875 -1.3125q0 -0.734375 0.328125 -1.375q0.328125 -0.640625 0.96875 -1.125q0.65625 -0.5 1.625 -0.78125q0.984375 -0.28125 2.28125 -0.28125q1.125 0 1.984375 0.125q0.875 0.109375 1.546875 0.25l0 2.34375q-1.015625 -0.328125 -1.921875 -0.46875q-0.890625 -0.140625 -1.765625 -0.140625q-0.890625 0 -1.421875 0.328125q-0.53125 0.3125 -0.53125 0.875q0 0.265625 0.109375 0.484375q0.109375 0.203125 0.40625 0.40625q0.3125 0.203125 0.875 0.421875q0.5625 0.203125 1.46875 0.46875q1.03125 0.296875 1.734375 0.625q0.703125 0.3281288 1.125 0.7500038q0.4375 0.421875 0.625 0.96875q0.1875 0.53125 0.1875 1.234375zm10.3828125 -11.671879q0 0.390625 -0.140625 0.734375q-0.140625 0.34375 -0.390625 0.59375q-0.25 0.25 -0.59375 0.40625q-0.34375 0.140625 -0.734375 0.140625q-0.40625 0 -0.75 -0.140625q-0.34375 -0.15625 -0.59375 -0.40625q-0.25 -0.25 -0.390625 -0.59375q-0.140625 -0.34375 -0.140625 -0.734375q0 -0.375 0.140625 -0.71875q0.140625 -0.34375 0.390625 -0.59375q0.25 -0.265625 0.59375 -0.40625q0.34375 -0.15625 0.75 -0.15625q0.390625 0 0.734375 0.15625q0.34375 0.140625 0.59375 0.40625q0.25 0.25 0.390625 0.59375q0.140625 0.34375 0.140625 0.71875zm-3.171875 5.484375l-3.359375 0l0 -2.21875l6.296875 0l0 9.671879l3.4375 0l0 2.234375l-10.140625 0l0 -2.234375l3.765625 0l0 -7.453129zm20.070312 3.5156288q0 1.640625 -0.46875 2.84375q-0.453125 1.1875 -1.28125 1.984375q-0.828125 0.796875 -1.953125 1.1875q-1.125 0.375 -2.453125 0.375q-0.4375 0 -0.890625 -0.0625q-0.4375 -0.0625 -0.8125 -0.15625l0 4.65625l-2.859375 0l0 -16.562504l2.484375 0l0.0625 1.75q0.359375 -0.453125 0.75 -0.828125q0.40625 -0.375 0.859375 -0.640625q0.453125 -0.265625 0.984375 -0.40625q0.53125 -0.140625 1.1875 -0.140625q1.046875 0 1.859375 0.421875q0.828125 0.421875 1.375 1.203125q0.5625 0.78125 0.859375 1.890625q0.296875 1.109375 0.296875 2.4843788zm-3.0 0.125q0 -0.9843788 -0.140625 -1.6718788q-0.140625 -0.703125 -0.40625 -1.140625q-0.265625 -0.453125 -0.65625 -0.65625q-0.375 -0.203125 -0.859375 -0.203125q-0.734375 0 -1.390625 0.59375q-0.65625 0.578125 -1.40625 1.59375l0 5.203129q0.34375 0.125 0.84375 0.203125q0.5 0.078125 1.015625 0.078125q0.671875 0 1.234375 -0.28125q0.5625 -0.28125 0.953125 -0.796875q0.390625 -0.515625 0.59375 -1.25q0.21875 -0.75 0.21875 -1.671875zm16.210938 0q0 1.40625 -0.40625 2.578125q-0.390625 1.15625 -1.140625 2.0q-0.75 0.828125 -1.84375 1.28125q-1.09375 0.453125 -2.484375 0.453125q-1.328125 0 -2.375 -0.375q-1.03125 -0.390625 -1.765625 -1.15625q-0.71875 -0.78125 -1.109375 -1.921875q-0.390625 -1.15625 -0.390625 -2.703125q0 -1.4062538 0.40625 -2.5625038q0.40625 -1.171875 1.15625 -1.984375q0.765625 -0.828125 1.84375 -1.28125q1.09375 -0.453125 2.46875 -0.453125q1.328125 0 2.375 0.40625q1.046875 0.390625 1.765625 1.171875q0.734375 0.765625 1.109375 1.90625q0.390625 1.140625 0.390625 2.6406288zm-2.984375 0.0625q0 -1.8437538 -0.703125 -2.7656288q-0.6875 -0.9375 -2.046875 -0.9375q-0.75 0 -1.28125 0.296875q-0.53125 0.28125 -0.875 0.796875q-0.328125 0.5 -0.484375 1.1875q-0.15625 0.671875 -0.15625 1.4531288q0 1.859375 0.75 2.8125q0.75 0.9375 2.046875 0.9375q0.71875 0 1.234375 -0.28125q0.53125 -0.296875 0.859375 -0.796875q0.328125 -0.515625 0.484375 -1.203125q0.171875 -0.703125 0.171875 -1.5zm9.2890625 -8.343754l-3.359375 0l0 -2.234375l6.296875 0l0 14.328129l3.4375 0l0 2.234375l-10.140625 0l0 -2.234375l3.765625 0l0 -12.093754zm16.367188 -0.84375q0 0.390625 -0.140625 0.734375q-0.140625 0.34375 -0.390625 0.59375q-0.25 0.25 -0.59375 0.40625q-0.34375 0.140625 -0.734375 0.140625q-0.40625 0 -0.75 -0.140625q-0.34375 -0.15625 -0.59375 -0.40625q-0.25 -0.25 -0.390625 -0.59375q-0.140625 -0.34375 -0.140625 -0.734375q0 -0.375 0.140625 -0.71875q0.140625 -0.34375 0.390625 -0.59375q0.25 -0.265625 0.59375 -0.40625q0.34375 -0.15625 0.75 -0.15625q0.390625 0 0.734375 0.15625q0.34375 0.140625 0.59375 0.40625q0.25 0.25 0.390625 0.59375q0.140625 0.34375 0.140625 0.71875zm-3.171875 5.484375l-3.359375 0l0 -2.21875l6.296875 0l0 9.671879l3.4375 0l0 2.234375l-10.140625 0l0 -2.234375l3.765625 0l0 -7.453129zm19.179688 6.187504q0 1.015625 -0.453125 1.734375q-0.453125 0.71875 -1.203125 1.171875q-0.734375 0.453125 -1.6875 0.65625q-0.9375 0.203125 -1.921875 0.203125q-1.3125 0 -2.375 -0.125q-1.046875 -0.109375 -1.984375 -0.359375l0 -2.578125q1.109375 0.46875 2.203125 0.671875q1.09375 0.203125 2.0625 0.203125q1.125 0 1.671875 -0.359375q0.5625 -0.359375 0.5625 -0.9375q0 -0.265625 -0.125 -0.484375q-0.109375 -0.21875 -0.4375 -0.421875q-0.3125 -0.21875 -0.90625 -0.421875q-0.578125 -0.21875 -1.53125 -0.5q-0.875 -0.234375 -1.546875 -0.546875q-0.65625 -0.3125 -1.09375 -0.7343788q-0.421875 -0.421875 -0.640625 -0.96875q-0.21875 -0.5625 -0.21875 -1.3125q0 -0.734375 0.328125 -1.375q0.328125 -0.640625 0.96875 -1.125q0.65625 -0.5 1.625 -0.78125q0.984375 -0.28125 2.28125 -0.28125q1.125 0 1.984375 0.125q0.875 0.109375 1.546875 0.25l0 2.34375q-1.015625 -0.328125 -1.921875 -0.46875q-0.890625 -0.140625 -1.765625 -0.140625q-0.890625 0 -1.421875 0.328125q-0.53125 0.3125 -0.53125 0.875q0 0.265625 0.109375 0.484375q0.109375 0.203125 0.40625 0.40625q0.3125 0.203125 0.875 0.421875q0.5625 0.203125 1.46875 0.46875q1.03125 0.296875 1.734375 0.625q0.703125 0.3281288 1.125 0.7500038q0.4375 0.421875 0.625 0.96875q0.1875 0.53125 0.1875 1.234375z" fill-rule="nonzero"/><path fill="#000000" fill-opacity="0.0" d="m1610.4991 86.68563l0 17.452309l0.06298828 0l0 17.445335" fill-rule="evenodd"/><path stroke="#4a86e8" stroke-width="1.0" stroke-linejoin="round" stroke-linecap="butt" stroke-dasharray="4.0,3.0" d="m1610.4991 86.68563l0 17.452309l0.06298828 0l0 17.445335" fill-rule="evenodd"/><path fill="#000000" fill-opacity="0.0" d="m1430.5702 86.68563l0 22.025772l0.06298828 0l0 22.037224" fill-rule="evenodd"/><path stroke="#4a86e8" stroke-width="1.0" stroke-linejoin="round" stroke-linecap="butt" stroke-dasharray="4.0,3.0" d="m1430.5702 86.68563l0 22.025772l0.06298828 0l0 22.037224" fill-rule="evenodd"/><path fill="#000000" fill-opacity="0.0" d="m1301.2073 86.685036l0 93.32284l79.33862 0" fill-rule="evenodd"/><path stroke="#4a86e8" stroke-width="1.0" stroke-linejoin="round" stroke-linecap="butt" stroke-dasharray="4.0,3.0" d="m1301.2073 86.685036l0 93.32284l79.33862 0" fill-rule="evenodd"/><path fill="#000000" fill-opacity="0.0" d="m1135.5826 111.178474l141.7638 0l0 48.47245l-141.7638 0z" fill-rule="evenodd"/><path fill="#3c78d8" d="m1163.1207 143.21848l-2.953125 -5.640625l-2.90625 5.640625l-3.484375 0l4.421875 -7.859375l-4.125 -7.453125l3.390625 0l2.765625 5.328125l2.6875 -5.328125l3.390625 0l-4.109375 7.453125l4.59375 7.859375l-3.671875 0zm15.7578125 -6.875q0 0.296875 -0.015625 0.765625q-0.015625 0.46875 -0.046875 0.875l-7.828125 0q0 0.796875 0.234375 1.390625q0.234375 0.59375 0.671875 1.0q0.453125 0.40625 1.0625 0.625q0.609375 0.203125 1.359375 0.203125q0.875 0 1.859375 -0.125q1.0 -0.140625 2.0625 -0.453125l0 2.28125q-0.453125 0.125 -1.0 0.234375q-0.53125 0.109375 -1.09375 0.1875q-0.5625 0.078125 -1.140625 0.109375q-0.578125 0.046875 -1.109375 0.046875q-1.359375 0 -2.4375 -0.375q-1.078125 -0.390625 -1.828125 -1.140625q-0.75 -0.765625 -1.15625 -1.875q-0.390625 -1.125 -0.390625 -2.578125q0 -1.453125 0.390625 -2.640625q0.40625 -1.203125 1.125 -2.046875q0.734375 -0.84375 1.765625 -1.3125q1.03125 -0.46875 2.3125 -0.46875q1.265625 0 2.234375 0.40625q0.984375 0.390625 1.640625 1.09375q0.65625 0.703125 0.984375 1.671875q0.34375 0.96875 0.34375 2.125zm-2.90625 -0.40625q0.015625 -0.703125 -0.171875 -1.21875q-0.1875 -0.53125 -0.515625 -0.859375q-0.3125 -0.34375 -0.75 -0.5q-0.421875 -0.171875 -0.921875 -0.171875q-1.078125 0 -1.765625 0.71875q-0.6875 0.71875 -0.8125 2.03125l4.9375 0zm12.7421875 -7.890625q0 0.390625 -0.140625 0.734375q-0.140625 0.34375 -0.390625 0.59375q-0.25 0.25 -0.59375 0.40625q-0.34375 0.140625 -0.734375 0.140625q-0.40625 0 -0.75 -0.140625q-0.34375 -0.15625 -0.59375 -0.40625q-0.25 -0.25 -0.390625 -0.59375q-0.140625 -0.34375 -0.140625 -0.734375q0 -0.375 0.140625 -0.71875q0.140625 -0.34375 0.390625 -0.59375q0.25 -0.265625 0.59375 -0.40625q0.34375 -0.15625 0.75 -0.15625q0.390625 0 0.734375 0.15625q0.34375 0.140625 0.59375 0.40625q0.25 0.25 0.390625 0.59375q0.140625 0.34375 0.140625 0.71875zm-3.171875 5.484375l-3.359375 0l0 -2.21875l6.296875 0l0 9.671875l3.4375 0l0 2.234375l-10.140625 0l0 -2.234375l3.765625 0l0 -7.453125zm17.757812 9.6875l0 -8.109375q0 -0.453125 -0.03125 -0.78125q-0.015625 -0.328125 -0.09375 -0.546875q-0.0625 -0.234375 -0.203125 -0.34375q-0.125 -0.109375 -0.359375 -0.109375q-0.359375 0 -0.71875 0.5q-0.34375 0.484375 -0.796875 1.671875l0 7.71875l-2.453125 0l0 -8.109375q0 -0.453125 -0.03125 -0.78125q-0.015625 -0.328125 -0.09375 -0.546875q-0.0625 -0.234375 -0.203125 -0.34375q-0.140625 -0.109375 -0.375 -0.109375q-0.296875 0 -0.671875 0.5q-0.375 0.484375 -0.828125 1.671875l0 7.71875l-2.484375 0l0 -11.90625l2.125 0l0.046875 1.734375q0.265625 -0.53125 0.515625 -0.90625q0.265625 -0.375 0.546875 -0.609375q0.296875 -0.25 0.625 -0.34375q0.34375 -0.109375 0.765625 -0.109375q1.0 0 1.515625 0.53125q0.515625 0.515625 0.59375 1.4375q0.28125 -0.53125 0.546875 -0.90625q0.28125 -0.375 0.578125 -0.609375q0.296875 -0.25 0.640625 -0.34375q0.359375 -0.109375 0.78125 -0.109375q1.296875 0 1.90625 0.90625q0.625 0.90625 0.625 2.6875l0 8.546875l-2.46875 0zm15.5234375 -6.046875q0 1.40625 -0.40625 2.578125q-0.390625 1.15625 -1.140625 2.0q-0.75 0.828125 -1.84375 1.28125q-1.09375 0.453125 -2.484375 0.453125q-1.328125 0 -2.375 -0.375q-1.03125 -0.390625 -1.765625 -1.15625q-0.71875 -0.78125 -1.109375 -1.921875q-0.390625 -1.15625 -0.390625 -2.703125q0 -1.40625 0.40625 -2.5625q0.40625 -1.171875 1.15625 -1.984375q0.765625 -0.828125 1.84375 -1.28125q1.09375 -0.453125 2.46875 -0.453125q1.328125 0 2.375 0.40625q1.046875 0.390625 1.765625 1.171875q0.734375 0.765625 1.109375 1.90625q0.390625 1.140625 0.390625 2.640625zm-2.984375 0.0625q0 -1.84375 -0.703125 -2.765625q-0.6875 -0.9375 -2.046875 -0.9375q-0.75 0 -1.28125 0.296875q-0.53125 0.28125 -0.875 0.796875q-0.328125 0.5 -0.484375 1.1875q-0.15625 0.671875 -0.15625 1.453125q0 1.859375 0.75 2.8125q0.75 0.9375 2.046875 0.9375q0.71875 0 1.234375 -0.28125q0.53125 -0.296875 0.859375 -0.796875q0.328125 -0.515625 0.484375 -1.203125q0.171875 -0.703125 0.171875 -1.5zm12.5546875 5.984375l0 -7.765625q0 -1.953125 -1.453125 -1.953125q-0.734375 0 -1.390625 0.59375q-0.65625 0.578125 -1.40625 1.59375l0 7.53125l-2.859375 0l0 -11.90625l2.484375 0l0.0625 1.75q0.359375 -0.453125 0.75 -0.828125q0.40625 -0.375 0.859375 -0.640625q0.453125 -0.265625 0.984375 -0.40625q0.53125 -0.140625 1.1875 -0.140625q0.90625 0 1.578125 0.3125q0.6875 0.296875 1.140625 0.84375q0.46875 0.53125 0.6875 1.3125q0.234375 0.765625 0.234375 1.703125l0 8.0l-2.859375 0zm13.5546875 0l-0.0625 -1.5625q-0.375 0.40625 -0.796875 0.734375q-0.40625 0.328125 -0.90625 0.578125q-0.484375 0.25 -1.0625 0.375q-0.578125 0.140625 -1.265625 0.140625q-0.921875 0 -1.609375 -0.265625q-0.6875 -0.265625 -1.15625 -0.75q-0.46875 -0.484375 -0.71875 -1.15625q-0.234375 -0.6875 -0.234375 -1.5q0 -0.84375 0.359375 -1.5625q0.359375 -0.71875 1.078125 -1.234375q0.734375 -0.515625 1.828125 -0.796875q1.109375 -0.296875 2.578125 -0.296875l1.5625 0l0 -0.71875q0 -0.453125 -0.140625 -0.828125q-0.125 -0.375 -0.40625 -0.625q-0.28125 -0.265625 -0.75 -0.40625q-0.453125 -0.140625 -1.125 -0.140625q-1.046875 0 -2.078125 0.25q-1.015625 0.234375 -1.984375 0.671875l0 -2.28125q0.859375 -0.34375 1.96875 -0.5625q1.125 -0.234375 2.328125 -0.234375q1.328125 0 2.28125 0.265625q0.953125 0.25 1.5625 0.75q0.609375 0.5 0.90625 1.265625q0.296875 0.75 0.296875 1.75l0 8.140625l-2.453125 0zm-0.40625 -5.265625l-1.75 0q-0.71875 0 -1.234375 0.140625q-0.5 0.140625 -0.8125 0.390625q-0.3125 0.25 -0.46875 0.578125q-0.140625 0.3125 -0.140625 0.671875q0 0.734375 0.46875 1.109375q0.46875 0.375 1.28125 0.375q0.59375 0 1.234375 -0.421875q0.640625 -0.4375 1.421875 -1.25l0 -1.59375zm15.9609375 1.765625q0 1.015625 -0.453125 1.734375q-0.453125 0.71875 -1.203125 1.171875q-0.734375 0.453125 -1.6875 0.65625q-0.9375 0.203125 -1.921875 0.203125q-1.3125 0 -2.375 -0.125q-1.046875 -0.109375 -1.984375 -0.359375l0 -2.578125q1.109375 0.46875 2.203125 0.671875q1.09375 0.203125 2.0625 0.203125q1.125 0 1.671875 -0.359375q0.5625 -0.359375 0.5625 -0.9375q0 -0.265625 -0.125 -0.484375q-0.109375 -0.21875 -0.4375 -0.421875q-0.3125 -0.21875 -0.90625 -0.421875q-0.578125 -0.21875 -1.53125 -0.5q-0.875 -0.234375 -1.546875 -0.546875q-0.65625 -0.3125 -1.09375 -0.734375q-0.421875 -0.421875 -0.640625 -0.96875q-0.21875 -0.5625 -0.21875 -1.3125q0 -0.734375 0.328125 -1.375q0.328125 -0.640625 0.96875 -1.125q0.65625 -0.5 1.625 -0.78125q0.984375 -0.28125 2.28125 -0.28125q1.125 0 1.984375 0.125q0.875 0.109375 1.546875 0.25l0 2.34375q-1.015625 -0.328125 -1.921875 -0.46875q-0.890625 -0.140625 -1.765625 -0.140625q-0.890625 0 -1.421875 0.328125q-0.53125 0.3125 -0.53125 0.875q0 0.265625 0.109375 0.484375q0.109375 0.203125 0.40625 0.40625q0.3125 0.203125 0.875 0.421875q0.5625 0.203125 1.46875 0.46875q1.03125 0.296875 1.734375 0.625q0.703125 0.328125 1.125 0.75q0.4375 0.421875 0.625 0.96875q0.1875 0.53125 0.1875 1.234375z" fill-rule="nonzero"/><path fill="#000000" fill-opacity="0.0" d="m1206.4645 159.65092l0 82.20471l128.47253 0" fill-rule="evenodd"/><path stroke="#4a86e8" stroke-width="1.0" stroke-linejoin="round" stroke-linecap="butt" stroke-dasharray="4.0,3.0" d="m1206.4645 159.65092l0 82.20471l128.47253 0" fill-rule="evenodd"/><path fill="#000000" fill-opacity="0.0" d="m1934.9056 86.68563l0 130.83725l0.06298828 0l0 130.83203" fill-rule="evenodd"/><path stroke="#4a86e8" stroke-width="1.0" stroke-linejoin="round" stroke-linecap="butt" stroke-dasharray="4.0,3.0" d="m1934.9056 86.68563l0 130.83725l0.06298828 0l0 130.83203" fill-rule="evenodd"/></g></svg>